<svg version="1.1" id="Layer_1" xmlns="http://www.w3.org/2000/svg" xmlns:xlink="http://www.w3.org/1999/xlink" x="0px" y="0px"
	 width="100%" viewBox="0 0 1920 506" enable-background="new 0 0 1920 506" xml:space="preserve">
<path fill="#000000" opacity="1.000000" stroke="none" 
	d="
M11.000000,1.000000 
	C644.037598,1.000000 1277.075195,1.000000 1910.725464,1.299078 
	C1914.714722,4.500623 1916.047729,8.147449 1916.046143,12.618925 
	C1915.989502,175.108658 1915.989746,337.598389 1915.542236,500.046661 
	C1280.242188,500.003571 645.382263,500.001892 10.522268,500.006134 
	C9.025002,500.006134 7.527735,500.093536 6.025988,499.662567 
	C6.022085,337.936096 6.042161,176.687195 5.941674,15.438360 
	C5.938179,9.830851 6.790767,4.933699 11.000000,1.000000 
M266.308197,249.197586 
	C262.786926,246.233124 259.265656,243.268661 255.687332,240.256165 
	C257.817230,239.743439 259.916504,239.328140 261.962830,238.731140 
	C277.286743,234.260422 285.839722,221.686340 284.652222,205.436066 
	C283.489594,189.525467 273.368286,178.049179 257.171753,177.171860 
	C235.269348,175.985474 213.280518,176.393555 191.328476,176.143509 
	C191.075912,176.140625 190.819412,176.484863 190.630417,176.620071 
	C190.630417,214.721954 190.630417,252.762863 190.630417,290.760010 
	C198.562988,290.760010 206.168167,290.760010 214.213196,290.760010 
	C214.213196,274.793091 214.213196,259.066803 214.213196,243.360001 
	C226.151993,241.867279 235.364197,244.940308 241.850800,255.385345 
	C248.781219,266.544983 256.411835,277.272156 263.845123,288.113800 
	C264.675507,289.324921 266.189392,290.842346 267.423828,290.876923 
	C276.015228,291.117493 284.616547,291.003998 294.753540,291.003998 
	C284.989868,276.579315 275.894348,263.141724 266.308197,249.197586 
M1365.195923,175.671249 
	C1349.363525,179.656448 1337.954468,189.082062 1330.902222,203.751755 
	C1324.940796,216.152313 1323.532593,229.352219 1325.353638,242.771072 
	C1328.138306,263.290283 1336.982544,280.272614 1357.294434,288.160858 
	C1383.258057,298.243927 1407.523193,293.236969 1429.781738,277.265778 
	C1431.308228,276.170410 1432.381470,273.431183 1432.417114,271.434174 
	C1432.649414,258.443512 1432.545410,245.446671 1432.519287,232.451904 
	C1432.517090,231.355621 1432.278198,230.259811 1432.175415,229.386734 
	C1415.284546,229.386734 1398.726685,229.386734 1382.318115,229.386734 
	C1382.318115,235.727264 1382.318115,241.671753 1382.318115,248.060547 
	C1391.125854,248.060547 1399.716919,248.060547 1408.267822,248.060547 
	C1409.138428,264.151031 1407.864014,266.111877 1393.782104,270.796570 
	C1392.838867,271.110443 1391.878540,271.376831 1390.917725,271.634247 
	C1372.641724,276.531555 1356.198364,267.429443 1351.263184,249.434082 
	C1348.582642,239.660248 1348.430542,229.704758 1350.321167,219.730576 
	C1354.214111,199.192947 1372.391846,191.028809 1389.691284,195.132263 
	C1399.049927,197.352127 1404.530396,204.038544 1407.521240,213.226440 
	C1415.423340,211.823318 1423.028076,210.473022 1430.951660,209.066101 
	C1426.886841,191.893784 1417.292114,180.605240 1400.594849,176.094299 
	C1389.169922,173.007706 1377.565552,173.275177 1365.195923,175.671249 
M863.714600,266.499451 
	C863.714600,274.597778 863.714600,282.696106 863.714600,290.778778 
	C871.908386,290.778778 879.515320,290.778778 887.283081,290.778778 
	C887.283081,252.468231 887.283081,214.387375 887.283081,176.149384 
	C879.398254,176.149384 871.767456,176.149384 863.778687,176.149384 
	C863.778687,191.042236 863.778687,205.826187 863.778687,220.729828 
	C848.672180,220.729828 833.924438,220.729828 818.757996,220.729828 
	C818.757996,205.735001 818.757996,190.997223 818.757996,176.236176 
	C810.746399,176.236176 803.157898,176.236176 795.427246,176.236176 
	C795.427246,214.536880 795.427246,252.592834 795.427246,290.625183 
	C803.399902,290.625183 811.106812,290.625183 819.053345,290.625183 
	C819.053345,273.633759 819.053345,257.024261 819.053345,240.266998 
	C834.038025,240.266998 848.768982,240.266998 863.714661,240.266998 
	C863.714661,248.849655 863.714661,257.174561 863.714600,266.499451 
M1616.833130,202.474869 
	C1616.833130,193.714493 1616.833130,184.954132 1616.833130,176.261154 
	C1608.924561,176.261154 1601.667358,176.261154 1594.353271,176.261154 
	C1594.353271,214.582092 1594.353271,252.633133 1594.353271,290.745514 
	C1601.374023,290.745514 1608.127197,290.745514 1615.297119,290.745514 
	C1615.297119,287.442322 1615.297119,284.391357 1615.297119,280.691376 
	C1616.468018,281.698700 1617.097778,282.179840 1617.658203,282.731354 
	C1634.672852,299.473267 1660.244263,295.521698 1670.371826,273.970245 
	C1677.943359,257.858032 1678.197510,240.857834 1671.100708,224.515289 
	C1662.068481,203.715439 1636.559570,198.431091 1619.418091,213.182510 
	C1618.754150,213.753906 1618.016724,214.239792 1616.833130,215.124619 
	C1616.833130,210.758530 1616.833130,207.109894 1616.833130,202.474869 
M1760.697754,245.500137 
	C1760.521118,239.183441 1760.469849,232.860184 1760.139648,226.551529 
	C1759.586182,215.976715 1753.387695,209.836578 1743.727051,207.018539 
	C1733.662964,204.082794 1723.352051,204.181061 1713.106812,206.021622 
	C1700.307251,208.320999 1692.088989,216.744110 1689.505005,230.174393 
	C1696.189941,231.181015 1702.854736,232.184586 1709.364868,233.164871 
	C1714.406372,222.654266 1719.576050,220.294479 1730.987793,222.919891 
	C1736.031494,224.080215 1738.101074,226.964737 1738.486206,232.625183 
	C1738.841675,237.849869 1734.568359,237.228683 1731.752930,237.994980 
	C1721.853271,240.689407 1711.666260,242.473190 1701.973633,245.744217 
	C1691.496826,249.279984 1686.234497,258.594299 1686.933105,269.652405 
	C1687.619385,280.515839 1694.295532,289.161774 1704.679810,291.838684 
	C1716.103394,294.783600 1726.765991,293.087006 1736.116333,285.410583 
	C1737.428101,284.333710 1738.795044,283.324280 1740.349609,282.118225 
	C1741.371948,285.464294 1742.190552,288.143158 1742.960083,290.661743 
	C1750.463623,290.661743 1757.644531,290.661743 1763.810913,290.661743 
	C1762.700317,283.126892 1761.183594,275.834290 1760.665039,268.471405 
	C1760.151855,261.184570 1760.645752,253.826797 1760.697754,245.500137 
M685.271973,235.696060 
	C685.137085,233.201553 685.044739,230.703903 684.860107,228.213089 
	C683.952148,215.967636 677.508301,208.090515 665.515747,206.293518 
	C657.678345,205.119141 649.544128,204.674377 641.660400,205.325546 
	C626.362976,206.589035 616.804626,215.530853 614.009338,230.132401 
	C620.049133,231.073380 626.070435,232.086075 632.121704,232.865601 
	C632.933899,232.970230 634.235840,232.116669 634.739441,231.337402 
	C640.663452,222.171753 644.309570,220.605423 655.013245,222.853699 
	C660.460449,223.997879 662.991516,227.223206 663.083252,233.143066 
	C663.163696,238.331329 658.588318,237.248123 655.905273,238.003662 
	C646.499939,240.652267 636.784790,242.275909 627.502930,245.267853 
	C616.583801,248.787552 610.651001,258.426849 611.341919,269.529694 
	C612.040100,280.746948 618.993469,289.299805 630.052307,292.006409 
	C641.401123,294.783997 651.819397,292.738739 660.936096,285.149841 
	C662.166016,284.126068 663.392212,283.097809 664.793091,281.927032 
	C665.774597,285.126099 666.641907,287.952850 667.484985,290.700623 
	C674.981567,290.700623 682.181213,290.700623 688.194702,290.700623 
	C687.085327,282.542419 685.434387,274.571167 685.053162,266.539612 
	C684.580200,256.575836 685.158447,246.562149 685.271973,235.696060 
M941.944397,292.844299 
	C946.926392,292.750122 952.050842,293.382355 956.865967,292.437592 
	C979.190613,288.057037 992.368225,270.381958 991.695068,246.400101 
	C991.097290,225.105392 975.921997,207.858383 955.394348,205.143585 
	C932.699585,202.142181 913.983459,213.561081 907.482300,234.375320 
	C898.859924,261.980804 912.594910,285.838257 941.944397,292.844299 
M1558.368530,286.922485 
	C1559.323730,286.255554 1560.307861,285.626282 1561.229614,284.916016 
	C1577.705078,272.222015 1583.271729,248.361084 1574.298828,228.942001 
	C1565.811646,210.574127 1546.237427,201.415253 1525.088257,205.916153 
	C1502.636841,210.694153 1489.252441,231.316223 1492.522461,255.763718 
	C1494.623047,271.468414 1501.751709,283.530457 1516.940063,289.517395 
	C1530.764526,294.966797 1544.507690,294.773193 1558.368530,286.922485 
M307.594666,278.882721 
	C319.116760,293.564056 334.783813,295.124451 351.351044,291.739014 
	C363.997833,289.154724 371.810791,280.498566 376.127716,267.896698 
	C369.072144,266.900055 362.537048,265.839813 355.961304,265.192108 
	C354.945343,265.092041 353.716339,266.854095 352.631989,267.807465 
	C349.869446,270.236237 347.525330,273.821136 344.315674,274.938995 
	C332.708130,278.981689 321.791229,268.658386 322.985077,254.811127 
	C340.978882,254.811127 359.017792,254.811127 378.149933,254.811127 
	C376.982513,246.850937 376.513092,239.348068 374.702087,232.184341 
	C370.757172,216.579651 358.394348,206.279343 343.268463,205.067291 
	C324.690582,203.578629 310.244324,210.914749 303.794220,226.609253 
	C296.591736,244.134537 297.006805,261.657623 307.594666,278.882721 
M1251.197754,212.241913 
	C1230.242676,198.109161 1203.254395,204.172485 1193.406372,225.914124 
	C1186.357788,241.475266 1186.475220,257.667999 1193.651855,273.328186 
	C1198.387085,283.660950 1206.773071,290.030518 1218.010376,291.914886 
	C1223.531128,292.840729 1229.270996,293.150391 1234.861206,292.836304 
	C1249.326538,292.023621 1262.497559,280.923401 1264.907715,267.781921 
	C1257.701416,266.798218 1250.512695,265.816925 1243.467041,264.855164 
	C1238.257690,274.953583 1233.010376,277.675354 1224.355835,275.048584 
	C1216.330200,272.612671 1211.260864,264.282104 1212.360352,254.777710 
	C1230.353394,254.777710 1248.404785,254.777710 1266.758423,254.777710 
	C1266.548218,238.672577 1264.905273,223.653687 1251.197754,212.241913 
M1024.332031,206.992813 
	C1018.893982,206.992813 1013.455933,206.992813 1008.181641,206.992813 
	C1008.181641,228.105667 1007.655579,248.744003 1008.371704,269.339111 
	C1008.827942,282.459045 1017.652588,291.205017 1030.187256,292.809753 
	C1041.522949,294.261017 1051.590820,291.222565 1059.852539,283.021210 
	C1060.682495,282.197266 1061.580566,281.441956 1063.155518,280.011108 
	C1063.155518,284.295135 1063.155518,287.534851 1063.155518,290.627930 
	C1070.246338,290.627930 1076.965210,290.627930 1083.636230,290.627930 
	C1083.636230,262.664307 1083.636230,235.080368 1083.636230,207.344574 
	C1076.082886,207.344574 1068.729858,207.344574 1061.168091,207.344574 
	C1061.168091,219.331268 1061.288574,230.969009 1061.121460,242.602600 
	C1061.026001,249.247421 1060.840332,255.933167 1060.011108,262.514282 
	C1059.023193,270.355927 1051.118164,276.367981 1043.242310,275.979980 
	C1035.469971,275.597137 1031.082764,270.789490 1030.864136,261.467529 
	C1030.482178,245.165604 1030.455933,228.855286 1030.286133,212.548431 
	C1030.267578,210.773788 1030.283691,208.998779 1030.283691,206.992813 
	C1028.255859,206.992813 1026.766724,206.992813 1024.332031,206.992813 
M1162.100464,243.365555 
	C1157.712646,241.872269 1153.365967,240.241119 1148.927490,238.917419 
	C1141.948853,236.836090 1134.880981,235.052658 1127.906982,232.956940 
	C1124.967041,232.073456 1122.120483,230.575256 1122.425659,226.835022 
	C1122.736572,223.022003 1125.723877,221.711609 1128.946655,220.974716 
	C1140.958740,218.228165 1146.868652,220.686050 1153.083374,231.152832 
	C1159.763672,230.136917 1166.565674,229.102478 1173.529541,228.043427 
	C1171.146851,219.528107 1167.183472,212.597031 1159.585205,209.303314 
	C1144.756836,202.875336 1129.395264,202.618256 1114.652832,209.345245 
	C1105.420166,213.558121 1100.975342,221.804031 1101.354004,232.101089 
	C1101.722534,242.124344 1107.067627,248.864792 1116.122803,252.758575 
	C1119.011475,254.000763 1121.986816,255.104736 1125.011597,255.954849 
	C1132.665283,258.105927 1140.407104,259.947235 1148.039917,262.166473 
	C1153.023071,263.615356 1155.357056,267.725922 1152.927612,271.539948 
	C1151.407959,273.925354 1148.397217,276.217346 1145.667969,276.833008 
	C1130.846924,280.176239 1124.473022,275.701965 1120.244263,264.826447 
	C1113.016357,265.856934 1105.711426,266.898438 1098.297974,267.955383 
	C1100.602661,276.351257 1104.811279,282.859650 1111.799194,286.633881 
	C1128.375854,295.587189 1145.670654,296.001160 1162.445557,287.646912 
	C1171.824219,282.976166 1176.622559,274.418823 1176.313110,263.460388 
	C1176.042725,253.879105 1171.252319,247.573456 1162.100464,243.365555 
M456.741241,243.361282 
	C461.420685,231.375046 466.100098,219.388794 470.939941,206.991638 
	C463.918030,206.991638 457.590240,207.185089 451.283295,206.906357 
	C448.329285,206.775818 447.246338,207.966980 446.381989,210.506287 
	C444.132111,217.115753 441.608948,223.631897 439.219696,230.194305 
	C435.370087,240.767929 431.540466,251.348831 427.681732,261.983582 
	C421.458740,244.734528 415.364532,227.678360 409.074310,210.694824 
	C408.526642,209.216171 406.738983,207.224304 405.441467,207.158279 
	C398.530914,206.806641 391.592987,206.992722 384.252686,206.992722 
	C384.861023,208.611740 385.245056,209.689545 385.668182,210.751785 
	C394.096802,231.912766 402.462280,253.099335 411.007019,274.213348 
	C413.313416,279.912476 414.774597,287.707825 419.149475,290.335022 
	C423.762421,293.105164 431.396210,290.844818 438.072754,290.778656 
	C444.162506,275.297119 450.302826,259.687012 456.741241,243.361282 
M565.456665,249.851624 
	C564.179871,253.683594 562.903076,257.515564 561.312622,262.288818 
	C560.550049,260.653931 560.163757,259.976807 559.907227,259.253632 
	C554.180054,243.109024 548.520386,226.940002 542.664551,210.842285 
	C542.115234,209.332153 540.398926,207.231552 539.132935,207.165787 
	C532.191833,206.805099 525.222168,206.993774 518.330383,206.993774 
	C518.235352,207.494156 518.131836,207.686340 518.183533,207.817230 
	C528.866455,234.868698 539.542480,261.923004 550.330322,288.932678 
	C550.698181,289.853760 552.175476,290.885345 553.163818,290.914612 
	C559.295044,291.096405 565.434326,291.006104 571.518433,291.006104 
	C582.533691,262.907684 593.403259,235.180939 604.350464,207.256165 
	C596.093262,207.256165 588.665222,207.256165 581.161926,207.256165 
	C575.982239,221.352020 570.878052,235.242523 565.456665,249.851624 
M1475.702026,286.283142 
	C1475.702026,249.670700 1475.702026,213.058243 1475.702026,176.374435 
	C1467.893921,176.374435 1460.537109,176.374435 1453.292725,176.374435 
	C1453.292725,214.696289 1453.292725,252.631851 1453.292725,291.008484 
	C1460.111328,291.008484 1466.737183,291.142365 1473.343506,290.841492 
	C1474.182739,290.803253 1474.918457,288.490234 1475.702026,286.283142 
M728.702087,269.499939 
	C728.702087,238.409744 728.702087,207.319534 728.702087,176.289856 
	C720.838440,176.289856 713.590149,176.289856 706.376953,176.289856 
	C706.376953,214.643127 706.376953,252.694214 706.376953,290.706207 
	C713.908691,290.706207 721.143921,290.706207 728.702087,290.706207 
	C728.702087,283.770782 728.702087,277.135315 728.702087,269.499939 
M1804.271240,259.500153 
	C1804.271240,231.764999 1804.271240,204.029846 1804.271240,176.283264 
	C1796.430664,176.283264 1789.178955,176.283264 1782.021729,176.283264 
	C1782.021729,214.613693 1782.021729,252.658340 1782.021729,290.716858 
	C1789.569092,290.716858 1796.820679,290.716858 1804.271240,290.716858 
	C1804.271240,280.455261 1804.271240,270.477722 1804.271240,259.500153 
M483.728821,257.499847 
	C483.728821,268.575439 483.728821,279.651031 483.728821,290.710693 
	C491.588989,290.710693 498.839813,290.710693 505.968140,290.710693 
	C505.968140,262.706268 505.968140,234.993912 505.968140,207.289139 
	C498.410797,207.289139 491.160431,207.289139 483.961823,207.289139 
	C483.858612,207.899323 483.757416,208.219177 483.757111,208.539139 
	C483.742249,224.526031 483.736023,240.512924 483.728821,257.499847 
M506.271179,180.562927 
	C506.271179,179.141434 506.271179,177.719955 506.271179,176.268845 
	C498.454773,176.268845 491.211853,176.268845 484.015594,176.268845 
	C484.015594,182.595932 484.015594,188.648651 484.015594,194.729889 
	C491.548370,194.729889 498.791840,194.729889 506.271179,194.729889 
	C506.271179,190.157196 506.271179,185.854523 506.271179,180.562927 
z"/>
<path fill="#FFFFFF" opacity="1.000000" stroke="none" 
	d="
M6.030468,500.140137 
	C7.527735,500.093536 9.025002,500.006134 10.522268,500.006134 
	C645.382263,500.001892 1280.242188,500.003571 1915.547607,500.478088 
	C1915.995361,502.967316 1915.997681,504.983673 1916.000000,507.000000 
	C1279.629028,507.000000 643.258118,507.000000 6.482345,506.571838 
	C6.061810,504.142487 6.046139,502.141327 6.030468,500.140137 
z"/>
<path fill="#3A3A3A" opacity="1.000000" stroke="none" 
	d="
M1916.500000,507.000000 
	C1915.997681,504.983673 1915.995361,502.967316 1915.987549,500.519562 
	C1915.989746,337.598389 1915.989502,175.108658 1916.046143,12.618925 
	C1916.047729,8.147449 1914.714722,4.500623 1911.169067,1.299078 
	C1914.330078,1.000000 1917.660278,1.000000 1920.992676,1.000000 
	C1920.995117,169.666672 1920.995117,338.333344 1920.995605,507.000000 
	C1919.663940,507.000000 1918.331909,507.000000 1916.500000,507.000000 
z"/>
<path fill="#3A3A3A" opacity="1.000000" stroke="none" 
	d="
M6.025988,499.662567 
	C6.046139,502.141327 6.061810,504.142487 6.038741,506.571838 
	C4.334848,507.000000 2.669696,507.000000 1.011045,507.000000 
	C1.017546,338.333344 1.017546,169.666672 1.017546,1.000000 
	C4.032351,1.000000 7.029611,1.000000 10.513435,1.000000 
	C6.790767,4.933699 5.938179,9.830851 5.941674,15.438360 
	C6.042161,176.687195 6.022085,337.936096 6.025988,499.662567 
z"/>
<path fill="#FBFBFB" opacity="1.000000" stroke="none" 
	d="
M266.553497,249.450867 
	C275.894348,263.141724 284.989868,276.579315 294.753540,291.003998 
	C284.616547,291.003998 276.015228,291.117493 267.423828,290.876923 
	C266.189392,290.842346 264.675507,289.324921 263.845123,288.113800 
	C256.411835,277.272156 248.781219,266.544983 241.850800,255.385345 
	C235.364197,244.940308 226.151993,241.867279 214.213196,243.360001 
	C214.213196,259.066803 214.213196,274.793091 214.213196,290.760010 
	C206.168167,290.760010 198.562988,290.760010 190.630417,290.760010 
	C190.630417,252.762863 190.630417,214.721954 190.630417,176.620071 
	C190.819412,176.484863 191.075912,176.140625 191.328476,176.143509 
	C213.280518,176.393555 235.269348,175.985474 257.171753,177.171860 
	C273.368286,178.049179 283.489594,189.525467 284.652222,205.436066 
	C285.839722,221.686340 277.286743,234.260422 261.962830,238.731140 
	C259.916504,239.328140 257.817230,239.743439 255.687332,240.256165 
	C259.265656,243.268661 262.786926,246.233124 266.553497,249.450867 
M245.952591,195.293137 
	C235.391220,195.293137 224.829849,195.293137 214.354095,195.293137 
	C214.354095,205.033859 214.354095,214.295044 214.354095,222.952072 
	C226.343124,222.952072 238.109070,223.290985 249.840866,222.805145 
	C255.472672,222.571915 259.506287,217.364716 260.125641,211.564392 
	C261.126801,202.188492 257.090485,197.260513 245.952591,195.293137 
z"/>
<path fill="#FBFBFB" opacity="1.000000" stroke="none" 
	d="
M1365.585205,175.508606 
	C1377.565552,173.275177 1389.169922,173.007706 1400.594849,176.094299 
	C1417.292114,180.605240 1426.886841,191.893784 1430.951660,209.066101 
	C1423.028076,210.473022 1415.423340,211.823318 1407.521240,213.226440 
	C1404.530396,204.038544 1399.049927,197.352127 1389.691284,195.132263 
	C1372.391846,191.028809 1354.214111,199.192947 1350.321167,219.730576 
	C1348.430542,229.704758 1348.582642,239.660248 1351.263184,249.434082 
	C1356.198364,267.429443 1372.641724,276.531555 1390.917725,271.634247 
	C1391.878540,271.376831 1392.838867,271.110443 1393.782104,270.796570 
	C1407.864014,266.111877 1409.138428,264.151031 1408.267822,248.060547 
	C1399.716919,248.060547 1391.125854,248.060547 1382.318115,248.060547 
	C1382.318115,241.671753 1382.318115,235.727264 1382.318115,229.386734 
	C1398.726685,229.386734 1415.284546,229.386734 1432.175415,229.386734 
	C1432.278198,230.259811 1432.517090,231.355621 1432.519287,232.451904 
	C1432.545410,245.446671 1432.649414,258.443512 1432.417114,271.434174 
	C1432.381470,273.431183 1431.308228,276.170410 1429.781738,277.265778 
	C1407.523193,293.236969 1383.258057,298.243927 1357.294434,288.160858 
	C1336.982544,280.272614 1328.138306,263.290283 1325.353638,242.771072 
	C1323.532593,229.352219 1324.940796,216.152313 1330.902222,203.751755 
	C1337.954468,189.082062 1349.363525,179.656448 1365.585205,175.508606 
z"/>
<path fill="#FBFBFB" opacity="1.000000" stroke="none" 
	d="
M863.714600,265.999451 
	C863.714661,257.174561 863.714661,248.849655 863.714661,240.266998 
	C848.768982,240.266998 834.038025,240.266998 819.053345,240.266998 
	C819.053345,257.024261 819.053345,273.633759 819.053345,290.625183 
	C811.106812,290.625183 803.399902,290.625183 795.427246,290.625183 
	C795.427246,252.592834 795.427246,214.536880 795.427246,176.236176 
	C803.157898,176.236176 810.746399,176.236176 818.757996,176.236176 
	C818.757996,190.997223 818.757996,205.735001 818.757996,220.729828 
	C833.924438,220.729828 848.672180,220.729828 863.778687,220.729828 
	C863.778687,205.826187 863.778687,191.042236 863.778687,176.149384 
	C871.767456,176.149384 879.398254,176.149384 887.283081,176.149384 
	C887.283081,214.387375 887.283081,252.468231 887.283081,290.778778 
	C879.515320,290.778778 871.908386,290.778778 863.714600,290.778778 
	C863.714600,282.696106 863.714600,274.597778 863.714600,265.999451 
z"/>
<path fill="#FBFBFB" opacity="1.000000" stroke="none" 
	d="
M1616.833130,202.968079 
	C1616.833130,207.109894 1616.833130,210.758530 1616.833130,215.124619 
	C1618.016724,214.239792 1618.754150,213.753906 1619.418091,213.182510 
	C1636.559570,198.431091 1662.068481,203.715439 1671.100708,224.515289 
	C1678.197510,240.857834 1677.943359,257.858032 1670.371826,273.970245 
	C1660.244263,295.521698 1634.672852,299.473267 1617.658203,282.731354 
	C1617.097778,282.179840 1616.468018,281.698700 1615.297119,280.691376 
	C1615.297119,284.391357 1615.297119,287.442322 1615.297119,290.745514 
	C1608.127197,290.745514 1601.374023,290.745514 1594.353271,290.745514 
	C1594.353271,252.633133 1594.353271,214.582092 1594.353271,176.261154 
	C1601.667358,176.261154 1608.924561,176.261154 1616.833130,176.261154 
	C1616.833130,184.954132 1616.833130,193.714493 1616.833130,202.968079 
M1616.793701,252.311874 
	C1617.547607,256.215393 1617.813599,260.296722 1619.158203,263.984863 
	C1621.841064,271.344116 1629.356323,276.395233 1635.965088,275.977295 
	C1642.914429,275.537811 1649.863647,270.136078 1650.888794,262.025604 
	C1651.975952,253.425064 1651.967285,244.440872 1650.750854,235.863342 
	C1649.538696,227.316208 1642.317505,222.104309 1634.698975,222.006577 
	C1627.060059,221.908554 1619.983887,227.470673 1618.077881,236.020645 
	C1616.969971,240.990662 1617.117676,246.240616 1616.793701,252.311874 
z"/>
<path fill="#FAFAFA" opacity="1.000000" stroke="none" 
	d="
M1760.697754,246.000137 
	C1760.645752,253.826797 1760.151855,261.184570 1760.665039,268.471405 
	C1761.183594,275.834290 1762.700317,283.126892 1763.810913,290.661743 
	C1757.644531,290.661743 1750.463623,290.661743 1742.960083,290.661743 
	C1742.190552,288.143158 1741.371948,285.464294 1740.349609,282.118225 
	C1738.795044,283.324280 1737.428101,284.333710 1736.116333,285.410583 
	C1726.765991,293.087006 1716.103394,294.783600 1704.679810,291.838684 
	C1694.295532,289.161774 1687.619385,280.515839 1686.933105,269.652405 
	C1686.234497,258.594299 1691.496826,249.279984 1701.973633,245.744217 
	C1711.666260,242.473190 1721.853271,240.689407 1731.752930,237.994980 
	C1734.568359,237.228683 1738.841675,237.849869 1738.486206,232.625183 
	C1738.101074,226.964737 1736.031494,224.080215 1730.987793,222.919891 
	C1719.576050,220.294479 1714.406372,222.654266 1709.364868,233.164871 
	C1702.854736,232.184586 1696.189941,231.181015 1689.505005,230.174393 
	C1692.088989,216.744110 1700.307251,208.320999 1713.106812,206.021622 
	C1723.352051,204.181061 1733.662964,204.082794 1743.727051,207.018539 
	C1753.387695,209.836578 1759.586182,215.976715 1760.139648,226.551529 
	C1760.469849,232.860184 1760.521118,239.183441 1760.697754,246.000137 
M1719.515015,255.876282 
	C1715.004639,256.975281 1710.727295,258.470978 1709.797363,263.821747 
	C1709.066895,268.025177 1710.643555,271.725708 1714.313110,273.582245 
	C1717.106812,274.995605 1720.733643,276.037323 1723.723633,275.563721 
	C1735.883179,273.637573 1740.916626,264.781799 1737.695435,251.662170 
	C1731.902222,253.001114 1726.101562,254.341766 1719.515015,255.876282 
z"/>
<path fill="#FBFBFB" opacity="1.000000" stroke="none" 
	d="
M685.277283,236.133041 
	C685.158447,246.562149 684.580200,256.575836 685.053162,266.539612 
	C685.434387,274.571167 687.085327,282.542419 688.194702,290.700623 
	C682.181213,290.700623 674.981567,290.700623 667.484985,290.700623 
	C666.641907,287.952850 665.774597,285.126099 664.793091,281.927032 
	C663.392212,283.097809 662.166016,284.126068 660.936096,285.149841 
	C651.819397,292.738739 641.401123,294.783997 630.052307,292.006409 
	C618.993469,289.299805 612.040100,280.746948 611.341919,269.529694 
	C610.651001,258.426849 616.583801,248.787552 627.502930,245.267853 
	C636.784790,242.275909 646.499939,240.652267 655.905273,238.003662 
	C658.588318,237.248123 663.163696,238.331329 663.083252,233.143066 
	C662.991516,227.223206 660.460449,223.997879 655.013245,222.853699 
	C644.309570,220.605423 640.663452,222.171753 634.739441,231.337402 
	C634.235840,232.116669 632.933899,232.970230 632.121704,232.865601 
	C626.070435,232.086075 620.049133,231.073380 614.009338,230.132401 
	C616.804626,215.530853 626.362976,206.589035 641.660400,205.325546 
	C649.544128,204.674377 657.678345,205.119141 665.515747,206.293518 
	C677.508301,208.090515 683.952148,215.967636 684.860107,228.213089 
	C685.044739,230.703903 685.137085,233.201553 685.277283,236.133041 
M649.634521,275.315979 
	C660.916138,272.323395 664.461609,265.966187 662.661804,251.410278 
	C655.244141,253.259140 647.732666,254.669357 640.542236,257.049561 
	C632.880310,259.585815 631.533813,268.456421 638.201599,273.004791 
	C641.025696,274.931213 645.265564,274.782166 649.634521,275.315979 
z"/>
<path fill="#FAFAFA" opacity="1.000000" stroke="none" 
	d="
M941.500977,292.769714 
	C912.594910,285.838257 898.859924,261.980804 907.482300,234.375320 
	C913.983459,213.561081 932.699585,202.142181 955.394348,205.143585 
	C975.921997,207.858383 991.097290,225.105392 991.695068,246.400101 
	C992.368225,270.381958 979.190613,288.057037 956.865967,292.437592 
	C952.050842,293.382355 946.926392,292.750122 941.500977,292.769714 
M930.718811,262.439819 
	C934.687073,271.448334 942.021851,276.674530 949.688171,275.955811 
	C958.365234,275.142303 965.576843,269.102661 967.103149,259.307373 
	C968.205200,252.234787 968.132141,244.662430 966.876709,237.617020 
	C965.196655,228.188248 957.000061,222.016800 948.597839,222.006470 
	C940.222900,221.996170 932.570190,228.241089 930.065979,237.543030 
	C927.902588,245.578918 927.999268,253.679321 930.718811,262.439819 
z"/>
<path fill="#FBFBFB" opacity="1.000000" stroke="none" 
	d="
M1558.052002,287.101654 
	C1544.507690,294.773193 1530.764526,294.966797 1516.940063,289.517395 
	C1501.751709,283.530457 1494.623047,271.468414 1492.522461,255.763718 
	C1489.252441,231.316223 1502.636841,210.694153 1525.088257,205.916153 
	C1546.237427,201.415253 1565.811646,210.574127 1574.298828,228.942001 
	C1583.271729,248.361084 1577.705078,272.222015 1561.229614,284.916016 
	C1560.307861,285.626282 1559.323730,286.255554 1558.052002,287.101654 
M1521.242065,228.801651 
	C1513.595581,239.541626 1513.740112,251.226395 1517.708374,263.034576 
	C1520.414062,271.085693 1527.953125,276.342804 1535.461060,275.936768 
	C1543.918457,275.479370 1549.808716,270.911469 1552.783203,263.091858 
	C1556.138184,254.272308 1556.131348,245.197388 1553.296021,236.210571 
	C1548.941650,222.408890 1532.544067,216.747025 1521.242065,228.801651 
z"/>
<path fill="#FBFBFB" opacity="1.000000" stroke="none" 
	d="
M307.383667,278.588013 
	C297.006805,261.657623 296.591736,244.134537 303.794220,226.609253 
	C310.244324,210.914749 324.690582,203.578629 343.268463,205.067291 
	C358.394348,206.279343 370.757172,216.579651 374.702087,232.184341 
	C376.513092,239.348068 376.982513,246.850937 378.149933,254.811127 
	C359.017792,254.811127 340.978882,254.811127 322.985077,254.811127 
	C321.791229,268.658386 332.708130,278.981689 344.315674,274.938995 
	C347.525330,273.821136 349.869446,270.236237 352.631989,267.807465 
	C353.716339,266.854095 354.945343,265.092041 355.961304,265.192108 
	C362.537048,265.839813 369.072144,266.900055 376.127716,267.896698 
	C371.810791,280.498566 363.997833,289.154724 351.351044,291.739014 
	C334.783813,295.124451 319.116760,293.564056 307.383667,278.588013 
M341.000427,222.208755 
	C329.552734,221.662918 321.822083,230.204773 323.314484,241.600494 
	C333.820435,241.600494 344.304993,241.600494 354.793549,241.600494 
	C354.306946,230.492737 350.586517,225.125504 341.000427,222.208755 
z"/>
<path fill="#FBFBFB" opacity="1.000000" stroke="none" 
	d="
M1251.473999,212.471161 
	C1264.905273,223.653687 1266.548218,238.672577 1266.758423,254.777710 
	C1248.404785,254.777710 1230.353394,254.777710 1212.360352,254.777710 
	C1211.260864,264.282104 1216.330200,272.612671 1224.355835,275.048584 
	C1233.010376,277.675354 1238.257690,274.953583 1243.467041,264.855164 
	C1250.512695,265.816925 1257.701416,266.798218 1264.907715,267.781921 
	C1262.497559,280.923401 1249.326538,292.023621 1234.861206,292.836304 
	C1229.270996,293.150391 1223.531128,292.840729 1218.010376,291.914886 
	C1206.773071,290.030518 1198.387085,283.660950 1193.651855,273.328186 
	C1186.475220,257.667999 1186.357788,241.475266 1193.406372,225.914124 
	C1203.254395,204.172485 1230.242676,198.109161 1251.473999,212.471161 
M1218.930542,225.282516 
	C1213.857910,229.551163 1212.022827,235.107971 1212.242310,241.999969 
	C1217.728516,241.999969 1223.011108,241.999969 1228.293579,241.999969 
	C1233.549683,241.999969 1238.805786,241.999969 1244.045776,241.999969 
	C1244.030884,225.769318 1232.297363,217.822769 1218.930542,225.282516 
z"/>
<path fill="#FBFBFB" opacity="1.000000" stroke="none" 
	d="
M1024.804810,206.992813 
	C1026.766724,206.992813 1028.255859,206.992813 1030.283691,206.992813 
	C1030.283691,208.998779 1030.267578,210.773788 1030.286133,212.548431 
	C1030.455933,228.855286 1030.482178,245.165604 1030.864136,261.467529 
	C1031.082764,270.789490 1035.469971,275.597137 1043.242310,275.979980 
	C1051.118164,276.367981 1059.023193,270.355927 1060.011108,262.514282 
	C1060.840332,255.933167 1061.026001,249.247421 1061.121460,242.602600 
	C1061.288574,230.969009 1061.168091,219.331268 1061.168091,207.344574 
	C1068.729858,207.344574 1076.082886,207.344574 1083.636230,207.344574 
	C1083.636230,235.080368 1083.636230,262.664307 1083.636230,290.627930 
	C1076.965210,290.627930 1070.246338,290.627930 1063.155518,290.627930 
	C1063.155518,287.534851 1063.155518,284.295135 1063.155518,280.011108 
	C1061.580566,281.441956 1060.682495,282.197266 1059.852539,283.021210 
	C1051.590820,291.222565 1041.522949,294.261017 1030.187256,292.809753 
	C1017.652588,291.205017 1008.827942,282.459045 1008.371704,269.339111 
	C1007.655579,248.744003 1008.181641,228.105667 1008.181641,206.992813 
	C1013.455933,206.992813 1018.893982,206.992813 1024.804810,206.992813 
z"/>
<path fill="#FBFBFB" opacity="1.000000" stroke="none" 
	d="
M1162.417969,243.560608 
	C1171.252319,247.573456 1176.042725,253.879105 1176.313110,263.460388 
	C1176.622559,274.418823 1171.824219,282.976166 1162.445557,287.646912 
	C1145.670654,296.001160 1128.375854,295.587189 1111.799194,286.633881 
	C1104.811279,282.859650 1100.602661,276.351257 1098.297974,267.955383 
	C1105.711426,266.898438 1113.016357,265.856934 1120.244263,264.826447 
	C1124.473022,275.701965 1130.846924,280.176239 1145.667969,276.833008 
	C1148.397217,276.217346 1151.407959,273.925354 1152.927612,271.539948 
	C1155.357056,267.725922 1153.023071,263.615356 1148.039917,262.166473 
	C1140.407104,259.947235 1132.665283,258.105927 1125.011597,255.954849 
	C1121.986816,255.104736 1119.011475,254.000763 1116.122803,252.758575 
	C1107.067627,248.864792 1101.722534,242.124344 1101.354004,232.101089 
	C1100.975342,221.804031 1105.420166,213.558121 1114.652832,209.345245 
	C1129.395264,202.618256 1144.756836,202.875336 1159.585205,209.303314 
	C1167.183472,212.597031 1171.146851,219.528107 1173.529541,228.043427 
	C1166.565674,229.102478 1159.763672,230.136917 1153.083374,231.152832 
	C1146.868652,220.686050 1140.958740,218.228165 1128.946655,220.974716 
	C1125.723877,221.711609 1122.736572,223.022003 1122.425659,226.835022 
	C1122.120483,230.575256 1124.967041,232.073456 1127.906982,232.956940 
	C1134.880981,235.052658 1141.948853,236.836090 1148.927490,238.917419 
	C1153.365967,240.241119 1157.712646,241.872269 1162.417969,243.560608 
z"/>
<path fill="#FAFAFA" opacity="1.000000" stroke="none" 
	d="
M456.592224,243.719086 
	C450.302826,259.687012 444.162506,275.297119 438.072754,290.778656 
	C431.396210,290.844818 423.762421,293.105164 419.149475,290.335022 
	C414.774597,287.707825 413.313416,279.912476 411.007019,274.213348 
	C402.462280,253.099335 394.096802,231.912766 385.668182,210.751785 
	C385.245056,209.689545 384.861023,208.611740 384.252686,206.992722 
	C391.592987,206.992722 398.530914,206.806641 405.441467,207.158279 
	C406.738983,207.224304 408.526642,209.216171 409.074310,210.694824 
	C415.364532,227.678360 421.458740,244.734528 427.681732,261.983582 
	C431.540466,251.348831 435.370087,240.767929 439.219696,230.194305 
	C441.608948,223.631897 444.132111,217.115753 446.381989,210.506287 
	C447.246338,207.966980 448.329285,206.775818 451.283295,206.906357 
	C457.590240,207.185089 463.918030,206.991638 470.939941,206.991638 
	C466.100098,219.388794 461.420685,231.375046 456.592224,243.719086 
z"/>
<path fill="#FBFBFB" opacity="1.000000" stroke="none" 
	d="
M565.615234,249.492325 
	C570.878052,235.242523 575.982239,221.352020 581.161926,207.256165 
	C588.665222,207.256165 596.093262,207.256165 604.350464,207.256165 
	C593.403259,235.180939 582.533691,262.907684 571.518433,291.006104 
	C565.434326,291.006104 559.295044,291.096405 553.163818,290.914612 
	C552.175476,290.885345 550.698181,289.853760 550.330322,288.932678 
	C539.542480,261.923004 528.866455,234.868698 518.183533,207.817230 
	C518.131836,207.686340 518.235352,207.494156 518.330383,206.993774 
	C525.222168,206.993774 532.191833,206.805099 539.132935,207.165787 
	C540.398926,207.231552 542.115234,209.332153 542.664551,210.842285 
	C548.520386,226.940002 554.180054,243.109024 559.907227,259.253632 
	C560.163757,259.976807 560.550049,260.653931 561.312622,262.288818 
	C562.903076,257.515564 564.179871,253.683594 565.615234,249.492325 
z"/>
<path fill="#F9F9F9" opacity="1.000000" stroke="none" 
	d="
M1475.702148,286.757111 
	C1474.918457,288.490234 1474.182739,290.803253 1473.343506,290.841492 
	C1466.737183,291.142365 1460.111328,291.008484 1453.292725,291.008484 
	C1453.292725,252.631851 1453.292725,214.696289 1453.292725,176.374435 
	C1460.537109,176.374435 1467.893921,176.374435 1475.702026,176.374435 
	C1475.702026,213.058243 1475.702026,249.670700 1475.702148,286.757111 
z"/>
<path fill="#F9F9F9" opacity="1.000000" stroke="none" 
	d="
M728.702087,269.999878 
	C728.702087,277.135315 728.702087,283.770782 728.702087,290.706207 
	C721.143921,290.706207 713.908691,290.706207 706.376953,290.706207 
	C706.376953,252.694214 706.376953,214.643127 706.376953,176.289856 
	C713.590149,176.289856 720.838440,176.289856 728.702087,176.289856 
	C728.702087,207.319534 728.702087,238.409744 728.702087,269.999878 
z"/>
<path fill="#FEFEFE" opacity="1.000000" stroke="none" 
	d="
M1804.271240,260.000183 
	C1804.271240,270.477722 1804.271240,280.455261 1804.271240,290.716858 
	C1796.820679,290.716858 1789.569092,290.716858 1782.021729,290.716858 
	C1782.021729,252.658340 1782.021729,214.613693 1782.021729,176.283264 
	C1789.178955,176.283264 1796.430664,176.283264 1804.271240,176.283264 
	C1804.271240,204.029846 1804.271240,231.764999 1804.271240,260.000183 
z"/>
<path fill="#FEFEFE" opacity="1.000000" stroke="none" 
	d="
M483.728821,256.999817 
	C483.736023,240.512924 483.742249,224.526031 483.757111,208.539139 
	C483.757416,208.219177 483.858612,207.899323 483.961823,207.289139 
	C491.160431,207.289139 498.410797,207.289139 505.968140,207.289139 
	C505.968140,234.993912 505.968140,262.706268 505.968140,290.710693 
	C498.839813,290.710693 491.588989,290.710693 483.728821,290.710693 
	C483.728821,279.651031 483.728821,268.575439 483.728821,256.999817 
z"/>
<path fill="#FEFEFE" opacity="1.000000" stroke="none" 
	d="
M506.271179,181.057404 
	C506.271179,185.854523 506.271179,190.157196 506.271179,194.729889 
	C498.791840,194.729889 491.548370,194.729889 484.015594,194.729889 
	C484.015594,188.648651 484.015594,182.595932 484.015594,176.268845 
	C491.211853,176.268845 498.454773,176.268845 506.271179,176.268845 
	C506.271179,177.719955 506.271179,179.141434 506.271179,181.057404 
z"/>
<path fill="#030303" opacity="1.000000" stroke="none" 
	d="
M246.393555,195.315079 
	C257.090485,197.260513 261.126801,202.188492 260.125641,211.564392 
	C259.506287,217.364716 255.472672,222.571915 249.840866,222.805145 
	C238.109070,223.290985 226.343124,222.952072 214.354095,222.952072 
	C214.354095,214.295044 214.354095,205.033859 214.354095,195.293137 
	C224.829849,195.293137 235.391220,195.293137 246.393555,195.315079 
z"/>
<path fill="#020202" opacity="1.000000" stroke="none" 
	d="
M1616.746948,251.838226 
	C1617.117676,246.240616 1616.969971,240.990662 1618.077881,236.020645 
	C1619.983887,227.470673 1627.060059,221.908554 1634.698975,222.006577 
	C1642.317505,222.104309 1649.538696,227.316208 1650.750854,235.863342 
	C1651.967285,244.440872 1651.975952,253.425064 1650.888794,262.025604 
	C1649.863647,270.136078 1642.914429,275.537811 1635.965088,275.977295 
	C1629.356323,276.395233 1621.841064,271.344116 1619.158203,263.984863 
	C1617.813599,260.296722 1617.547607,256.215393 1616.746948,251.838226 
z"/>
<path fill="#040404" opacity="1.000000" stroke="none" 
	d="
M1719.907959,255.779343 
	C1726.101562,254.341766 1731.902222,253.001114 1737.695435,251.662170 
	C1740.916626,264.781799 1735.883179,273.637573 1723.723633,275.563721 
	C1720.733643,276.037323 1717.106812,274.995605 1714.313110,273.582245 
	C1710.643555,271.725708 1709.066895,268.025177 1709.797363,263.821747 
	C1710.727295,258.470978 1715.004639,256.975281 1719.907959,255.779343 
z"/>
<path fill="#060606" opacity="1.000000" stroke="none" 
	d="
M649.248291,275.446228 
	C645.265564,274.782166 641.025696,274.931213 638.201599,273.004791 
	C631.533813,268.456421 632.880310,259.585815 640.542236,257.049561 
	C647.732666,254.669357 655.244141,253.259140 662.661804,251.410278 
	C664.461609,265.966187 660.916138,272.323395 649.248291,275.446228 
z"/>
<path fill="#020202" opacity="1.000000" stroke="none" 
	d="
M930.577393,262.067078 
	C927.999268,253.679321 927.902588,245.578918 930.065979,237.543030 
	C932.570190,228.241089 940.222900,221.996170 948.597839,222.006470 
	C957.000061,222.016800 965.196655,228.188248 966.876709,237.617020 
	C968.132141,244.662430 968.205200,252.234787 967.103149,259.307373 
	C965.576843,269.102661 958.365234,275.142303 949.688171,275.955811 
	C942.021851,276.674530 934.687073,271.448334 930.577393,262.067078 
z"/>
<path fill="#030303" opacity="1.000000" stroke="none" 
	d="
M1521.493652,228.537750 
	C1532.544067,216.747025 1548.941650,222.408890 1553.296021,236.210571 
	C1556.131348,245.197388 1556.138184,254.272308 1552.783203,263.091858 
	C1549.808716,270.911469 1543.918457,275.479370 1535.461060,275.936768 
	C1527.953125,276.342804 1520.414062,271.085693 1517.708374,263.034576 
	C1513.740112,251.226395 1513.595581,239.541626 1521.493652,228.537750 
z"/>
<path fill="#040404" opacity="1.000000" stroke="none" 
	d="
M341.386749,222.325562 
	C350.586517,225.125504 354.306946,230.492737 354.793549,241.600494 
	C344.304993,241.600494 333.820435,241.600494 323.314484,241.600494 
	C321.822083,230.204773 329.552734,221.662918 341.386749,222.325562 
z"/>
<path fill="#040404" opacity="1.000000" stroke="none" 
	d="
M1219.243408,225.077225 
	C1232.297363,217.822769 1244.030884,225.769318 1244.045776,241.999969 
	C1238.805786,241.999969 1233.549683,241.999969 1228.293579,241.999969 
	C1223.011108,241.999969 1217.728516,241.999969 1212.242310,241.999969 
	C1212.022827,235.107971 1213.857910,229.551163 1219.243408,225.077225 
z"/>
</svg>