<?xml version="1.0" encoding="UTF-8"?>
<svg id="Layer_1" data-name="Layer 1" xmlns="http://www.w3.org/2000/svg" viewBox="0 0 7164.37 3859.47">
  <defs>
    <style>
      .cls-1 {
        font-family: AgeoTrial-Light, 'Ageo Trial';
        font-size: 441.27px;
        font-weight: 300;
      }

      .cls-1, .cls-2, .cls-3 {
        fill: #fff3f3;
      }

      .cls-4 {
        fill: #fc9533;
      }

      .cls-5 {
        fill: #ff9d3e;
      }

      .cls-6 {
        fill: #ffa356;
      }

      .cls-7 {
        fill: #ffa357;
      }

      .cls-8 {
        fill: #ffffd3;
      }

      .cls-9 {
        fill: #ffffed;
      }

      .cls-10 {
        fill: #ffffe2;
      }

      .cls-11 {
        fill: #fff75d;
      }

      .cls-12 {
        fill: #fffc5b;
      }

      .cls-13 {
        fill: #ffffc1;
      }

      .cls-14 {
        fill: #ffffc0;
      }

      .cls-15 {
        fill: #fffe90;
      }

      .cls-16 {
        fill: #fffe9b;
      }

      .cls-17 {
        fill: #ffffb0;
      }

      .cls-18 {
        fill: #ffe585;
      }

      .cls-19 {
        fill: #ffc625;
      }

      .cls-20 {
        fill: #ffc732;
      }

      .cls-21 {
        fill: #ffd838;
      }

      .cls-22 {
        fill: #ffb222;
      }

      .cls-23 {
        fill: #ffa430;
      }

      .cls-24 {
        fill: #ffa72c;
      }

      .cls-25 {
        fill: #ffaa18;
      }

      .cls-26 {
        fill: #ffb82e;
      }

      .cls-27 {
        fill: #ffb65b;
      }

      .cls-28 {
        fill: #ffbd52;
      }

      .cls-29 {
        fill: #ffc83b;
      }

      .cls-30 {
        fill: #ffd261;
      }

      .cls-31 {
        fill: #ffb91a;
      }

      .cls-32 {
        fill: #ffad59;
      }

      .cls-33 {
        fill: #ffa62d;
      }

      .cls-34 {
        fill: #ffc340;
      }

      .cls-35 {
        fill: #ffab4f;
      }

      .cls-36 {
        fill: #ffc222;
      }

      .cls-37 {
        fill: #ffb529;
      }

      .cls-38 {
        fill: #ffb42c;
      }

      .cls-39 {
        fill: #ffcf2e;
      }

      .cls-40 {
        fill: #fc8256;
      }

      .cls-41 {
        fill: #fdc381;
      }

      .cls-42 {
        fill: #ff8a48;
      }

      .cls-43 {
        fill: #fed779;
      }

      .cls-44 {
        fill: #ff8024;
      }

      .cls-45 {
        fill: #ff8e25;
      }

      .cls-46 {
        fill: #ff8731;
      }

      .cls-47 {
        letter-spacing: .13em;
      }

      .cls-3 {
        font-family: AgeoTrial-Regular, 'Ageo Trial';
        font-size: 1196.97px;
      }

      .cls-48 {
        letter-spacing: .16em;
      }

      .cls-49 {
        letter-spacing: .14em;
      }
    </style>
  </defs>
  <g>
    <path class="cls-2" d="M6534.08,1761.43c186.11,0,372.22,0,558.34,0,11.1,0,22.2-.07,33.29,.17,5.96,.13,11.96,.5,17.85,1.34,11.18,1.6,18.2,8.82,19.83,20.31,.72,5.05,.97,10.2,.97,15.3,0,37.56-.1,75.12-.19,112.68-.02,9.41-.38,18.78-3.71,27.77-2.55,6.87-6.97,11.71-14.25,13.37-4.15,.94-8.37,1.83-12.6,2.07-11.07,.65-22.16,1.26-33.25,1.3-35.85,.16-71.71,.06-107.56,.06-183.55-.02-367.1,.07-550.65-.12-132.32-.13-264.65-.61-396.97-.99-30.73-.09-61.47-.2-92.19-.74-10.2-.18-20.49-1.03-30.52-2.78-13.17-2.3-20.76-11.19-22.1-24.64-.68-6.78-.77-13.64-.71-20.46,.29-32.44,.56-64.88,1.21-97.32,.19-9.35,1.05-18.77,2.58-27.99,1.88-11.28,9.55-17.78,21.13-18.82,5.93-.54,11.93-.57,17.9-.54,40.12,.21,80.24,.71,120.36,.74,157.09,.09,314.17,.04,471.25,.04v-.75Z"/>
    <path class="cls-2" d="M590.15,1797.04c141.76,0,283.52,.05,425.27-.03,32.45-.02,64.9-.57,97.35-.65,10.24-.03,20.49,.44,30.7,1.13,5.07,.34,10.16,1.37,15.08,2.68,8.27,2.19,12.93,8.06,14.3,16.31,.83,5.02,1.1,10.18,1.2,15.28,.1,5.11-.48,10.24-.51,15.36-.12,23.05,0,46.11-.25,69.15-.12,11.08-.46,22.18-1.43,33.21-.83,9.51-6.77,15.48-15.85,17.95-4.91,1.34-10.01,2.28-15.07,2.68-6.8,.54-13.65,.52-20.48,.5-179.33-.64-358.66-1.3-537.99-1.97-48.67-.18-97.35-.86-146.02-.49-79.41,.61-158.82,2.03-238.23,2.84-44.4,.45-88.81,.45-133.22,.44-7.64,0-15.38-.52-22.91-1.81-10.94-1.88-18.22-9.67-19.89-20.67-.89-5.88-1.36-11.9-1.24-17.84,.74-36.72,.84-73.43-.97-110.14-.21-4.22,.26-8.52,.89-12.72,.98-6.47,7.13-12.7,13.47-13.92,3.34-.64,6.73-1.21,10.12-1.33,6.82-.23,13.66-.2,20.49-.15,116.99,.83,233.98,1.7,350.97,2.52,58.07,.41,116.14,.72,174.2,1.08,0,.2,0,.41,0,.61Z"/>
    <path class="cls-7" d="M4427.69,867.02c-.09-13.41,6.63-24.33,13.55-34.9,4.33-6.62,11.72-9.52,19.5-10.47,2.38-.29,5.06,.42,7.36,1.31,4.72,1.82,9.15,4.46,13.93,6.06,10.99,3.67,21.6,3.08,31.26-4.12,2.71-2.02,6.15-3.39,8.18-5.92,7.89-9.85,18.03-17.76,24.61-28.71,6.54-2.97,10.34-8.66,14.12-14.33,8.01-12.02,15.31-24.58,24.04-36.06,13.04-17.16,16.65-36.89,17.77-57.47,.55-10.17,.31-20.39,.43-30.59,13.72,1.78,10.78,13.08,11.63,21.51,1.01,10.08,.37,20.32,.33,30.46,1.84,27.62-5.13,51.95-26.65,70.77-20.94,18.58-33.22,46.03-59.81,58.91-6.17,3.11-12.59,5.64-19.16,7.8-3.11,1.16-6.27,2.19-9.46,3.11-4.23,1.14-8.49,1.21-12.75,.29-2.89-.67-5.72-1.64-8.58-2.36-2.89-.45-5.79-.52-8.69,.19-3.12,1.1-4.9,3.63-6.78,6.03-2.88,4.23-6.87,7.31-10.75,10.5-3.73,3.26-6.66,7.13-8.9,11.55-.79,1.93-1.61,3.81-2.33,5.76-1.68,5.46-1.3,11.09-1.64,16.69-1.99,6.46-.1,17.24-12.91,11.66-1.06-12.65-1.84-25.27,1.71-37.7Z"/>
    <path class="cls-32" d="M4694.71,692.3c5.89,4.44,8.05,11.06,9.16,17.74,3.04,18.44,7.07,36.7,6.09,55.71-.92,17.86,.04,35.82-.08,53.73-.07,11.14,1.42,21.93,3.78,32.87,2.09,9.72,5.82,17.62,13.21,24,7.34,6.33,15.76,10.2,25.46,10.64,8.58,.39,16.79,2.73,25.16,3.98,10.96,1.63,19.05,6.9,25.75,15.08,1.6,1.95,2.72,4.3,4.06,6.46,13.45,38.25,8.3,75.27-7.43,111.58-8.52,5.93-12.42-.11-16.28-6.24-.83-2.51-1.11-5.13-.89-7.77,9.93-21.65,23.05-42.64,15-68.27-2-8.68-.41-18.03-5.01-26.17-1.22-1.55-2.45-3.13-3.79-4.56-3.06-2.48-6.7-3.67-10.47-4.61-1.97-.42-3.88-.97-5.8-1.53-6.99-2.07-14.18-1.74-21.34-1.82-4.25-.06-8.44-.53-12.55-1.6-3.02-.84-5.88-2.1-8.68-3.47-1.86-.8-3.65-1.77-5.41-2.77-2.64-1.43-5.23-2.98-7.81-4.55-4.42-2.68-7.94-6.26-10.69-10.65-1.21-1.73-2.27-3.54-3.32-5.39-1.2-1.9-2.21-3.85-3.21-5.86-2.17-4.28-4.15-8.62-5.36-13.32-.72-2.6-1.11-5.2-1.31-7.88-1.34-21.28-.44-42.53-.63-63.79,.62-16.26-.67-32.5-.08-48.74,3.85-14.09-8.08-29.11,2.48-42.81Z"/>
    <path class="cls-40" d="M4694.71,692.3c.31,4.06-.42,8.59,1.14,12.1,4.21,9.44,3.64,19.18,3.52,28.99-12.46-.12-10.49-11.2-13.17-18.18-3.6-9.36-4.63-19.64-9.75-28.54-5.93-10.3-11.6-21.71-25.99-20.23-14.35,1.48-24.86,9.23-30.54,23.02-2.85,6.92,.35,18.14-12.48,18.3-.07-15.01-.13-30.01-.21-45.02-.02-4.33-1.17-8.19-4.8-10.94,0,0-.47-.99-.47-.99-2.75-26.77-.38-28.12,34.93-19.98,17.23,5.96,31.45,16.38,43.65,29.7,8.23,8.99,13.96,19.16,14.17,31.76Z"/>
    <path class="cls-41" d="M4796.63,1025.33c5.96-12.14,9.21-24.88,11.43-38.31,1.92-11.59,4.52-22.94,4.06-34.78-.26-6.72-.09-13.42-2.72-19.83-2.63-6.39-2.3-13.16-2.09-19.89,6.93,7.18,8.64,16.68,9.5,25.74,2.69,28.36-1.54,56.14-10.79,82.96-3.86,11.21-9.4,21.82-17.5,31.01-5,5.68-8.46,12.71-12.61,19.14-8.6,5.12-17.2,10.24-25.79,15.35-13.66-4.94-7.55-12.86-3.13-20.54,4.34-4.42,9.98-6.83,15.23-9.84,14.57-6.89,18.1-26.07,34.42-31.02Z"/>
    <path class="cls-7" d="M4636.89,630.84c-9.17,.26-18.34,.46-27.5,.83-2.9,.12-6.08,3.34-6.51,6.69-.53,4.13-.63,8.32-.92,12.47-7.38-7.03-5.63-15.17-2.4-23.15,1.67-4.12,5.63-6.31,10.03-6.48,10.3-.39,19.47,2.82,27.3,9.64Z"/>
    <path class="cls-43" d="M4427.69,867.02c.09,13.51,.17,27.01,.26,40.52,.17,1.13,.35,2.26,.54,3.39,1.33,12.4-1.06,25.14,3.46,37.25,.69,2.22,1.14,4.49,1.5,6.78,.65,19.91,7.18,37.97,17.33,54.85,4.73,7.03,9.83,13.79,15.97,19.67,1.57,1.28,3.06,2.67,4.55,4.05,2.28,1.94,4.52,3.93,6.94,5.69,4.23,2.88,9.55,3.63,13.61,6.86,4.58,4.94,8.47,10.37,12,16.1,3.21,6.67,6.45,13.34,1.8,20.68-3.11,2.43-6.67,3.25-10.55,2.95-16.38-4.88-27.43-16.14-36.07-30.26-1.08-3.15-1.49-6.77-3.35-9.36-11.88-16.58-19.38-35.46-28.45-53.5-1.5-2.99-2.74-6.19-3.57-9.43-5.26-20.6-7.9-53.53-5.39-75.26,1.44-12.48,3.98-24.83,6.26-37.2,.26-1.41,2.06-2.53,3.14-3.78Z"/>
    <path class="cls-8" d="M4597.16,1127.76c-10.08-1.33-19.44-6.2-29.94-5.81-1.95,.07-4.02-2.77-6.03-4.26,2.56-16.88-4.1-30.61-15.39-42.25-13.67-14.1-12.15-26.48,2.33-38.86,9.63-8.23,19.85-15.95,27.23-26.58,2.12-2.7,4.53-5.13,6.49-7.9,23.35-33.09,33.62-36.74,69.41-24.54,31.3,10.67,51.28,37.97,50.64,68.38-.4,18.72-2.05,37.23-5.55,55.63-1.64,8.66-3.77,16.59-12.16,21.16-6.55,3.69-13.49,5.63-21.1,5.22-4.89-.27-9.81-.04-14.72-.04-1.45-8.09,7.12-14.33,2.51-23.91-5.67-11.79,1.63-20.25,11.58-27.51,22.43-16.34,21.4-47.36-1.45-62.7-28.99-19.46-67.6-5.57-76.73,27.93-3.04,11.14,3.72,19.21,10.54,27.08,16.08,18.58,16.74,38.18,2.34,58.95Z"/>
    <path class="cls-10" d="M4597.16,1127.76c1.1-4.09,2-8.25,3.36-12.24,1.72-5.03,2.41-10.23,.27-14.99-2.65-5.9-1.99-11.44-.55-17.32,.3-1.24-.78-3.57-1.91-4.27-2.84-1.75-6.26-2.57-9.1-4.31-2.09-1.28-4.35-3.13-5.3-5.27-3.8-8.53-7.23-17.24-10.52-25.99-.49-1.31-.01-4.01,.96-4.68,15.21-10.38,22.5-27.53,34.76-40.38,2.5-2.62,5.88-3.84,9.29-3.14,10.79,2.24,21.37,5.41,32.59,5.19,2.34-.05,4.96,1.29,7.02,2.64,2.83,1.85,5.43,4.15,7.81,6.57,4.79,4.87,12.48,6.21,15.86,12.6,4.22,7.95,2.04,16.72,2.44,25.15,.2,4.25-.04,8.53-.05,12.79-.04,9.67-5.45,15.87-13.4,20.16-2.95,1.59-6.5,2.05-9.55,3.5-6.05,2.87-8.94,10.71-6.74,17.57,1.16,3.62,4.15,5.07,7.41,6.3,2.38,.9,4.61,2.09,4.92,5.16,.27,2.65-2.04,6.32-5.28,8.03-4.39,2.31-10.22,1.98-13.1,7.09-2.25,2.66-5.06,5.58-8.54,4.27-13.89-5.25-28.33-4.07-42.66-4.42Z"/>
    <path class="cls-17" d="M4530.5,1107.4c-5.39-2.98-11.8-4.42-15.44-10.08,.98-21.03-3.57-42.25,3.99-63.07,5.89-16.22,15.35-30.27,31.94-33.49,19.32-3.75,23.45-17.18,28.05-31.87,5.05-16.11,4.93-33.76,14.19-48.62,13.11-21.05,31.59-23.39,43.87-2.49,15.02,25.55,38,43.18,56.45,65.16,1.59,2.08,2.73,4.4,3.49,6.9,.6,3.96-.14,7.5-3.36,10.2-18.84-4.1-31.18-18.73-45.86-29.26-37.69-27-37.77-27.66-54.65,14.01-5.23,12.92-12.05,24.02-22.21,33.3-7.87,3.5-14.04,9.26-20.64,14.64-14.94,12.17-17.64,24.66-7.05,41.91,11.54,18.81,6.42,29.42-12.77,32.77Z"/>
    <path class="cls-14" d="M4571.44,1015.16c9.06-11.34,15.44-24.1,18.79-38.15,3.01-12.66,9.59-23.22,17.32-33.3,3.24-4.22,6.16-4.87,10.74-1.56,13.6,9.81,26.81,20.18,40.66,29.63,12.51,8.53,23.11,19.39,35.51,27.99,1.12,.63,2.24,1.25,3.38,1.86,2.98,2.49,5.38,5.47,7.5,8.7,13.32,21.61,11.82,45.38,10.07,69.21-.54,7.36-4.86,14.92,1.11,21.94,1.45,1.99,2.52,4.16,3.3,6.49-3.31,2.31-6.33,5.36-9.98,6.77-8.35,3.22-16.65,6.79-25.65,7.99,1.07-2.32,2.22-4.6,3.19-6.96,.64-1.56,1.61-3.3,1.43-4.85-1.58-13.9,5.45-26.52,5.7-40.17,.22-11.85-1.33-23.77,1.96-35.56,.79-2.82-.64-6.89-2.29-9.64-4.8-7.98-9.88-15.85-15.51-23.27-5.76-7.58-13.78-12.3-22.43-16.36-14.26-6.69-29.88-5.62-44.75-8.74-2.02-.42-4.98,1.24-6.79,2.78-2.55,2.15-4.79,4.88-6.52,7.74-2.62,4.36-4.52,9.16-7.04,13.59-3.43,6.02-8.11,10.89-14.5,13.91-1.74,1.79-3.47,1.78-5.19-.04Z"/>
    <path class="cls-16" d="M4694.42,989.55c-3.38-2.54-7.09-4.75-10.09-7.69-12.2-11.92-24.16-24.1-36.27-36.11-4.9-4.86-8.89-9.95-10.69-17.01-2.22-8.71-9.5-13.83-16.36-18.94-3.7-2.76-11.37-1.96-14.08,1.74-4.51,6.17-8.88,12.46-12.92,18.94-1.28,2.05-1.63,4.83-1.88,7.33-1.53,15.31-6,29.92-10.62,44.48-1.53,4.84-3.66,9.55-6.04,14.04-2.51,4.75-6.64,7.7-12.16,8.23-2.54,.25-5.1,.39-7.66,.45-5.45,.14-9.77,2.65-13.54,6.34-3.05,2.98-6.07,5.99-9.1,9-4.35,4.32-6.97,9.26-7.93,15.57-1.66,10.85-6.41,21.25-4.81,32.58,.59,4.18,.88,8.55,2.37,12.43,3.23,8.4-.95,12.84-7.59,16.39-1.73-.18-3.45-.36-5.18-.54-1.77-1.32-3.41-2.79-4.93-4.41-4.61-2.16-8.3-5.27-10.29-10.09,3.42-.18,6.83-.36,10.24-.54,7.54-16.64,2.01-34.92,7.23-52.28,5.68-18.9,15.44-33.54,34.02-38.04,20.78-5.03,27.48-18.38,28.36-36.71,.98-20.21,8.84-38.25,16.8-56.04,8.65-19.35,29.61-23.71,40.37-6.46,18.58,29.78,39.98,56.89,62.86,83.18,3.43,3.94,3.65,9.47-.15,14.16Z"/>
    <path class="cls-13" d="M4571.44,1015.16c1.73,.01,3.46,.02,5.19,.04-.47,3.35-1.12,6.63-3.92,8.96-9.66,8.03-19.37,15.99-28.95,24.11-3.44,2.91-3.77,12.81-.49,16.52,2.18,2.46,4.75,4.72,7.51,6.51,9.98,6.48,15.33,14.93,13.45,27.33-.54,3.59,2.26,6.08,5.55,7.47,2.31,.98,4.89,1.46,7,2.74,1.12,.68,2.16,2.65,2.03,3.92-.13,1.32-1.56,3.42-2.67,3.59-4.94,.76-9.96,.94-14.95,1.33-8.96,.36-17.78-.12-25.52-5.34-1.95-1.31-3.45-3.28-5.16-4.95,4.3-.61,8.24-1.69,9.72-6.55,.98-3.22,1.98-6.45,3.25-9.56,1.4-3.44,1.3-7.1-1.06-9.5-5.7-5.8-6.29-13.66-9.43-20.47-2.71-5.89-1.75-11.17,.8-16.92,5-11.27,14.09-18.79,23.06-26.4,4.07-3.46,9.56-2.72,14.6-2.83Z"/>
    <path class="cls-18" d="M4719.81,1107.96c-1.71-.3-3.41-.6-5.12-.9-4.87-5.85-1.64-11.14,1.1-16.47,7.48-10.31,11.04-22.66,17.22-33.68,1.74-1.73,3.83-2.62,6.28-2.71,6.33,1.79,10.27,5.81,11.48,12.36-1.09,2.26-2.23,4.49-3.27,6.78-2.31,5.08-2.04,9.68,2.62,13.4-8.25,9.73-19.55,15.08-30.31,21.22Z"/>
    <path class="cls-17" d="M4504.96,1092.38c1.64,1.47,3.29,2.94,4.93,4.41-1.64,.2-3.28,.28-4.92,.24-.08-1.55-.08-3.1,0-4.65Z"/>
    <path class="cls-2" d="M636.63,1502.37c3.29-.21,6.59-.42,9.88-.64,3.01-2.86,7.51-1.95,10.75-4.23,4.95-.26,9.91-.52,14.86-.78,1.77-1.64,3.49-3.35,5.68-4.46,3.23-.26,6.46-.53,9.69-.79,1.7-1.66,3.64-2.97,5.8-3.96,10.01-.36,20.03-.72,30.04-1.09,4.23-4.67,11.31-.08,15.52-4.8,1.65-.11,3.31-.23,4.96-.36,4.44-4.24,11.15-.46,15.66-4.44,5.02-.25,10.04-.49,15.06-.74,4.43-4.19,11.23-.27,15.62-4.58,1.65-.1,3.3-.21,4.95-.36,2.87-3.06,7.4-2.05,10.58-4.33,3.29-.3,6.58-.6,9.88-.9,4.39-4.31,11.19-.41,15.62-4.57,3.38-.4,6.97-.23,10.11-1.32,9.02-3.13,18.25-4.08,27.69-3.99,10.3,.1,20.39-.82,30.07-4.85,10.37-4.32,21.24-5.82,32.49-5.71,17.98,.18,35.37-4.38,52.88-7.66,14.18-2.65,27.85-8.02,42.56-7.87,17.9-6.04,37.08-4.38,55.26-9.18,6.5-1.72,13.31-2.47,19.76-4.78,5.61-2.01,11.27-4.23,17.11-5.17,19.5-3.14,29.04-16.15,34.37-33.54,.99-3.23,.89-6.8,1.89-10.03,2.55-8.29,6.9-15.45,13.41-21.4,5.3-4.84,11.12-7.61,18.38-7.54,9.38,.09,18.77-.12,28.15-.19,25.59-.18,51.18-.34,76.77-.51,36.71,.06,73.44,.87,110.12-.13,19.47-.53,38.73-5.46,58.37-5.5,12.28-4.77,25.19-4.14,37.95-4.11,12.88,.03,25.46-1.1,37.88-4.78,17.98-5.32,36.76-6.65,55.07-10.46,22.52-4.7,44.88-9.63,65.67-19.89,22.43-15.28,50.05-14.12,74.48-23.26,8.69-3.25,17.62-5.92,26.05-9.91,36.93-9.83,73.88-19.65,109.14-34.71,2.18-1.23,4.42-2.37,6.67-3.46,3.45-1.42,6.9-2.86,10.51-3.86,40.96-13.84,79.6-33.09,118.77-51.11,34.91-12.41,63.13-38.33,98.92-48.98,18.79-8.35,34.92-20.89,51.01-33.29,7.38-5.69,14.63-11.52,22.22-16.97,19.28-13.85,38.39-27.94,57.53-41.99,7.51-5.52,14.53-11.83,22.44-16.68,12.5-7.66,23.14-17.15,32.21-28.55,8.6-8,17.23-15.98,25.78-24.03,3.67-3.46,6.72-7.77,10.83-10.52,18.51-12.36,30.31-31.11,45.36-46.73,21.07-32.95,48.42-61.01,71.75-92.16,1.28-1.76,2.55-3.55,3.77-5.36,.61-.86,1.25-1.73,1.85-2.6,1.3-1.62,2.62-3.26,3.9-4.92,1.11-1.75,2.19-3.53,3.2-5.35,1.07-1.81,2.26-3.52,3.56-5.18,.69-.8,1.41-1.57,2.11-2.37,1.42-1.61,2.89-3.16,4.38-4.71,.75-.8,1.51-1.57,2.27-2.36,8.37-11.82,17.77-22.91,24.8-35.66l-.03,.05c8.64-8.72,14.89-19.02,19.81-30.14,1.15-1.64,2.35-3.28,3.57-4.88,1.45-2.44,2.65-5.05,3.83-7.64,.83-1.59,1.7-3.18,2.57-4.76,1.25-2.35,2.27-4.83,3.51-7.22,.77-1.65,1.62-3.25,2.53-4.84,1.56-3.48,3.18-6.92,5.07-10.24,2.09-4.87,5.6-8.76,8.6-13.02,1.81-2.91,3.3-5.99,5.24-8.85,1.62-1.86,3.26-3.65,4.95-5.44,23.98-36.76,57.9-32.59,93.21-22.72,13.72,6.81,30.02,7.34,42.43,17.36,3.89,1.68,7.69,3.61,11.69,4.95,3.2,1.07,6.96,.76,9.91,2.2,20.15,9.83,42.73,10.61,63.68,17.38,21.15,1.29,41.75,7.9,63.18,6.58,1.39,.49,2.81,.64,4.27,.46,1.78,1.26,3.74,2.04,5.89,2.34,20.91,3.37,41.82,6.8,63.07,7.29,23.75,.55,47.51,.92,71.25,1.61,9.3,.27,18.57,1.54,27.87,1.78,14.39,.36,28.89,1.26,43.17-.02,10.99-.99,21.95-1.68,32.96-2.04,16.96-.57,33.91-1.32,50.87-1.95,5.14-.19,10.14-.84,14.69-3.49,21.48,1.1,42.25-3.4,62.99-8.02,1.57-.35,2.91-1.7,4.36-2.58,2.2-.25,4.41-.4,6.63-.45,6.9,.26,13.64-.67,20.28-2.56,5-.08,9.97-.03,14.97-.08,21.15-4.1,42.8-3.47,63.95-7.24,3.21-.24,6.43-.47,9.64-.71,6.02-5.16,14.79,.93,20.61-5.05,0,0-.05,0-.05,0,5.79-.07,11.63,.33,17.33-.4,3.01-.39,5.76-2.76,8.63-4.23,1.59-.21,3.18-.42,4.78-.61,5.92-5.17,14.75,1.12,20.39-5.18l.08-.04c4.56-3.88,11.27-.25,15.73-4.49,1.58-.22,3.16-.43,4.74-.64,4.41-4.06,11.37,.07,15.51-4.84h0c4.48-4.27,11.14-.73,15.78-4.42,1.57-.21,3.14-.44,4.71-.71,4.28-4.47,11.27-.34,15.52-4.89h.06c4.2-4.97,11.06-.81,15.62-4.54,1.6-.18,3.19-.4,4.78-.66,5.58-6.01,14.75,1.08,20.17-5.54,13.21-5.1,27.13-7.91,40.29-13.42,8.27-3.46,18.16-2.52,26.4-7.16,3.09-2.54,7.62-1.65,10.58-4.48h.07c2.51-3.63,7.3-2.28,10.36-4.72l.33-.07c2.14-4.22,7.08-2.6,10.15-4.86,1.48-.29,2.94-.64,4.39-1.05,2.95-3.18,7.67-1.77,10.91-4.18,1.52-.26,3.02-.58,4.51-.95,2.99-2.77,7.56-1.86,10.58-4.54l-.35-.66c1.44-1.27,3.12-2.01,5.05-2.11,3.69-.13,7.52,.28,10.54-2.6h0c2.67-3.09,7.51-2.08,10.11-5.3h.02c2.82-2.85,7.59-1.86,10.15-5.2h.03c1.92-1.44,3.42-3.39,5.6-4.49l.22,.02c2.15-4.14,7.2-2.49,10.13-5.06,1.48-.3,2.95-.66,4.41-1.05,1.91-1.39,3.82-2.77,5.73-4.15l.22,.02c2.03-4.06,7.2-2.44,9.81-5.44h.05c4.56-4.3,10.38-6.67,15.55-10.03,27.41-15.24,54.81-30.47,82.22-45.71,1.85-4.37,7.16-2.77,9.84-5.7l.03,.03c2.3-3.69,7.47-2.11,9.97-5.44h0c1.53-1.89,3.41-3.34,5.62-4.35,0,0,.19-.05,.2-.05,1.51-.13,2.98-.44,4.41-.95,1.65-1.74,3.48-3.26,5.49-4.56v.02c1.23-2.54,3.26-4.06,5.98-4.72,1.35-.18,2.64-.53,3.89-1.07,1.64-1.99,3.68-3.39,6.11-4.24,23.74-13.91,45.72-30.38,67.82-46.68,3.29-2.43,5.78-5.96,8.64-8.97,4.99-1.43,9.41-3.84,13.16-7.5,8.53-8.31,17.23-16.32,27.21-23.04,6.27-4.22,11.27-10.32,16.83-15.59,9.23-8.76,17.53-18.49,28.87-24.96,4.31-2.46,7.51-6.85,11.22-10.36,9.26-8.76,18.06-18.01,29.01-24.87,2.63-1.65,4.04-5.25,6-7.96,0,0,.17-.15,.17-.15,1.96-1.3,3.62-2.92,5.01-4.82,16.99-13.58,32.44-28.81,47.43-44.52,.35-2.98,1.81-4.97,4.9-5.51,0,0,.57,.11,.57,.12,2.97-1.59,6.7-2.51,8.77-4.88,10.58-12.1,20.74-24.58,31.05-36.92,1.6-1.9,3.23-3.76,5-5.5h0c1.75-1.68,3.45-3.4,5.17-5.11l-.03,.03c1.72-1.66,3.32-3.41,4.81-5.28,0,0,.15-.18,.15-.18,6.12-6.85,12.37-13.59,18.33-20.58,5.44-6.39,10.21-13.37,15.9-19.52,8.54-9.25,16.47-19.17,26.88-26.54,4.77-4.15,6.8-10.29,10.87-14.94l.02-.05c1.61-1.79,3.42-3.4,4.85-5.36l-.02,.02c1.96-1.47,3.7-3.17,5.1-5.18l-.02,.02c2.01-1.42,3.77-3.08,5.02-5.23h-.06c3.6-2.13,2.34-7.26,5.83-9.46l.18-.3c1.39-1.9,2.93-3.65,4.65-5.25l.04-.03c1.1-1.33,1.97-2.8,2.59-4.41,.38-.77,.77-1.53,1.15-2.3,.83-1.5,1.87-2.85,3.03-4.11-.04-.03,1.81-1.78,1.76-1.82,1.12-1.25,2.32-2.43,3.5-3.63-.05-.05,1.66-1.9,1.6-1.95,1.47-2.17,2.61-4.51,3.83-6.84,.88-1.69,1.94-3.22,3.15-4.71,1.24-1.6,2.58-3.06,3.99-4.52,.74-.77,1.5-1.46,2.25-2.22,1.61-1.55,3.38-2.81,5.32-3.92,1.09-.42,2.15-.79,3.24-1.19,18.42,7.09,4.41,17.29,.5,23.12-22.98,34.23-44.74,69.39-71.61,100.87-13.38,20.58-26.84,41.12-40.11,61.78-4.1,6.39-7.68,13.12-11.5,19.69,0,0,.03-.02,.03-.02-3.24,2.54-1.49,7.85-5.53,9.95l.09,.04c-.93,2.38-2.78,3.97-4.7,5.51h-.01c-1.67,1.53-3.17,3.2-4.47,5.05-2.28,3.57-4.17,7.48-6.9,10.66-15.4,17.97-29.09,37.24-43.37,56.06-3.57,4.71-8.15,8.65-11.73,13.35-2.51,3.29-4.11,7.26-6.12,10.93-.51,2.82-1.97,4.89-4.71,5.94l-.05,.07c-.9,2.47-2.62,4.14-5.01,5.16v.02c-1.01,2.39-2.77,4.06-5.02,5.26l.11-.03c-1.49,1.97-3.29,3.63-5.04,5.35l.04-.04c-1.64,1.6-3.15,3.31-4.5,5.17-.62,1.23-1.1,2.52-1.42,3.87-.61,2.01-1.31,3.98-2.11,5.92-.64,.84-1.27,1.67-1.91,2.51-1.44,1.54-2.92,3.03-4.45,4.47-.79,.7-1.59,1.38-2.38,2.08-5.02,5.41-10.5,10.46-13.49,17.44l.03-.04c-7.73,10.94-19.63,18.42-25.57,30.85h-.02c-2.39,1.06-4.14,2.76-5.12,5.2l.07-.07c-8.61,10.14-17.83,19.69-27.69,28.64-1.45,1.73-2.95,3.41-4.5,5.06-1.58,1.66-3.2,3.28-4.84,4.87-28.8,28.27-56.61,57.67-91.46,78.92-2.73,1.93-5.75,3.57-8.15,5.85-15.85,15.08-33.31,28.17-50.53,41.59-9.93,7.74-19.16,16.36-28.71,24.59-1.77,1.5-3.47,3.07-5.11,4.71l.06-.06c-1.68,1.83-3.54,3.47-5.5,4.99,0,0-.12-.35-.12-.35-3.1,1.26-6.61,1.96-9.23,3.88-12.26,8.95-24.27,18.24-36.37,27.4-1.31,2.12-3.2,3.63-5.24,4.98h-.02c-1.84,2.05-4.65,2.5-6.74,4.13-1.25,1.27-2.57,2.45-3.98,3.53-1.67,.65-3.15,1.59-4.48,2.79h0c-2.01,1.82-4.78,2.3-6.9,3.91-1.25,1.27-2.58,2.45-3.99,3.54-1.66,.66-3.21,1.51-4.64,2.58h0c-2.52,3.23-7.52,2.07-9.85,5.62l-.03,.02c-5.22,3.26-10.89,5.83-15.39,10.17-28.17,17.11-57.66,31.72-87.46,45.71-2.48,3.33-7.55,2.01-9.93,5.51h.01c-2.94,2.63-7.74,1.63-10.18,5.23h0c-3.03,2.48-7.76,1.55-10.28,5.09h0c-3.01,2.53-7.74,1.6-10.28,5.09h.03c-3.32,1.99-7.12,3.14-10.11,5.72-3.53,1.53-7.31,2.54-10.3,5.15-3.38,1.9-7.63,1.31-10.8,3.79l-.08,.06c-2.56,3.56-7.21,2.57-10.38,4.79-1.51,.3-3.02,.63-4.52,.98-2.96,2.76-7.62,1.76-10.48,4.74h0c-2.73,3.11-7.42,2.23-10.3,5.03h0c-6.78,3.61-14.37,5.47-20.87,9.67-1.48,.34-2.97,.69-4.44,1.07-3.05,2.76-7.6,1.8-10.73,4.36-29.31,11.54-59.36,20.95-89.31,30.65-6.5,2.1-12.97,4.19-18.35,8.62-.33,.91-.98,1.41-1.95,1.5-17.65,3.52-35.09,7.94-52.52,12.35-11.02,3.23-22.56,4.92-32.72,10.76-11.23,1.38-22.16,4.48-33.35,6.07-5.92,2.14-12.34,2.17-18.27,4.3-3.81,.56-7.65,.46-11.49,.54-8.96,2.45-18.36,2.35-27.31,4.87-19.32-1.13-37.92,11.04-57.58,3.03-4.22,.37-8.61,.11-12.64,1.2-20.63,5.61-41.46,8.83-62.95,8.4-25.57-.51-51.16-.17-76.74-.18-16.19,0-32.23-.31-48.19-4.21-23.06-5.64-47.18-6.35-69.74-14.52-21.45-2.85-40.42-13-60.17-20.75-22.29-8.74-42.21-22.1-62.79-34.09-8.75-5.1-16.22-12.35-24.58-18.17-5.56-3.87-11.67-6.95-17.54-10.38-.97-.01-1.94-.03-2.91-.04-1.94-.17-3.8-.64-5.6-1.36-1.73-.78-3.44-1.62-5.12-2.49-2.63-.92-5.41-1.21-8.09-1.82-1.71-.38-3.4-.91-5.06-1.46-2.46-.62-4.95-.81-7.48-.25-1.65,.56-3.31,1-4.98,1.44-3.46,.89-7.02,1.44-10.07,3.54-1.66,1.04-3.37,1.88-5.16,2.64-5.17,2.02-7.75,6.61-10.83,10.75-46.43,48.13-95.53,93.4-145.87,137.33-14.09,13.54-28.26,27-42.26,40.63-15.85,15.44-33.17,29.13-50.46,42.87-12.63,10.04-24.88,20.57-37.59,30.5-8.02,6.27-16.27,12.35-24.95,17.63-23.96,14.58-47.74,29.39-69.99,46.53-3.35,2.58-7.18,4.53-10.82,6.71-22.6,13.52-45.32,26.86-67.77,40.62-7.29,4.46-14.43,8.97-22.73,11.29-6.42-.91-11.99,1.98-16.7,5.35-16.79,12.03-35.89,19.63-53.97,29.15-21.12,11.12-43.38,20.06-63.34,33.4-2.08,1.39-4.69,1.96-7.01,3-7.76,3.5-16.15,6.08-23.13,10.75-17.74,11.86-37.9,19.59-54.87,32.63-4.7,3.61-8.96,7.89-12.93,12.3-5.78,6.42-5.29,17.05,.5,23.44,7.21,7.98,16.23,12.5,26.85,13.17,9.36,.59,18.77,.42,28.16,.42,78.54,.05,157.08,.08,235.62,.08,595.02,0,1190.04,0,1785.06,.01,40.98,0,81.95,.17,122.93,.18,6.82,0,13.64-.39,20.46-.6,0,0,.05,.04,.05,.04,9.04,4.14,18.37,7.92,22.63,18.05,1.68,11.03-2.69,22.6,2.97,33.28,.24,1.65,.27,3.31,.07,4.97,3.65,30.84,3.78,61.69-.05,92.53l.02-.02c-5.17,9.65-1.15,22.39-10.34,30.69l-.05,.05c-2.81,2.89-7.57,1.8-10.21,5.03,0,0-.11,.05-.12,.05-32.43-.21-64.86-.6-97.29-.61-408.03-.06-816.06-.06-1224.1-.08-8.21-3.54-16.86-1.9-25.29-1.9-355.82-.09-711.63-.09-1067.45,.01-8.4,0-17.09-1.91-25.19,2.18-1.59,.02-3.18,.14-4.76,.35-2.67,3.12-7.57,1.88-10.13,5.21l-.07,.04c-1.78,1.59-3.48,3.27-5.08,5.05l-.06,.06c-1.76,1.56-3.38,3.26-4.88,5.07-.21,1.6-.37,3.21-.49,4.83-2.93,2.9-1.8,7.63-4.76,10.52-.19,3.27-.37,6.55-.56,9.82-6.05,15.06,1.78,31.52-4.68,46.53-.11,56.26-.22,112.51-.34,168.77-3.94,51.5-3.7,103-.16,154.51-.03,32.13-.05,64.26-.08,96.39-3.82,4.64-.22,11.35-4.41,15.89-.2,1.57-.35,3.15-.44,4.74-1.49,1.96-3.11,3.8-4.94,5.44h0c-1.66,1.75-3.35,3.48-5.16,5.09h0c-1.63,1.87-3.35,3.62-5.74,4.52-4.89,.3-9.77,.6-14.66,.9-27.32,3.78-54.63,3.73-81.95,.02-8.38-.24-16.76-.49-25.13-.73-3.18-2.46-7.78-1.5-10.76-4.45-1.56-.21-3.13-.36-4.71-.44-1.91-1.48-3.85-2.94-5.56-4.66-1.47-.19-2.93-.47-4.36-.83-4.48-11.22-6.36-22.74-6.12-34.94,.51-26.45,.27-52.92,.06-79.38-.09-11.88,1.37-23.89-2.58-35.57-.75-2.23-.49-5.2,.3-7.49,2.84-8.31,2.3-16.85,2.31-25.36,.09-92.19,.14-184.37,.2-276.56,0-2.56-.24-5.14,.01-7.68,1.44-14.6-5.69-26.37-12.67-38.12-1.24-2.1-3.48-3.73-5.54-5.2-4.85-3.47-9.73-6.92-14.82-10-13.33-8.04-27.32-13.99-43.43-12.43-65.21-4.83-130.53-.77-195.77-2.27-10.03-.23-20.37,2.4-30.09-2.28-5.01-.14-10.02-.28-15.03-.42-3.01-2.77-7.77-1.66-10.61-4.8-1.78-1.71-3.56-3.42-5.34-5.13-1.58-1.77-3.19-3.5-4.85-5.19l.04,.03c-4.55-4.4-.86-11.24-4.68-15.85-.23-6.66-.46-13.32-.69-19.97-1.76-1.68-3.21-3.62-4.7-5.53-2.17-4.57-5.53-7.96-10.06-10.19-2-1.4-3.94-2.86-5.59-4.67-6.68-.2-13.36-.4-20.04-.6-8.85-3.37-17.71-3.29-26.57-.04-11.8,.23-23.61,.45-35.41,.68-6.14,5.14-14.67-.38-20.83,4.67-3.3,.17-6.6,.33-9.9,.5-1.7,1.73-3.55,3.25-5.71,4.39-4.92,.23-9.83,.47-14.75,.7-1.7-.02-3.43,.12-5.1-.09-9.67-1.24-18.02,4.77-27.48,4.88-8.47,.09-16.93,.01-25.22,2.92-4.69,1.64-10,1.73-15.06,2.08-5.09,.35-10.22,.37-15.32,.17-23.09-.91-45.48,1.98-67.91,8.21-18.67,5.18-38.16,7.6-57.19,11.76-9.85,2.16-20.24,.1-30.22,3.83-8.66,3.24-18.53,1.88-27.34,5.72-2.97,1.3-6.69,1.11-10.08,1.19-8.53,.19-17.06,.19-25.05,3.82-17.89,1.19-35.22,5.1-52.24,10.6-15.41-.28-29.84,6.5-45.26,6.19-4.45-.09-8.39-.98-11.14-4.82,1.56-.08,3.1-.18,4.65-.28,4.37-4.71,11.26-.51,15.83-4.47,4.98-.22,9.95-.43,14.93-.65,4.39-4.45,11.25-.54,15.73-4.66Z"/>
    <path class="cls-2" d="M2338.17,1810.2c136.63,0,273.27,0,409.9,0,9.38,0,18.69,.09,27.97,2.44,5.68,1.44,11.84,1.32,17.79,1.33,46.11,.1,92.23,.07,138.34,.04,4.26,0,8.75,.52,12.75-.57,15.96-4.36,32.21-3.1,48.38-3.11,343.29-.26,686.58-.42,1029.88-.68,288.64-.21,577.28-.51,865.92-.81,11.07-.01,22.11,.32,33.14-2.1,6.57-1.44,13.58-1.14,20.39-1.15,124.68-.1,249.36-.02,374.03-.32,14.69-.04,28.82,2.74,43.05,5.29,5.36,.96,8.94,5.08,10.01,10.5,.82,4.15,1.05,8.48,1.06,12.72,.13,36.72,.18,73.44,.16,110.16,0,4.25-.26,8.56-.98,12.74-.76,4.39-3.36,8.08-7.5,9.75-7.9,3.19-15.94,6.13-24.68,6.1-4.27-.01-8.54,.07-12.81,.06-78.56-.09-157.13-.19-235.69-.3-10.24-.01-20.39-.04-30.52-2.57-5.68-1.42-11.88-.96-17.84-.97-122.12-.16-244.23-.32-366.35-.38-157.98-.07-315.96-.11-473.95-.06-380.01,.12-760.02,.29-1140.04,.45-9.38,0-18.68,0-28.01,2.06-6.57,1.45-13.56,1.39-20.36,1.4-76.86,.1-153.71,.1-230.57,.09-5.97,0-12.19,.7-17.87-.68-15.2-3.68-30.54-2.85-45.87-2.85-182.75-.04-365.5-.04-548.24,0-11.92,0-23.85-.68-35.65,2.48-4.84,1.29-10.17,.96-15.28,.97-60.63,.15-121.26,.13-181.89,.39-9.55,.04-18.65-1.47-27.65-4.39-8.62-2.8-12.5-7.41-12.26-17.06,.28-11.05,.64-22.23,2.52-33.08,1.47-8.5,2.05-16.9,2.05-25.43,0-21.35-.23-42.7-.06-64.05,.13-16.88,2.74-19.43,19.14-19.58,10.25-.1,20.49,.24,30.74,.24,128.95,.02,257.89,.01,386.84,.01,0,.3,0,.6,0,.9Z"/>
    <path class="cls-23" d="M4525.33,830.73c7.49-6.64,15.14-13.12,22.43-19.98,5.49-5.16,10.55-10.63,14.42-17.36,4.63-8.04,11.15-14.7,19.57-19.13,7.9-4.88,14.2-12.61,24.28-13.64,4.75-.52,9.53,.49,14.29-.29,32.07-10,48.49,12.2,66.09,32.06,8.16,11.14,5.65,22.06-.68,32.9-5.47,3.39-9.61,.49-13.65-2.87-1.12-1.24-2.24-2.55-2.99-4.05-21.6-43-21.24-42.39-62.81-18.29-17.44,10.1-37.27,16.07-52.02,30.8-10.39,5.84-18.24,18.87-33.21,11.85-4.75-6.2,.38-8.86,4.28-11.98Z"/>
    <path class="cls-42" d="M4607.4,764.04c-8.53,3.46-15.86,9.9-25.64,10.21,3.14-4.83,6.28-9.65,9.42-14.48,12.76-6.99,13.56-20.09,15.79-32.11,1.19-6.44,.38-13.25,.48-19.9,1.47-2.01,3.61-3.84,4.24-6.09,.9-3.19,.57-6.71,.96-10.06,1.03-8.8,4.72-15.92,12.38-21.01,6.33-4.2,12.02-9.43,20.05-10.21,11.04-6.81,19.11-1.83,26.47,6.52,8.56,9.7,14.06,21.02,17.4,33.35,2.42,8.91,3.86,18.09,6.16,27.03,.58,2.25,2.79,4.07,4.26,6.09,0,17.08,0,34.16-.01,51.24-8.41,1.45-10.6-5.3-13.97-10.52-5.8-13.54-8.53-27.55-6.36-42.32,1.7-11.55-1.85-21.66-7.92-31.42-6.99-11.23-17.52-17.52-29.69-15.93-12.03,1.57-13.28,14.49-15.66,24.05-4.73,19.02,2.43,41.83-18.36,55.56Z"/>
    <path class="cls-4" d="M4525.33,830.73c-1.7,3.41-3.41,6.81-5.11,10.22-.49,16.23-12.57,22.54-24.64,28.89-16.38,4.33-29.01,13.58-37.22,28.59-1.99,3.05-4.19,5.91-6.79,8.48-1.98,1.64-4.26,2.38-6.82,2.25-2.29-1.16-3.99-2.89-5.12-5.19-7.04-23.09,7.57-37.41,21.11-52.16,3.22-5.04,3.32-11.73,8.32-15.84,3.33,.11,6.65,.21,9.98,.32,1.74,1.34,3.45,2.71,5.16,4.1,5.24-.01,10.48-.03,15.72-.04,1.7-1.36,3.41-2.71,5.12-4.06,3.02-.82,6.03-1.63,9.05-2.46,3.76-1.02,7.51-2.05,11.26-3.08Z"/>
    <path class="cls-35" d="M4463.87,851.23c-.18,5.29-2.15,9.77-5.95,13.47-17.09,16.63-14.15,15.63-14.57,37.81-.03,1.68-.04,3.36-.06,5.05,2.3,16.55,4.06,33.07-2.14,49.25-6.12,6.68-9.54,1.58-13.09-3-.03-1.71-.06-3.43-.09-5.14-3.99-13.71-3.95-27.42-.01-41.13,0,0,0,0,0,0,3.72-2.56,5.11-6.22,5.09-10.6-.01-3.3,.07-6.59,.11-9.89,4.81-4.08,.54-11.18,5.09-15.34v-.02c3.95-4.77,6.42-10.52,10.24-15.38,3.42-3.41,6.83-6.83,10.25-10.24,4.58-1.14,7.17-.3,5.14,5.15Z"/>
    <path class="cls-6" d="M4463.87,851.23c-1.71-1.72-3.42-3.44-5.14-5.15,.23-6.64,3.57-10.11,10.32-10.12-.22,5.6,.77,11.62-5.18,15.27Z"/>
    <path class="cls-6" d="M4448.48,856.31c-.01,7.38-3.43,12.5-10.22,15.38-.02-7.4,3.43-12.5,10.22-15.38Z"/>
    <path class="cls-6" d="M4438.25,871.71c-.18,5.62,.87,11.65-5.1,15.34,.13-5.64-.94-11.67,5.1-15.34Z"/>
    <path class="cls-6" d="M4505.02,836.27c-1.71,1.36-3.41,2.72-5.12,4.07,1.71-1.36,3.41-2.71,5.12-4.07Z"/>
    <path class="cls-6" d="M4484.18,840.37c-1.72-1.37-3.44-2.74-5.16-4.1,1.72,1.37,3.44,2.73,5.16,4.1Z"/>
    <path class="cls-26" d="M4673.93,820.44c3.39,1.7,6.78,3.39,10.17,5.09,9.15,8.23,7.48,21.86,15.36,30.73,.05,1.76,.1,3.53,.15,5.29,3.06,2.68,1.88,7.48,5.05,10.11l.04,.05c1.65,1.71,3.31,3.4,4.99,5.07,2.05,4.93,5.54,8.41,10.47,10.46,1.64,1.64,3.3,3.27,4.99,4.86,1.74,.05,3.47,.11,5.21,.16,1.63,1.68,3.3,3.32,5.01,4.92,5.14,.11,10.27,.23,15.41,.34,1.71,1.67,3.33,3.42,4.85,5.28,2.3,4.74,3.3,9.35-1.31,13.43-6.42,4.95-13.87,7.01-21.79,7.84-12.55,.83-24.84,.15-36.2-6.12-31.52-25.35-31.24-60.56-29.77-96.15,2.06-2.59,4.52-3.04,7.37-1.36Z"/>
    <path class="cls-24" d="M4755.89,912.68c-1.67-3.41-3.34-6.82-5.01-10.23,8.51-3.94,17.03-3.76,25.57-.1,1.71,.05,3.42,.1,5.13,.15,2.64,3.17,7.44,2.05,10.14,5.1l.03,.03c9.78,8.09,5.05,21.07,10.33,30.68,6.17,10.96,6.06,22.49,3.01,34.25-.63,2.43-2.16,4.78-2.23,7.19-.27,10.01-5.11,17.47-12.16,24.02-1.78,1.65-2.73,4.19-4.06,6.33-3.7,2.99-7.46,2.79-11.28,.27-5.63-10.59-1.22-21.54-.63-32.2,1.34-24.21-.85-47.01-18.84-65.47Z"/>
    <path class="cls-5" d="M4699.46,856.26c-3.25-2.49-6.69-4.76-9.69-7.52-3.8-3.5-5.56-8.07-5.52-13.3,.02-3.3-.09-6.6-.15-9.9,.63-6.37,.79-12.83,2.05-19.08,.88-4.38-.73-7.84-1.99-11.59-5.07-5.99-6.07-12.42-2.12-19.39,2.09-2.49,4.52-2.87,7.28-1.16,3.35,3.44,6.69,6.88,10.03,10.33,.03,23.87,.06,47.75,.1,71.62Z"/>
    <path class="cls-34" d="M4776.39,1009.99c3.42,.03,6.84,.06,10.26,.1,0,1.74,.01,3.48,.02,5.21-2.32,9.98-6.27,18.98-15.13,25.05-7.13,4.68-14.43,6.52-22.18,1.38-5.77-7.91-9.16-16.34-5.53-26.23,6.98-7.44,16.58-6.66,25.48-8.13,2.68-.02,5.04,.86,7.07,2.62Z"/>
    <path class="cls-27" d="M4771.25,1035.66c4.83-7.02,9-14.54,15.42-20.36,1.95,4.71,5.25,8.08,9.96,10.04-6.83,9.43-13.41,19.06-20.61,28.2-2.48,3.15-6.5,5.09-9.81,7.58-7.74-10.35,3.97-16.85,5.05-25.46Z"/>
    <path class="cls-5" d="M4802.08,938.3c-1.16-1.21-2.98-2.24-3.38-3.67-2.49-8.95-4.67-17.99-6.95-27.01,6.77,3.05,10.14,8.3,10.21,15.7,.04,4.99,.08,9.98,.13,14.98Z"/>
    <path class="cls-5" d="M4776.45,902.35c-8.52,.03-17.05,.07-25.57,.1-.05-1.65-.09-3.29-.11-4.94,4.96-.03,9.92-.07,14.88-.09,4.35-.02,8.08,1.35,10.79,4.93Z"/>
    <path class="cls-5" d="M4791.72,907.59c-4.17-.13-7.96-1.02-10.14-5.1,4.21,.06,7.99,.96,10.14,5.1Z"/>
    <path class="cls-5" d="M4704.67,871.66c-4.09-2.17-5-5.93-5.05-10.11,4.11,2.16,4.94,5.96,5.05,10.11Z"/>
    <path class="cls-5" d="M4709.69,876.78c-1.66-1.69-3.33-3.38-4.99-5.07,1.66,1.69,3.33,3.38,4.99,5.07Z"/>
    <path class="cls-5" d="M4725.15,892.1c-1.66-1.62-3.33-3.24-4.99-4.86,1.66,1.62,3.33,3.24,4.99,4.86Z"/>
    <path class="cls-5" d="M4735.37,897.18c-1.67-1.64-3.34-3.28-5.01-4.92,1.67,1.64,3.34,3.28,5.01,4.92Z"/>
    <path class="cls-30" d="M4771.25,1035.66c2.11,4.74,4.01,9.32-.74,13.86-3.2,3.05-4.2,7.24-4.31,11.6-4.96,2.33-9.62,5.51-15.44,5.44-4.81-2.09-8.3-5.48-10.17-10.44-3-2.95-3.39-6.44-2.16-10.28,3.03-4.36,6.47-7.77,12.4-5.1,7.44,.87,14.09-1.5,20.42-5.08Z"/>
    <path class="cls-2" d="M5712.48,2058.86c-14.77,7.35-30.44,10.79-46.91,10.56-17.04-.23-34.08,.4-51.05-2.28-7.53-1.19-15.31-.99-22.98-1.07-13.04-.15-25.14-3.94-37.16-8.54-9.6-3.67-15.64-10.49-18.01-20.09-2.85-11.55-5.93-23.12-5.93-35.2,0-11.09-.33-22.17-.36-33.26-.52-220.06-1.14-440.13-1.44-660.19-.14-102.36,.37-204.71,.53-307.07,.04-23.03-.16-46.06-.13-69.09,0-5.96,.25-11.93,.81-17.86,.67-7.06,7.97-12.32,14.7-10.74,6.62,1.56,13.17,3.39,19.74,5.11,15.33,9.44,31.71,16.04,49.07,21.18,30.26,8.96,60.02,19.58,89.99,29.49,8.19,2.71,12.28,9.08,14.02,16.89,1.1,4.93,1.24,10.15,1.25,15.25,.34,134.06,.71,268.13,.86,402.19,.22,202.38,.26,404.76,.38,607.14,0,9.39-.23,18.79,.04,28.18,.31,10.56-2.28,20.27-7.42,29.4Z"/>
    <path class="cls-2" d="M5314.58,533.37c5.65,2.48,11.35,4.9,15.48,9.79,1.89,2.74,3.18,6.48,5.78,8.04,7.28,4.38,14.78,8.82,22.78,11.46,11.43,3.78,22,9.17,32.71,14.4,3.83,1.87,7.52,4.2,11.54,5.48,14.59,4.65,28.45,10.86,42.3,17.37,14.59,6.86,29.84,12.35,45.34,17.13,10.54,3.25,20.54,8.19,30.89,12.09,39.02,14.7,79.03,26.16,119.45,36.29,19.84,.99,37.58,10.65,56.91,13.77,5.01,.81,9.97,1.99,14.96,2.95,18.32,3.5,36.93,5.12,55.1,9.74,12.29,3.12,24.62,6.17,37.64,6.39,9.18,.16,18.53,2.82,27.37,5.69,9.13,2.96,18.27,3.69,27.67,3.9,12.74,.28,25.52-.47,37.99,3.83,4.66,1.61,10.12,1.01,15.23,1.14,10.23,.25,20.47,.26,30.7,.48,5.11,.11,10.58-.62,15.25,.95,13.34,4.47,26.97,3.39,40.56,3.5,14.5,.12,29,.06,43.5,0,11.06-.04,22.08,.43,32.92-3.19,4.69-1.57,10.11-1.16,15.21-1.26,13.64-.26,27.29-.28,40.94-.46,10.21-.14,20.49,.54,30.32-3.39,2.31-.92,5.06-1.31,7.54-1.11,18.96,1.56,37.22-3.63,55.63-6.33,13.43-1.97,26.8-4.24,40.34-5.49,2.25-.21,4.3-2.52,6.44-3.86,1.55-.04,3.09-.15,4.63-.34,4.43-4.48,11.39-.57,15.91-4.78,1.53,.03,3.06-.06,4.58-.27,4.99-.08,9.98-.16,14.97-.23,4.33-.06,8.12-1.46,11.25-4.52,7.61,.48,15.31,.4,22.81,1.57,10.66,1.66,18.72,7.64,23.57,17.42,1.48,2.99,3.16,6.24,3.36,9.46,.66,11,1.47,21.99-1.71,32.92-4.25,14.62-6.18,30.04-15.71,42.7-4.81,16.53-13.36,31.14-23.07,45.18-1.93,2.78-3.3,5.95-4.92,8.94,0,0,.1,.02,.1,.02-1.69,1.78-3.25,3.69-5.16,5.26l.08-.07c-1.62,1.85-3.35,3.58-5.2,5.2l.08-.07c-1.62,1.85-3.36,3.57-5.18,5.21l.07-.07c-1.63,1.82-3.38,3.53-5.14,5.22l.05-.05c-1.64,1.82-3.54,3.38-5.21,5.17-2.15,1.38-4.33,2.7-6.43,4.15-28.36,19.64-36.22,23.25-68.98,31.56-.82,.21-1.74,.11-2.52,.39-15.16,5.44-30.34,10.76-46.61,11.99-1.48,.11-2.85,1.74-4.28,2.65-16.96,.94-34.04-.57-50.81,3.92-5.61,1.5-11.86,.81-17.81,.84-17.89,.09-35.78,.13-53.67,.02-11.89-.07-23.82,.57-35.49-3.04-3.96-1.22-8.44-.87-12.69-1.01-15.29-.49-30.62,.15-45.63-4.21-4.78-1.39-10.15-.77-15.25-1.02-13.58-.66-27.26-.1-40.51-4.28-3.16-1-6.75-.75-10.15-.91-9.35-.45-18.72-.39-27.78-3.52-3.15-1.09-6.73-1.53-10.07-1.35-15.56,.85-30.53-3.22-45.33-6.56-14.32-3.23-28.58-4.01-43-4.76-24.22-11.06-42.97-16.6-67.7-20.29-4.16-.62-8.28-1.79-12.29-3.1-17.72-5.81-35.71-10.83-52.78-18.54-6.16-2.78-12.65-4.93-19.13-6.9-15.46-4.68-30.55-10.28-44.95-17.62-6.15-3.14-12.42-5.53-19.52-4.27-13.04-2.56-23.75-10.25-35.32-16.06-1.91-4-4.94-6.82-9.01-8.5-17.24-7.12-32.8-17.43-49.19-26.14-5.22-2.78-10.11-6.17-15.3-9.01-17.08-9.35-34.77-17.51-51.25-28.03-7.04-4.49-14.44-8.98-23.04-10.41-2.52-.84-4.64-2.25-6.2-4.44-1.25-.39-2.52-.72-3.79-.98-4.03-5.65-10.29-8.28-15.85-11.91-15.32-9.99-30.73-19.82-46.94-28.32-5.17-3.23-10.35-6.47-15.52-9.7-5.45-3.89-10.89-7.78-16.34-11.66-11.57-8.23-23.15-16.45-34.72-24.67-1.61-1.67-3.32-3.23-5.11-4.7-1.13-.62-2.32-1.1-3.56-1.43-11.21-11.58-22.02-23.56-35.8-32.38-4.23-2.71-7.54-6.82-11.39-10.15-5.12-4.44-10.35-8.75-15.53-13.12-2.25-1.17-3.99-2.87-5.21-5.1,0,0-.03-.09-.02-.09-3.27-3.88-6.27-8-9.84-11.58-32.38-32.5-64.63-65.12-97.38-97.25-23.67-23.22-46.05-47.45-65.02-74.71-12.66-12.58-21.56-28.31-34.36-40.86-5.98-5.87-10.66-13.15-15.44-20.13-10.54-15.4-23.69-28.71-34.49-43.96-5.39-7.62-10.93-15.04-15.41-23.25-1.17-2.14-3.35-3.72-5.07-5.55,0,0-.01-.02-.01-.02-1.62-1.89-3.43-3.6-4.97-5.55-7.01-9.57-14.1-19.09-21-28.73-4.45-6.21-9.38-12.24-12.77-19.01-7.28-14.56-17.62-26.89-27.22-39.79-.33-1.45-.72-2.88-1.18-4.29-1.39-1.87-2.88-3.64-4.48-5.33-7.8-11.35-15.04-23.03-20.55-35.7-3.94-4.76-6.22-10.65-10.4-15.24l-.29,.14c-.91-1.51-1.7-3.08-2.39-4.71-.97-1.48-2.01-2.89-3.16-4.24-.52-.71-1.03-1.43-1.55-2.15-.64-1.66-1.54-3.16-2.73-4.49l-.26,.15c-1-1.46-1.85-3-2.53-4.64-.97-1.48-2.02-2.89-3.17-4.24-.52-.71-1.04-1.43-1.56-2.15-.64-1.66-1.57-3.15-2.78-4.46l-.27,.14c-1.08-1.64-1.83-3.42-2.19-5.36-.36-1.95-1.17-3.67-2.52-5.13h-.02c-3.05-2.72-2.08-7.5-5.21-10.17h0c-1.63-1.77-3.39-3.4-4.93-5.24l-.07-.07c-1.81-1.56-3.41-3.31-4.79-5.26-.15-1.6-.32-3.19-.49-4.78-1.74-1.66-3.3-3.5-4.95-5.24v-.03c-3.12-2.69-2.16-7.44-5.16-10.19v-.04c-3.77-6.04-3.87-10.27,4.98-10.06v-.02c1.92,1.49,3.64,3.16,4.87,5.28,.15,1.61,.29,3.22,.42,4.83,1.54,1.84,3.21,3.55,5.05,5.1l.04,.04c1.56,1.84,3.29,3.51,5.04,5.16h0c1.64,1.77,3.37,3.45,5.05,5.19h.01c1.71,1.68,3.45,3.34,4.98,5.18l.03,.08c3.19,2.58,2.14,7.43,5.34,10.01v.02c1.6,1.81,3.33,3.49,5.07,5.16h0c1.69,1.69,3.32,3.43,4.9,5.23l.05,.12c3.23,2.53,2.14,7.4,5.39,9.93v.04c1.56,1.84,3.33,3.48,4.94,5.25l.03,.03c1.75,1.62,3.4,3.32,4.94,5.14l.15,.15c1.84,1.5,3.43,3.23,4.76,5.2,.2,1.57,.4,3.15,.59,4.72,1.68,1.71,3.18,3.59,5.05,5.11l.03,.03c1.57,1.83,3.31,3.49,5.01,5.2h0c1.75,1.67,3.32,3.52,5.01,5.24,11.22,13.77,22.46,27.52,33.64,41.32,6.39,7.89,12.3,16.21,19.11,23.7,6.3,6.93,12.39,13.87,17.4,21.85,2.66,4.24,6.8,7.56,10.37,11.2,16.04,16.36,32.09,32.68,46.31,50.72,4.7,5.96,9.93,12.1,16.21,16.12,14.54,9.31,25.64,22.2,37.98,33.8,6.8,6.39,12.99,13.33,21.33,18.03,4.34,2.44,7.86,6.43,11.52,9.96,7.96,7.67,15.74,15.52,23.65,23.24,6.67,6.51,12.94,13.38,21.31,18.05,4.34,2.42,8.02,6.29,11.46,10.01,7.62,8.24,16.6,14.48,26.54,19.47,12.24,9.08,23.6,19.25,37.35,26.41,8.93,4.65,17.06,11.19,24.7,17.86,17.44,15.23,38.15,25.39,57.36,37.82,24.94,16.14,50.29,31.65,75.59,47.24,6.42,3.96,12.51,9.11,20.86,8.47Z"/>
    <path class="cls-15" d="M4735.35,1056.38c.22,14.15-6.41,25.36-15.27,35.62-9.15-10.05-4.79-22.37-4.83-33.57-.06-19.8-4.26-37.97-15.34-54.43-2.63-4.51-1.72-10.37-5.49-14.46,0,0,0,0,0,0-.25-4.35-1.23-8.46-4.37-11.7-5.94-6.13-11.76-12.39-17.96-18.24-6.17-5.83-9.64-13.95-17.21-18.72-3.32-2.09-5.52-6.37-7.51-10.04-4.89-8.99-9.47-18.16-13.96-27.36-2.69-5.52-6.34-10.17-11.45-13.48-5.4-3.5-11.32-3.74-17.04-.9-2.16,1.08-4.12,3.08-5.46,5.12-1.36,2.07-1.89,4.7-2.72,7.1-2.52,7.24-4.33,14.82-7.67,21.64-4.99,10.17-7.78,20.43-7.57,31.89,.22,12.17-4.8,23.21-10.31,33.82-1.06,2.05-3.44,3.8-5.61,4.77-2.24,1-4.97,1.06-7.51,1.21-14.84,.87-25.35,9.09-34.07,20.17-1.52,1.93-2.66,4.44-3.17,6.86-2.95,14.11-7.66,27.99-5.81,42.78,.31,2.51-.08,5.11-.22,7.66-.35,6.22-4.26,8.81-9.89,9.62-1.02-3.74-2.1-7.48-3.06-11.23-.77-3.01-1.42-6.05-2.12-9.07-4.27-37.12,9.78-65.06,41.95-84.01,6.35-3.74,14.48-4.94,18.21-12.49,1-2.23,2.1-4.4,3.17-6.59,3.26-28.97,11.55-56.38,24.94-82.27,6.76-13.32,14.67-26.04,32.12-24.02,16.24,1.88,20.96,15.87,25.22,28.78,10.59,32.12,31.98,57.45,51.2,84.3,19.62,27.41,41.69,54.12,38.81,91.25Z"/>
    <path class="cls-18" d="M4750.83,1040.74c-3.38,1.66-6.75,3.31-10.13,4.97-19-49.71-51.64-91.36-80.67-135.05-9.98-15.01-12.01-31.43-15.84-47.93-2.34-10.08,.07-24.83-14.36-26.9-12.63-1.81-23.2,6.53-29.71,16.81-18.7,29.55-36.35,59.75-37.68,96.21-.75,7.81-2.64,15.39-10.42,18.9-29.86,13.48-46.07,37.85-55.36,68-1.24,4.04-3.53,7.6-7.12,10.11-9.91,3.85-9.98,3.79-15.4-5.24-1.74-1.63-3.44-3.31-5.09-5.02l.06-.03c-1.7-9.64,8.35-14.76,8.98-23.53,1.08-2.32,2.08-4.77,3.79-6.59,38.72-41.15,60.73-92.67,87.64-141.11,.73-2.12,1.65-4.17,2.64-6.18,1.4-2.97,2.95-5.88,4.43-8.83,.87-2.03,1.9-3.99,2.94-5.94,1.53-3.07,3.21-6.04,5.05-8.95,8.42-12.66,20.44-20.44,34.48-25.51,29.57-6.72,35.76-2.39,41.13,26.92,3.49,19.04,4.11,38.72,12.15,56.76,1.38,1.98,2.77,3.96,4.26,5.86,1.46,1.88,2.79,3.86,4.09,5.84,1.43,1.86,2.65,3.87,3.76,5.93,10.15,18,20.14,36.11,35.4,50.56,12.17,16.45,27.65,31.34,25.95,54.39,.67,3.09,.85,6.41,2.13,9.23,2.38,5.26,2.95,10.69,2.9,16.31Z"/>
    <path class="cls-11" d="M4489.55,1045.86c2.72-23.12,10.56-43.94,27.37-60.71,4.77-4.76,9.6-9.45,14.33-14.25,4.32-4.38,9.44-6.78,15.63-7.23,7.78-.56,9.12-6.16,9.27-12.52,.02-.84,.07-1.68,.11-2.52,11.94-.56,8.96,8.71,10.07,15.29-.37,7.47-3.47,12.99-11.13,14.96-9.13,2.36-17.06,6.6-24.41,12.69-15.99,13.24-22.86,30.98-25.65,50.57-.97,6.82-2.4,13.18-5.4,19.28-6.68-3.04-10.32-8.07-10.18-15.56Z"/>
    <path class="cls-29" d="M4479.26,1015.17c3.52,9.76,3.43,9.82-5.03,15.43-1.33,.88-2.59,1.89-3.78,2.96-.58,.53-.91,1.33-1.34,2.01-3.45-.22-6.92-.85-9.05-3.76-4-5.44-7.66-11.13-11.46-16.71-3.5-9.17-7.56-18.2-7.65-28.3,9.12-9.02,15.11,1.13,22.37,3.61,3.02,1.94,5.76,4.23,8.34,6.73,4.26,5.26,10.84,9.59,7.6,18.02Z"/>
    <path class="cls-28" d="M4443.45,984.44c.4,2.38,.24,5.05,1.29,7.08,3.89,7.5,3.89,15.51,3.85,23.58-6.27-3.93-7.99-10.88-10.92-16.91-6.79-13.97-11.28-28.54-9.62-44.39,3.37,1.67,6.74,3.33,10.11,5,9.11,7.03,12.5,15.24,5.28,25.64Z"/>
    <path class="cls-7" d="M4427.95,907.53c0,13.71,.01,27.42,.01,41.13-1.38-1.97-3.86-3.9-3.95-5.93-.42-9.75-.43-19.53-.02-29.28,.09-2.03,2.57-3.95,3.95-5.92Z"/>
    <path class="cls-29" d="M4469.05,1035.6c1.7,1.68,3.4,3.35,5.09,5.03-1.7-1.68-3.4-3.35-5.09-5.03Z"/>
    <path class="cls-9" d="M4668.81,1046.74c0,1.71,0,3.41,0,5.12,.09,19.72-1.43,17.95-18.26,20-1.68,.2-3.38,.58-4.97,1.15-6.45,2.31-11.9-.54-16.67-4.01-6.89-5.02-13.13-10.87-16.85-18.88-2.51-5.41-5.22-10.73-7.73-16.14-1.38-2.98-.3-7.42,2.15-9.3,2.01-1.55,4.24-2.84,6.15-4.5,9.73-8.46,20.04-12.28,32.41-5.32,2.88,1.62,6.48,2.05,9.79,2.85,13.36,3.23,13.67,3.53,13.95,16.25,.09,4.26,.02,8.53,.02,12.79h.02Z"/>
    <path class="cls-16" d="M4694.42,989.55c4.13,2.18,5.06,5.99,5.19,10.21-.86,.66-1.71,1.31-2.57,1.97-.86-.65-1.72-1.3-2.58-1.95,0,0,0,0,0,0-.01-3.41-.02-6.81-.04-10.22Z"/>
    <path class="cls-16" d="M4699.61,999.75c4.06,5.25,8.18,10.46,12.15,15.77,.98,1.31,2.02,2.92,2.15,4.46,1,11.64,7.02,22.23,6.29,34.35-.75,12.51-.14,25.11-.13,37.66-1.79,5.02-3.58,10.04-5.38,15.06-2.35-.77-5.2-.95-6.94-2.43-2.62-2.24-3.66-6.04-2.53-9.19,4.65-12.87,4.23-26.17,4.74-39.53,.49-12.85-2.17-24.85-6.35-36.72-1.11-3.14-2.72-6.11-4.09-9.15-2.85-3.42-3.09-6.84,.01-10.25l.07-.05Z"/>
    <path class="cls-17" d="M4699.54,999.8c0,3.42,0,6.83-.01,10.25-4.11-2.23-5.02-6.05-5.07-10.28,1.7,0,3.39,.01,5.09,.03Z"/>
    <path class="cls-12" d="M4566.32,963.92c-2.86-1.76-4.5-4.33-5.09-7.61-.59-3.26-2.13-5.9-4.98-7.69,.78-23.13,6.84-43.62,17.78-62.57,5.09-8.81,9.91-17.87,13.84-27.24,5.62-13.41,15.06-22.33,28.39-27.55,3.94-1.55,7.73-3.5,11.73-4.9,6.64-2.32,13.54,1.07,16.67,7.89,.71,1.54,1.77,3.02,2.07,4.63,2.3,12.44,5.43,24.84,6.38,37.39,.88,11.6,4.48,21.32,11.93,30.06,3.82,4.48,7.4,9.31,10.21,14.46,11.39,20.89,25.9,39.74,38.77,59.66,10.69,16.55,19,34.04,24.92,52.71,1.26,3.97,1.21,8.35,1.76,12.54-.03,3.47-.07,6.94-.1,10.41-1.75,.09-3.5,.17-5.25,.26-2.57-2.34-4.82-4.98-4.69-8.64,.35-9.71-3.17-18.2-7.53-26.59-7.42-14.29-13.71-29.21-23.64-42.09-2.06-2.68-3.61-5.84-5.97-8.19-18.22-18.17-29.48-41.31-44.18-61.98-3.8-5.34-4.96-12.52-7.45-18.81-3.41-8.66-6.47-17.5-10.53-25.84-4.06-8.34-17.43-10.64-24.26-4.24-5.49,5.14-10.14,11.2-15.16,16.85-16.36,26.73-23.47,56.17-25.62,87.08v.02Z"/>
    <path class="cls-38" d="M4673.93,820.44c-1.72,0-3.43,0-5.15,.01-2.56,1.14-5.04,.68-6.81-1.27-25.89-28.51-30.53-28.44-60.52-3.2-14.33,12.06-21.09,30.9-37.76,40.55-3.36,2.55-6.34,5.5-8.57,9.16-1.01,1.88-2.16,3.65-3.34,5.42-3.06,4.77-6.87,8.66-12.25,10.82-10.25,3.91-20.48,7.22-29.97-1.77-1.59-1.9-2.69-4.06-3.42-6.42-1.89-13.49,7.54-19.77,17.31-24.14,11.91-5.33,20.69-13.31,27.49-24.02,2.13-1.35,4.78-2.26,6.32-4.11,9.58-11.53,22.11-17.9,36.37-21.24,5.16-1.21,9.38-3.7,13.01-7.36,8.58-8.65,19.66-13.01,30.63-17.31,2.67-1.04,7.32-.41,9.51,1.36,6.53,5.28,12.41,11.38,18.25,17.45,1.65,1.72,2.58,4.33,3.32,6.7,2.01,6.41,3.74,12.91,5.58,19.37Z"/>
    <path class="cls-45" d="M4684.18,774.33c0,6.84,0,13.68-.01,20.53-2.96-1.27-6.61-1.85-8.75-3.96-4.69-4.63-8.73-9.95-12.85-15.13-10.29-12.96-23.56-14.04-38.18-9.68-2.37,.71-4.55,2.01-6.82,3.04-2.56-19.81,6.28-37.03,12.43-54.88,12.75-6.82,24.26,1.26,36.33,3.07,16.14,15.81,16.95,36.43,17.85,57.02Z"/>
    <path class="cls-46" d="M4684.18,774.33c-2.38-9.74-3.95-19.77-7.36-29.14-3.43-9.42-8.68-18.19-13.13-27.24-1.34-1.09-2.55-2.29-3.43-3.75q-12.52-20.79-27.33-1.34c-1.77,14.6-4.46,28.99-10.91,42.37-2.15,4.45-4.37,8.82-4.46,13.9-3.39-1.7-6.78-3.39-10.18-5.09,1.82-4.77,3.56-9.57,5.47-14.29,3.57-8.82,5.86-17.92,4.62-27.44-1.39-10.7,3.03-20.15,5.94-29.85,2.29-7.64,8.53-12.59,14.97-16.9,1.18-.79,3.32-.7,4.84-.33,2.46,.6,5.03,1.41,7.11,2.79,6.41,4.24,15.74,2.88,20.46,9.73,6.23,9.04,13.13,17.79,15.5,29.07,.9,4.29,1.46,8.09,.09,12.39-3.19,10-3.1,19.99,.36,30.11,1.62,4.74,1.75,9.98,2.56,15-1.72,0-3.43,.02-5.15,.02Z"/>
    <path class="cls-33" d="M4550.95,825.58c-.24,1.66-.03,3.57-.79,4.95-6.19,11.25-14.49,20.4-26.56,25.56-1.54,.66-3.33,.73-4.83,1.45-4.87,2.35-7.91,6.18-8.49,11.66-.26,2.51-.23,5.05-.33,7.57-9.14,2.59-12.91-2.81-15.29-10.28,9.68-7.35,18.15-15.93,25.57-25.54,8.1,.68,14.96-1.52,20.67-7.7,2.82-3.05,6.67-5.14,10.06-7.66Z"/>
    <path class="cls-25" d="M4494.65,866.49c5.1,3.43,10.2,6.85,15.29,10.28,0,0,.02,.08,.02,.08,7.57,12.06-2.39,20.78-5.93,30.67-5.45,15.24-12.4,29.86-18.89,44.66-5.4,12.31-13.47,22.13-29.53,17.07-18.06-18.73-14.66-39.94-7.09-61.62l.02-.05c3.1-2.69,1.93-7.5,5.06-10.18,1.11-2.25,2.27-4.47,3.32-6.74,7.44-16.08,20.2-23.84,37.72-24.17Z"/>
    <path class="cls-37" d="M4448.53,907.63c-.01,8.48,.4,16.99-.15,25.43-.69,10.55,1.75,20.13,6.92,29.19,1.26,2.2,2.29,4.54,3.43,6.81,6.79,2.92,10.59,8.22,12.21,15.28,.01,5.07-2.02,8.75-7.08,10.36-4.86-.13-9.02-1.81-12.73-5.06-2.31-2.03-5.11-3.49-7.69-5.21-.03-5.63-.57-11.1-2.98-16.38-1.3-2.84-1.56-6.15-2.29-9.25,.05-13.41,.08-26.82,.16-40.24,.03-4.38,1.47-8.17,4.96-11.01,1.75,.03,3.5,.05,5.24,.08Z"/>
    <path class="cls-37" d="M4453.61,897.4c-.11,4.18-1.02,7.95-5.06,10.18,.04-4.21,.89-8.02,5.06-10.18Z"/>
    <path class="cls-36" d="M4745.8,1015.2c-8.56-16.28-15.55-33.45-27.16-48-1.02-1.28-2.45-2.24-3.69-3.34-6.23-12.55-16.85-22.68-20.34-36.76-.7-5.61,.8-10.46,4.91-14.42,6.59,3.6,13.53,5.6,21.16,5.16,4.9-.28,9.82-.05,14.74-.05,27.08,24.88,31.79,58.44,35.8,92.26-2.62,3.63-6.28,5.02-10.62,5.04-4.93,.02-9.86,.07-14.79,.1Z"/>
    <path class="cls-20" d="M4699.52,912.69v15.38c-14.98,1.32-12.57-14.75-20.48-20.49h0c-1.64-1.78-3.35-3.48-5.11-5.13h0c-11.65-21.56-12.68-45.44-15.67-69.02-3.72-29.36-15.23-34.16-40.68-18.11-12.73,5.61-23.94,13.03-30.81,25.67-1.9,1.5-3.24,3.54-5.02,5.15,0,1.7-.04,3.4-.1,5.09-1.89,1.51-3.24,3.55-5.01,5.18,.02,1.68,0,3.37-.05,5.05-6.26,5.48-11.08,13.32-20.99,12.82-3.71-1.26-6.75-2.93-4.6-7.7h-.01c3.23-2.63,1.99-7.53,5.14-10.22,2.54-2.14,4.99-4.42,7.65-6.41,6.84-5.11,13.03-10.82,17.44-18.23,10.28-17.25,25.96-28.72,42.42-39.23,8.12-5.19,20.77-3.36,28.22,3.51,5.62,5.18,11.07,10.41,12.49,18.6,.37,2.15,2.92,3.92,4.46,5.87,.2,6.73-.08,13.41,2.23,20.02,1.64,4.69,2.76,9.83,2.73,14.77-.07,12.07,4.63,23.08,7.31,34.46,2.34,9.94,8.59,18.31,18.46,22.99Z"/>
    <path class="cls-22" d="M4771.21,1010.06c-3.04-3.91-6.01-7.87-9.14-11.7-2.84-3.46-3.97-7.05-2.43-11.51,1.99-5.74,1.46-11.46-.8-17.13-1.22-3.07-2.51-6.35-2.65-9.58-.35-8.31-4.68-14.06-10.79-18.91-1.31-1.04-2.65-2.06-4.07-2.92-4.94-3.01-5.75-7.83-5.84-12.99-.04-2.51-.05-5.02-.07-7.52,3.78-1.01,7.54-2.06,11.33-3.02,3.04-.76,6.1-1.4,9.15-2.1,5.25,.21,9.78,2.02,13.42,5.9,7.73,8.25,12.5,17.69,12.24,29.31-.15,6.7-.23,13.41,.03,20.11,.56,14.3-.44,28.37-5.2,41.99-1.73,.02-3.45,.05-5.18,.07Z"/>
    <path class="cls-11" d="M4566.33,963.91c0-5.08,.52-10.23-.1-15.24-1.71-13.89,3.93-26.61,5.76-39.92,.11-.82,.29-1.77,.78-2.39,7.33-9.24,10.35-21.28,19.18-29.53,.92,8.86-2.24,16.71-7.13,23.62-4.98,7.03-7.62,14.24-8.81,22.93-1.58,11.51-5.12,22.75-5.5,34.55-.07,2.04-2.72,3.99-4.19,5.98Z"/>
    <path class="cls-39" d="M4556.08,871.69c3.2-2.21,6.51-4.28,9.57-6.66,3.26-2.53,6.95-3.39,10.91-3.6-.92,3.21-1.01,7.07-2.91,9.52-5.78,7.46-9.59,15.91-13.9,24.16-5.08,9.73-9.43,19.81-16.3,28.64-4.65,5.97-7.73,13.1-8.04,21.06-.17,4.38-2.21,8.08-5.13,11.32-7.89,8.77-16.56,16.67-22.96,26.97-6.16,9.92-16.38,17-21.97,27.72-1.03,1.97-4.01,2.92-6.09,4.34-3.42-5.11-6.84-10.22-10.27-15.33,32.84-27.25,44.67-68.44,67.8-102.13,6.11-8.89,8.79-20.37,19.29-26.01Z"/>
    <path class="cls-21" d="M4617.57,815.31c2.05-4.82,5.63-8.39,9.63-11.59,4.26-3.41,9.28-4.39,14.34-3.04,3.1,.83,6.91,2.39,8.5,4.85,7.8,12.11,15.17,24.45,13.71,39.93-1.38,14.68,5.04,28.06,7.8,42.06,.97,4.94,1.59,9.94,2.37,14.92-3.91-1.87-7.3-4.42-8.85-8.57-2.06-5.52-5.25-11.15-5.33-16.77-.2-14.47-5.85-27.97-6.36-42.31-.15-4.15-.79-8.41-1.98-12.39-2.94-9.85-9.74-13.67-19.31-11.21-4.87,1.25-9.68,2.74-14.52,4.12Z"/>
    <path class="cls-21" d="M4679.04,907.57c4.81,2.01,8.16,5.48,10.26,10.22,2.1,4.73,5.44,8.21,10.22,10.28,.31,4.2,1.38,8.08,4.1,11.46,5.76,7.17,10.42,14.89,11.33,24.34-2.09-1.39-4.82-2.33-6.15-4.24-8.17-11.72-16.23-23.52-23.87-35.58-3.12-4.92-5.9-10.28-5.89-16.47Z"/>
    <path class="cls-21" d="M4673.93,902.44c1.71,1.71,3.41,3.42,5.11,5.13-1.7-1.71-3.41-3.42-5.11-5.13Z"/>
    <path class="cls-39" d="M4576.62,856.39c1.67-1.73,3.34-3.45,5.02-5.18-1.67,1.73-3.34,3.45-5.02,5.18Z"/>
    <path class="cls-39" d="M4581.73,846.12c1.67-1.72,3.35-3.43,5.02-5.15-1.68,1.72-3.35,3.43-5.02,5.15Z"/>
    <path class="cls-19" d="M4556.08,871.69c-8.19,22.37-21.5,41.92-34.08,61.88-2.23,3.54-5.59,7.06-6.07,10.88-2.03,16.26-12.25,27.42-22.6,38.59-4.02,4.34-8.44,8.33-12.72,12.43-3.24,3.1-7.32,4.05-11.62,4.36-1.71-1.71-3.42-3.42-5.13-5.13,1.7-3.42,3.4-6.84,5.1-10.26,32.33-30.26,37.99-78.3,71.73-107.62,3.42-3.42,6.85-6.84,10.27-10.26,1.7,1.71,3.41,3.42,5.11,5.13Z"/>
    <path class="cls-31" d="M4540.7,876.83c-.9,3.19-1.31,6.64-2.83,9.51-2.35,4.41-4.93,8.92-8.34,12.51-13.1,13.82-18.61,31.42-25.07,48.59-1.47,3.92-2.97,7.88-5.02,11.5-1.62,2.85-3.73,5.68-6.29,7.68-7.89,6.16-16.11,11.92-24.19,17.83-5.79-3.54-7.14-10.04-10.23-15.38,3.04-1.56,6.02-3.22,9.12-4.65,5.71-2.64,9.49-6.59,11.39-12.9,3.17-10.54,5.87-21.27,12.93-30.34,4.21-5.41,1.58-13.37,5.94-19.3,4.01-5.45,7.23-11.53,10.37-17.56,1.13-2.16,1.02-4.97,1.48-7.48,7.58,4.37,15.18,6.4,23.45,1.37,1.98-1.2,4.83-.96,7.28-1.39Z"/>
    <path class="cls-19" d="M4556.1,856.35c-.11,4.21-1.02,8.02-5.14,10.22,.1-4.22,.99-8.04,5.14-10.22Z"/>
    <path class="cls-44" d="M4632.94,712.86c.28-5.06,.04-10.22,.95-15.17,1.66-9.06,12.69-12.65,19.94-6.86,5.48,4.38,9.72,9.43,9.73,16.96,0,3.39,.09,6.78,.15,10.17-6.63,4.19-13.16,5.02-20.07,.31-3.27-2.23-7.11-3.63-10.69-5.4Z"/>
  </g>
  <text class="cls-3" transform="translate(0 3210.16)"><tspan x="0" y="0">Revival House</tspan></text>
  <text class="cls-1" transform="translate(102.94 3754.44)"><tspan class="cls-48" x="0" y="0">Love | </tspan><tspan class="cls-49" x="1742.57" y="0">F</tspan><tspan class="cls-48" x="2024.99" y="0">ellowship | </tspan><tspan class="cls-47" x="4951.94" y="0">W</tspan><tspan class="cls-48" x="5393.21" y="0">orship</tspan></text>
</svg>