<svg id="svg" version="1.1" xmlns="http://www.w3.org/2000/svg" xmlns:xlink="http://www.w3.org/1999/xlink" width="400" height="99.79166666666667" viewBox="0, 0, 400,99.79166666666667"><g id="svgg"><path id="path0" d="M279.090 34.671 C 271.748 36.218,268.124 45.400,271.922 52.833 C 275.086 59.025,284.453 60.562,291.111 55.981 C 292.611 54.949,292.500 55.407,292.500 50.250 L 292.500 45.667 287.417 45.667 L 282.333 45.667 282.333 47.583 L 282.333 49.500 285.000 49.500 L 287.667 49.500 287.665 51.042 L 287.663 52.583 287.123 52.929 C 282.475 55.909,277.290 54.536,275.819 49.935 C 274.792 46.722,275.349 42.533,277.064 40.575 C 279.918 37.315,286.440 38.145,287.258 41.871 C 287.379 42.422,287.253 42.415,289.750 42.003 C 290.850 41.822,291.816 41.672,291.896 41.670 C 292.178 41.663,291.820 40.299,291.228 39.124 C 289.307 35.309,284.476 33.537,279.090 34.671 M36.333 46.500 L 36.333 58.167 38.667 58.167 L 41.000 58.167 41.000 53.333 L 41.000 48.500 42.292 48.501 C 45.264 48.503,45.594 48.810,50.250 55.882 L 51.750 58.160 54.542 58.163 C 56.077 58.165,57.333 58.126,57.333 58.077 C 57.333 57.957,55.118 54.448,53.183 51.503 C 52.430 50.356,51.126 49.023,50.159 48.411 L 49.417 47.941 50.167 47.738 C 54.738 46.505,56.813 42.496,54.964 38.471 C 53.486 35.253,52.091 34.842,42.625 34.837 L 36.333 34.833 36.333 46.500 M96.833 36.750 L 96.833 38.667 99.083 38.667 L 101.333 38.667 101.333 36.750 L 101.333 34.833 99.083 34.833 L 96.833 34.833 96.833 36.750 M142.833 46.500 L 142.833 58.167 145.083 58.167 L 147.333 58.167 147.333 46.500 L 147.333 34.833 145.083 34.833 L 142.833 34.833 142.833 46.500 M161.167 46.500 L 161.167 58.167 163.500 58.167 L 165.833 58.167 165.833 52.997 L 165.833 47.828 170.542 47.872 L 175.250 47.917 175.294 53.042 L 175.338 58.167 177.669 58.167 L 180.000 58.167 180.000 46.500 L 180.000 34.833 177.669 34.833 L 175.339 34.833 175.294 39.375 L 175.250 43.917 170.583 43.917 L 165.917 43.917 165.872 39.375 L 165.828 34.833 163.497 34.833 L 161.167 34.833 161.167 46.500 M297.000 46.500 L 297.000 58.167 299.250 58.167 L 301.500 58.167 301.500 46.500 L 301.500 34.833 299.250 34.833 L 297.000 34.833 297.000 46.500 M326.000 46.500 L 326.000 58.167 328.083 58.167 L 330.167 58.167 330.167 57.083 C 330.167 55.777,330.125 55.783,331.365 56.906 C 334.376 59.631,338.770 59.045,341.094 55.608 C 343.007 52.781,343.174 47.519,341.456 44.280 C 339.522 40.635,334.376 39.688,331.352 42.420 C 330.483 43.204,330.500 43.275,330.500 38.806 L 330.500 34.833 328.250 34.833 L 326.000 34.833 326.000 46.500 M364.833 46.500 L 364.833 58.167 367.083 58.167 L 369.333 58.167 369.333 46.500 L 369.333 34.833 367.083 34.833 L 364.833 34.833 364.833 46.500 M49.333 39.092 C 51.172 40.173,51.162 42.996,49.316 44.083 C 48.803 44.385,48.388 44.422,44.875 44.476 L 41.000 44.535 41.000 41.590 L 41.000 38.645 44.875 38.697 C 48.429 38.746,48.798 38.778,49.333 39.092 M64.083 41.253 C 63.442 41.480,62.902 41.666,62.884 41.666 C 62.635 41.671,60.756 43.508,60.346 44.146 C 58.639 46.806,58.377 51.298,59.747 54.417 C 62.299 60.228,71.794 60.043,74.241 54.135 L 74.496 53.520 73.706 53.412 C 73.272 53.353,72.300 53.212,71.545 53.099 C 70.167 52.891,69.833 52.959,69.833 53.444 C 69.833 53.832,68.824 54.811,68.218 55.011 C 66.081 55.716,63.500 53.876,63.500 51.648 L 63.500 51.000 69.083 51.000 L 74.667 51.000 74.667 49.765 C 74.667 43.272,69.692 39.270,64.083 41.253 M128.667 40.991 C 126.671 41.362,125.053 42.616,124.220 44.436 C 123.601 45.788,123.716 45.865,126.917 46.240 L 127.750 46.338 128.207 45.578 C 129.516 43.400,133.830 44.007,133.833 46.369 C 133.834 47.181,133.764 47.213,130.278 47.998 C 124.687 49.259,123.283 50.380,123.283 53.583 C 123.283 58.470,130.108 60.529,133.567 56.686 C 134.056 56.143,134.265 56.257,134.519 57.208 L 134.752 58.083 136.932 58.130 L 139.111 58.176 138.684 56.963 C 138.261 55.762,138.258 55.704,138.286 51.008 C 138.331 43.439,138.002 42.472,134.980 41.305 C 133.980 40.918,130.092 40.725,128.667 40.991 M190.833 40.950 C 186.077 41.765,183.088 46.746,184.183 52.033 C 185.988 60.752,198.962 60.869,201.183 52.187 C 202.903 45.460,197.671 39.779,190.833 40.950 M229.333 40.947 C 225.190 41.622,223.049 45.540,225.130 48.639 C 226.089 50.067,228.295 51.030,233.000 52.074 C 234.797 52.473,235.428 53.129,235.026 54.179 C 234.167 56.426,228.942 55.891,228.417 53.503 C 228.321 53.066,228.185 52.941,227.832 52.967 C 227.580 52.985,224.836 53.350,224.375 53.426 C 222.995 53.653,225.008 56.689,227.229 57.729 C 232.778 60.326,239.483 57.716,239.496 52.953 C 239.505 49.998,237.744 48.519,233.000 47.497 C 229.092 46.654,227.651 45.653,228.822 44.593 C 230.358 43.204,233.946 43.761,234.667 45.501 C 234.812 45.851,234.962 45.982,235.148 45.922 C 235.297 45.875,236.196 45.728,237.145 45.594 C 239.224 45.303,239.103 45.410,238.607 44.287 C 237.419 41.601,233.649 40.243,229.333 40.947 M248.291 41.003 C 243.177 42.299,240.782 49.001,243.432 54.605 C 245.997 60.033,255.006 60.035,257.565 54.609 C 258.122 53.428,258.268 53.561,256.075 53.253 C 255.073 53.112,254.124 52.956,253.967 52.906 C 253.761 52.841,253.592 52.991,253.357 53.450 C 251.803 56.482,247.012 55.046,247.002 51.544 L 247.000 51.004 252.625 50.961 L 258.250 50.917 258.221 49.520 C 258.111 44.229,255.342 41.072,250.667 40.907 C 249.704 40.873,248.635 40.916,248.291 41.003 M311.699 41.000 C 306.813 42.036,304.043 47.140,305.428 52.556 C 307.380 60.188,318.954 60.771,321.911 53.386 C 324.727 46.350,319.034 39.445,311.699 41.000 M350.581 41.003 C 349.486 41.221,348.126 41.912,347.437 42.603 C 346.753 43.287,345.583 45.485,345.793 45.691 C 346.025 45.918,349.733 46.383,349.797 46.193 C 350.709 43.457,355.832 43.689,355.833 46.467 C 355.833 47.172,355.553 47.291,352.250 47.991 C 346.870 49.131,345.273 50.412,345.273 53.583 C 345.273 58.346,351.442 60.413,355.288 56.938 C 356.164 56.147,356.243 56.167,356.485 57.250 L 356.691 58.167 358.908 58.167 L 361.125 58.167 360.699 57.042 C 360.280 55.935,360.271 55.822,360.177 50.083 C 360.071 43.644,360.064 43.604,358.940 42.481 C 357.556 41.098,353.612 40.400,350.581 41.003 M76.500 41.358 C 76.500 41.543,77.244 43.416,80.958 52.583 C 81.923 54.967,82.827 57.198,82.965 57.542 L 83.217 58.167 85.253 58.167 L 87.288 58.167 90.093 51.125 C 94.001 41.311,93.979 41.368,93.873 41.262 C 93.732 41.121,89.782 41.151,89.560 41.294 C 89.365 41.420,86.407 49.155,85.757 51.239 C 85.272 52.795,85.166 52.763,84.557 50.875 C 84.124 49.532,81.859 43.308,81.190 41.625 L 81.008 41.167 78.754 41.167 C 77.169 41.167,76.500 41.223,76.500 41.358 M97.042 41.275 C 96.879 41.342,96.833 43.199,96.833 49.764 L 96.833 58.167 99.085 58.167 L 101.336 58.167 101.293 49.708 L 101.250 41.250 99.250 41.219 C 98.150 41.202,97.156 41.227,97.042 41.275 M104.191 41.315 C 104.028 41.418,104.011 41.544,104.131 41.770 C 104.300 42.091,110.001 56.174,110.483 57.463 L 110.750 58.176 112.818 58.130 L 114.885 58.083 116.950 52.917 C 120.676 43.596,121.495 41.461,121.404 41.313 C 121.256 41.074,117.237 41.131,117.035 41.375 C 116.941 41.490,116.368 42.933,115.762 44.583 C 115.156 46.233,114.578 47.771,114.476 48.000 C 114.375 48.229,113.999 49.279,113.642 50.333 C 113.285 51.387,112.950 52.362,112.898 52.500 C 112.847 52.637,112.368 51.512,111.835 50.000 C 110.529 46.296,108.921 41.975,108.682 41.530 C 108.476 41.143,104.744 40.964,104.191 41.315 M205.194 41.310 C 204.766 41.587,205.010 53.799,205.472 55.199 C 206.648 58.758,211.383 59.777,214.858 57.218 C 215.402 56.818,215.890 56.380,215.942 56.245 C 216.156 55.687,216.333 56.068,216.333 57.083 L 216.333 58.167 218.418 58.167 L 220.503 58.167 220.460 49.708 L 220.417 41.250 218.583 41.202 C 217.575 41.175,216.581 41.195,216.375 41.246 L 216.000 41.340 216.000 46.397 C 216.000 53.846,215.591 54.899,212.615 55.115 C 209.877 55.314,209.608 54.620,209.500 47.083 L 209.417 41.250 207.417 41.208 C 206.317 41.185,205.317 41.231,205.194 41.310 M68.216 44.559 C 68.989 44.881,69.778 45.858,70.076 46.861 C 70.548 48.450,70.800 48.333,66.895 48.333 L 63.457 48.333 63.571 47.474 C 63.891 45.062,66.102 43.675,68.216 44.559 M194.017 44.526 C 197.727 45.788,197.894 53.191,194.250 54.855 C 191.329 56.189,188.611 53.777,188.592 49.833 C 188.572 45.830,190.966 43.488,194.017 44.526 M252.314 44.903 C 253.086 45.438,253.670 46.504,253.794 47.602 L 253.877 48.340 250.480 48.295 L 247.083 48.250 247.130 47.526 C 247.297 44.915,250.207 43.443,252.314 44.903 M315.417 44.650 C 319.078 46.349,318.787 53.951,315.020 54.997 C 311.791 55.894,309.470 53.342,309.699 49.145 C 309.859 46.190,311.451 44.341,313.833 44.341 C 314.376 44.341,315.022 44.467,315.417 44.650 M335.762 44.649 C 338.994 46.117,338.861 53.674,335.580 54.927 C 332.319 56.172,329.689 52.273,330.671 47.646 C 331.234 44.995,333.537 43.639,335.762 44.649 M133.808 51.638 C 133.681 54.857,129.859 56.517,128.099 54.118 C 126.784 52.325,129.059 50.735,133.725 50.183 C 133.803 50.174,133.840 50.829,133.808 51.638 M355.802 51.556 C 355.714 53.236,355.392 53.878,354.299 54.554 C 352.285 55.799,349.758 54.934,349.758 53.000 C 349.758 51.717,350.413 51.356,354.417 50.434 C 355.987 50.072,355.884 49.989,355.802 51.556 " stroke="none" fill="#fafafa" fill-rule="evenodd"></path><path id="path1" d="M0.000 49.833 L 0.000 99.667 200.000 99.667 L 400.000 99.667 400.000 49.833 L 400.000 0.000 200.000 0.000 L 0.000 0.000 0.000 49.833 M285.508 34.570 C 288.249 35.152,290.286 36.736,291.489 39.221 C 292.417 41.138,292.494 41.626,291.887 41.751 C 291.628 41.805,291.154 41.915,290.833 41.997 C 288.042 42.708,287.185 42.609,286.865 41.539 C 285.599 37.316,278.202 37.821,276.236 42.265 C 274.062 47.181,276.270 53.098,280.684 54.188 L 282.112 54.541 283.764 54.121 C 284.673 53.891,285.867 53.447,286.417 53.136 L 287.417 52.570 287.465 51.118 L 287.513 49.667 285.020 49.667 C 281.732 49.667,282.000 49.861,282.000 47.482 L 282.000 45.500 287.333 45.500 L 292.667 45.500 292.667 50.237 L 292.667 54.974 291.992 55.551 C 285.932 60.738,275.018 59.389,271.792 53.053 C 271.242 51.972,271.058 51.445,270.464 49.250 C 270.230 48.387,270.230 44.446,270.464 43.583 C 271.030 41.493,271.208 40.987,271.720 40.030 C 274.182 35.429,279.543 33.306,285.508 34.570 M51.581 35.144 C 56.926 37.100,57.302 44.737,52.176 47.226 C 51.676 47.468,51.175 47.667,51.061 47.667 C 50.948 47.667,50.657 47.742,50.414 47.834 L 49.973 48.002 50.778 48.642 C 52.199 49.770,54.309 52.515,55.729 55.083 C 55.881 55.358,56.370 56.146,56.816 56.833 C 57.845 58.422,57.977 58.333,54.581 58.333 L 51.681 58.333 50.036 55.875 C 45.407 48.956,45.264 48.817,42.466 48.557 L 41.338 48.453 41.294 53.351 L 41.250 58.250 38.708 58.296 L 36.167 58.342 36.167 46.493 L 36.167 34.644 43.375 34.712 C 50.287 34.776,50.624 34.794,51.581 35.144 M101.463 36.708 L 101.417 38.750 99.083 38.750 L 96.750 38.750 96.703 36.708 L 96.656 34.667 99.083 34.667 L 101.510 34.667 101.463 36.708 M147.500 46.500 L 147.500 58.333 145.083 58.333 L 142.667 58.333 142.667 46.500 L 142.667 34.667 145.083 34.667 L 147.500 34.667 147.500 46.500 M166.128 39.292 L 166.172 43.833 170.583 43.833 L 174.995 43.833 175.039 39.292 L 175.083 34.750 177.625 34.704 L 180.167 34.658 180.167 46.500 L 180.167 58.342 177.625 58.296 L 175.083 58.250 175.039 53.125 L 174.995 48.000 170.583 48.000 L 166.171 48.000 166.127 53.125 L 166.083 58.250 163.542 58.296 L 161.000 58.342 161.000 46.500 L 161.000 34.658 163.542 34.704 L 166.083 34.750 166.128 39.292 M301.667 46.504 L 301.667 58.342 299.208 58.296 L 296.750 58.250 296.707 46.667 C 296.683 40.296,296.700 34.990,296.743 34.875 C 296.802 34.722,297.461 34.667,299.245 34.667 L 301.667 34.667 301.667 46.504 M330.670 38.792 C 330.674 42.724,330.688 42.900,330.962 42.568 C 333.209 39.844,338.552 40.145,340.951 43.131 C 343.774 46.643,343.439 53.745,340.306 56.813 C 337.841 59.227,333.689 59.342,331.170 57.066 L 330.518 56.478 330.467 57.364 L 330.417 58.250 328.125 58.296 L 325.833 58.343 325.833 46.505 L 325.833 34.667 328.250 34.667 L 330.667 34.667 330.670 38.792 M369.417 46.500 L 369.417 58.250 367.000 58.250 L 364.583 58.250 364.540 46.667 C 364.516 40.296,364.534 34.988,364.578 34.870 C 364.640 34.708,365.227 34.669,367.038 34.704 L 369.417 34.750 369.417 46.500 M41.333 41.693 L 41.333 44.552 44.776 44.450 C 49.362 44.313,50.118 43.990,50.431 42.029 C 50.839 39.479,49.594 38.849,44.125 38.839 L 41.333 38.833 41.333 41.693 M69.509 41.096 C 73.049 42.242,74.971 45.520,74.997 50.458 L 75.000 51.000 69.314 51.000 L 63.629 51.000 63.742 51.756 C 64.243 55.099,68.409 56.253,69.608 53.383 C 69.877 52.740,69.973 52.730,72.625 53.056 C 74.825 53.328,74.879 53.385,74.187 54.734 C 72.546 57.935,68.945 59.355,64.624 58.505 C 56.869 56.979,56.437 43.692,64.056 41.062 C 65.611 40.525,67.787 40.539,69.509 41.096 M134.461 41.010 C 135.865 41.385,136.197 41.560,137.182 42.450 C 138.258 43.422,138.345 43.978,138.394 50.117 C 138.438 55.750,138.390 55.312,139.277 58.042 C 139.365 58.310,139.185 58.333,137.025 58.333 C 134.415 58.333,134.488 58.366,134.262 57.114 L 134.148 56.479 133.519 57.046 C 131.007 59.315,126.159 59.235,124.240 56.893 C 121.146 53.118,123.562 49.034,129.500 48.001 C 130.660 47.799,133.491 47.064,133.626 46.930 C 133.670 46.885,133.656 46.510,133.594 46.096 C 133.248 43.789,128.815 43.862,128.077 46.187 C 127.956 46.568,126.435 46.554,125.404 46.162 C 125.170 46.073,124.739 45.999,124.447 45.997 C 123.374 45.992,123.335 45.603,124.237 43.919 C 125.753 41.089,130.109 39.849,134.461 41.010 M195.574 41.057 C 201.860 42.889,203.848 51.498,199.082 56.250 C 195.104 60.216,187.397 59.298,184.901 54.562 C 180.857 46.885,187.355 38.662,195.574 41.057 M235.045 41.068 C 236.779 41.520,238.410 42.974,238.954 44.554 C 239.268 45.465,239.103 45.579,237.135 45.810 C 234.763 46.089,234.554 46.073,234.436 45.602 C 234.014 43.919,229.421 43.371,228.827 44.933 C 228.459 45.902,229.631 46.633,232.417 47.175 C 237.637 48.189,239.757 49.850,239.744 52.917 C 239.728 56.664,237.009 58.667,231.939 58.667 C 227.599 58.667,225.371 57.561,223.968 54.709 C 223.311 53.375,223.357 53.326,225.541 53.056 C 228.311 52.715,228.266 52.707,228.705 53.624 C 229.693 55.689,233.270 56.154,234.652 54.398 C 235.568 53.232,234.447 52.422,231.000 51.756 C 225.830 50.758,223.469 48.270,224.321 44.719 C 225.105 41.450,230.051 39.766,235.045 41.068 M252.552 40.924 C 256.332 42.051,258.080 44.589,258.432 49.458 L 258.543 51.000 252.855 51.000 C 249.370 51.000,247.167 51.061,247.167 51.158 C 247.167 54.603,251.644 56.446,253.039 53.576 C 253.454 52.722,253.451 52.723,255.905 53.010 C 258.542 53.319,258.491 53.262,257.626 54.884 C 255.973 57.986,252.412 59.342,248.118 58.506 C 243.709 57.646,241.220 52.572,242.505 47.062 C 243.619 42.282,248.043 39.580,252.552 40.924 M316.685 41.066 C 323.967 43.328,325.086 53.888,318.442 57.638 C 315.928 59.057,311.936 59.064,309.145 57.656 C 302.621 54.362,303.838 42.953,310.911 41.106 C 311.436 40.969,311.908 40.814,311.961 40.762 C 312.241 40.481,315.473 40.689,316.685 41.066 M356.461 41.010 C 358.427 41.535,359.444 42.332,360.025 43.802 C 360.380 44.701,360.404 45.049,360.492 50.583 C 360.582 56.170,360.602 56.451,360.960 57.230 C 361.165 57.677,361.333 58.110,361.333 58.192 C 361.333 58.277,360.290 58.322,358.958 58.296 L 356.583 58.250 356.337 57.500 C 356.202 57.087,356.078 56.726,356.062 56.697 C 356.046 56.668,355.696 56.901,355.285 57.215 C 352.786 59.122,348.834 59.215,346.696 57.416 C 345.316 56.255,344.682 53.980,345.230 52.157 C 345.949 49.768,347.567 48.722,351.758 47.937 C 353.136 47.680,355.488 47.068,355.624 46.932 C 355.665 46.890,355.646 46.539,355.581 46.151 C 355.192 43.848,351.103 43.771,350.125 46.048 C 349.904 46.562,348.601 46.617,347.404 46.162 C 347.170 46.073,346.739 45.999,346.447 45.997 C 345.261 45.992,345.485 44.551,346.937 42.855 C 348.653 40.850,352.829 40.042,356.461 41.010 M81.510 41.875 C 81.614 42.265,81.756 42.658,81.826 42.750 C 81.896 42.842,82.110 43.367,82.301 43.917 C 82.492 44.467,82.885 45.554,83.174 46.333 C 83.463 47.112,84.019 48.670,84.409 49.795 C 84.799 50.920,85.153 51.875,85.195 51.917 C 85.237 51.959,85.469 51.414,85.709 50.705 C 85.950 49.997,86.418 48.704,86.749 47.833 C 87.080 46.962,87.679 45.350,88.080 44.250 C 88.482 43.150,88.907 42.006,89.025 41.708 L 89.240 41.167 91.703 41.167 C 93.166 41.167,94.167 41.232,94.167 41.327 C 94.167 41.483,92.398 46.029,91.905 47.140 C 91.769 47.446,91.393 48.384,91.070 49.223 C 90.747 50.063,90.191 51.462,89.833 52.333 C 89.476 53.204,88.913 54.620,88.582 55.480 C 88.251 56.339,87.855 57.333,87.701 57.688 L 87.421 58.333 85.205 58.333 C 83.245 58.333,82.978 58.300,82.888 58.042 C 82.832 57.881,82.489 57.000,82.125 56.083 C 81.761 55.167,81.257 53.892,81.004 53.250 C 80.587 52.192,78.270 46.468,76.766 42.782 C 76.436 41.975,76.167 41.281,76.167 41.241 C 76.167 41.200,77.326 41.167,78.744 41.167 L 81.320 41.167 81.510 41.875 M101.500 49.750 L 101.500 58.333 99.083 58.333 L 96.667 58.333 96.667 49.750 L 96.667 41.167 99.083 41.167 L 101.500 41.167 101.500 49.750 M109.618 43.250 C 110.025 44.350,110.465 45.587,110.598 46.000 C 110.730 46.413,110.950 46.986,111.086 47.275 C 111.222 47.564,111.333 47.851,111.333 47.913 C 111.333 47.976,111.516 48.489,111.739 49.055 C 111.962 49.621,112.269 50.522,112.422 51.058 C 112.755 52.227,112.841 52.165,113.425 50.333 C 113.673 49.554,113.921 48.842,113.975 48.750 C 114.029 48.658,114.230 48.133,114.422 47.583 C 114.901 46.213,116.131 42.914,116.503 42.000 L 116.809 41.250 119.238 41.204 C 121.297 41.165,121.667 41.196,121.667 41.406 C 121.667 41.643,120.090 45.724,119.239 47.688 C 119.016 48.203,118.833 48.679,118.833 48.746 C 118.833 48.812,118.725 49.103,118.593 49.391 C 118.461 49.680,117.708 51.567,116.919 53.583 C 116.131 55.600,115.377 57.496,115.243 57.797 L 115.001 58.343 112.796 58.297 L 110.591 58.250 109.702 56.083 C 109.214 54.892,108.705 53.617,108.572 53.250 C 108.440 52.883,108.258 52.433,108.169 52.250 C 107.981 51.863,104.942 44.317,104.477 43.083 C 104.304 42.625,104.089 42.120,103.998 41.961 C 103.560 41.191,103.671 41.155,106.357 41.204 L 108.880 41.250 109.618 43.250 M209.833 46.896 C 209.833 50.047,209.881 52.865,209.940 53.159 C 210.321 55.064,212.994 55.575,214.668 54.063 C 215.749 53.086,215.833 52.535,215.833 46.433 L 215.833 41.167 218.250 41.167 L 220.667 41.167 220.667 49.750 L 220.667 58.333 218.417 58.333 L 216.167 58.333 216.167 57.312 L 216.167 56.291 215.453 56.949 C 213.121 59.098,208.839 59.338,206.725 57.438 C 205.025 55.909,204.841 54.853,204.836 46.625 L 204.833 41.167 207.333 41.167 L 209.833 41.167 209.833 46.896 M65.940 44.662 C 64.583 45.198,63.845 46.209,63.837 47.542 L 63.833 48.167 66.990 48.167 L 70.146 48.167 70.052 47.542 C 69.719 45.330,67.746 43.948,65.940 44.662 M191.599 44.663 C 189.246 45.597,188.136 48.848,189.070 52.063 C 190.161 55.813,194.936 55.960,196.259 52.284 C 197.842 47.886,195.036 43.297,191.599 44.663 M249.341 44.713 C 248.178 45.186,247.490 46.098,247.372 47.322 L 247.291 48.167 250.475 48.167 L 253.658 48.167 253.568 47.625 C 253.377 46.476,253.302 46.270,252.868 45.701 C 251.964 44.515,250.698 44.161,249.341 44.713 M312.611 44.741 C 309.011 46.221,308.775 52.695,312.250 54.618 C 314.614 55.926,317.420 53.903,317.754 50.650 C 318.188 46.421,315.641 43.495,312.611 44.741 M333.266 44.662 C 329.625 46.112,329.825 53.844,333.528 54.841 C 336.533 55.650,338.530 52.255,337.687 47.766 C 337.223 45.299,335.212 43.887,333.266 44.662 M133.301 50.421 C 133.253 50.470,132.466 50.654,131.553 50.831 C 128.704 51.383,128.000 51.831,128.000 53.089 C 128.000 55.780,132.984 55.373,133.513 52.638 C 133.788 51.211,133.677 50.045,133.301 50.421 M355.298 50.424 C 355.253 50.469,354.474 50.649,353.566 50.823 C 350.663 51.379,349.622 52.119,349.966 53.380 C 350.658 55.915,354.998 55.240,355.501 52.519 C 355.768 51.073,355.669 50.053,355.298 50.424 " stroke="none" fill="#040404" fill-rule="evenodd"></path><path id="path2" d="M39.198 34.791 C 40.727 34.819,43.277 34.819,44.864 34.791 C 46.451 34.764,45.200 34.742,42.083 34.741 C 38.967 34.741,37.668 34.764,39.198 34.791 M98.049 34.790 C 98.671 34.823,99.646 34.822,100.215 34.790 C 100.784 34.757,100.275 34.731,99.083 34.731 C 97.892 34.732,97.426 34.758,98.049 34.790 M144.049 34.790 C 144.671 34.823,145.646 34.822,146.215 34.790 C 146.784 34.757,146.275 34.731,145.083 34.731 C 143.892 34.732,143.426 34.758,144.049 34.790 M162.375 34.790 C 162.994 34.822,164.006 34.822,164.625 34.790 C 165.244 34.758,164.737 34.732,163.500 34.732 C 162.262 34.732,161.756 34.758,162.375 34.790 M176.542 34.790 C 177.160 34.822,178.173 34.822,178.792 34.790 C 179.410 34.758,178.904 34.732,177.667 34.732 C 176.429 34.732,175.923 34.758,176.542 34.790 M298.125 34.790 C 298.698 34.823,299.635 34.823,300.208 34.790 C 300.781 34.758,300.313 34.731,299.167 34.731 C 298.021 34.731,297.552 34.758,298.125 34.790 M327.292 34.790 C 327.865 34.823,328.802 34.823,329.375 34.790 C 329.948 34.758,329.479 34.731,328.333 34.731 C 327.188 34.731,326.719 34.758,327.292 34.790 M365.958 34.790 C 366.531 34.823,367.469 34.823,368.042 34.790 C 368.615 34.758,368.146 34.731,367.000 34.731 C 365.854 34.731,365.385 34.758,365.958 34.790 M101.397 36.750 C 101.397 37.850,101.424 38.278,101.457 37.702 C 101.490 37.125,101.489 36.225,101.456 35.702 C 101.423 35.178,101.397 35.650,101.397 36.750 M142.748 46.542 L 142.750 58.250 144.959 58.258 L 147.167 58.265 145.001 58.211 L 142.836 58.157 142.791 46.495 L 142.747 34.833 142.748 46.542 M161.079 46.500 C 161.079 52.962,161.100 55.606,161.125 52.375 C 161.150 49.144,161.150 43.856,161.125 40.625 C 161.100 37.394,161.079 40.037,161.079 46.500 M165.913 39.375 L 165.917 43.917 170.583 43.917 L 175.250 43.917 175.254 39.375 L 175.258 34.833 175.210 39.333 L 175.161 43.833 170.583 43.833 L 166.005 43.833 165.957 39.333 L 165.908 34.833 165.913 39.375 M296.915 46.542 L 296.917 58.250 299.125 58.258 L 301.334 58.265 299.168 58.211 L 297.002 58.157 296.958 46.495 L 296.913 34.833 296.915 46.542 M330.539 38.782 C 330.499 42.899,330.554 43.270,331.103 42.621 L 331.417 42.250 331.045 42.565 L 330.673 42.880 330.625 38.815 L 330.577 34.750 330.539 38.782 M364.748 46.542 L 364.750 58.250 366.959 58.258 L 369.167 58.265 367.001 58.211 L 364.836 58.157 364.791 46.495 L 364.747 34.833 364.748 46.542 M53.333 36.219 C 53.333 36.248,53.577 36.491,53.875 36.760 L 54.417 37.250 53.927 36.708 C 53.471 36.203,53.333 36.090,53.333 36.219 M41.069 41.583 C 41.069 43.233,41.094 43.886,41.124 43.033 C 41.155 42.181,41.154 40.831,41.124 40.033 C 41.093 39.236,41.069 39.933,41.069 41.583 M47.542 38.782 C 47.702 38.823,47.965 38.823,48.125 38.782 C 48.285 38.740,48.154 38.705,47.833 38.705 C 47.512 38.705,47.381 38.740,47.542 38.782 M291.283 39.248 C 291.435 39.568,291.589 39.800,291.625 39.763 C 291.702 39.687,291.196 38.667,291.082 38.667 C 291.040 38.667,291.130 38.928,291.283 39.248 M285.500 39.552 C 285.500 39.581,285.744 39.825,286.042 40.094 L 286.583 40.583 286.094 40.042 C 285.638 39.537,285.500 39.423,285.500 39.552 M277.324 40.292 L 276.750 40.917 277.375 40.342 C 277.957 39.808,278.077 39.667,277.949 39.667 C 277.922 39.667,277.640 39.948,277.324 40.292 M55.556 41.333 C 55.556 42.021,55.585 42.302,55.621 41.958 C 55.657 41.615,55.657 41.052,55.621 40.708 C 55.585 40.365,55.556 40.646,55.556 41.333 M101.295 49.670 L 101.339 58.157 99.169 58.211 L 97.000 58.265 99.208 58.258 L 101.417 58.250 101.460 49.843 C 101.484 45.220,101.446 41.379,101.377 41.310 C 101.307 41.240,101.270 45.002,101.295 49.670 M209.500 46.466 L 209.583 51.750 209.627 46.594 C 209.652 43.758,209.614 41.381,209.544 41.311 C 209.474 41.240,209.454 43.561,209.500 46.466 M220.461 49.670 L 220.506 58.156 218.545 58.211 L 216.583 58.265 218.583 58.258 L 220.583 58.250 220.627 49.843 C 220.650 45.220,220.613 41.379,220.543 41.310 C 220.474 41.240,220.437 45.002,220.461 49.670 M125.324 42.625 L 124.750 43.250 125.375 42.676 C 125.957 42.141,126.077 42.000,125.949 42.000 C 125.922 42.000,125.640 42.281,125.324 42.625 M225.658 42.625 L 225.083 43.250 225.708 42.676 C 226.290 42.141,226.410 42.000,226.283 42.000 C 226.255 42.000,225.974 42.281,225.658 42.625 M186.333 43.250 C 185.928 43.663,185.635 44.000,185.681 44.000 C 185.726 44.000,186.095 43.663,186.500 43.250 C 186.905 42.837,187.199 42.500,187.153 42.500 C 187.107 42.500,186.738 42.837,186.333 43.250 M320.083 43.333 C 320.535 43.792,320.942 44.167,320.987 44.167 C 321.033 44.167,320.701 43.792,320.250 43.333 C 319.799 42.875,319.392 42.500,319.346 42.500 C 319.300 42.500,319.632 42.875,320.083 43.333 M275.372 44.833 C 275.372 45.154,275.406 45.285,275.448 45.125 C 275.490 44.965,275.490 44.702,275.448 44.542 C 275.406 44.381,275.372 44.512,275.372 44.833 M189.906 45.542 L 189.417 46.083 189.958 45.594 C 190.463 45.138,190.577 45.000,190.448 45.000 C 190.419 45.000,190.175 45.244,189.906 45.542 M270.390 46.417 C 270.391 47.150,270.420 47.429,270.456 47.037 C 270.491 46.645,270.490 46.045,270.454 45.704 C 270.419 45.363,270.390 45.683,270.390 46.417 M282.239 45.719 C 282.193 45.840,282.179 46.758,282.209 47.761 L 282.263 49.583 282.298 47.627 L 282.333 45.672 287.375 45.625 L 292.417 45.578 287.370 45.539 C 283.327 45.508,282.306 45.544,282.239 45.719 M360.240 50.250 C 360.240 52.908,360.263 53.972,360.291 52.615 C 360.319 51.257,360.319 49.082,360.291 47.781 C 360.263 46.481,360.240 47.592,360.240 50.250 M355.659 46.454 C 355.613 46.841,355.639 47.094,355.716 47.017 C 355.794 46.939,355.832 46.622,355.800 46.313 C 355.743 45.764,355.740 45.767,355.659 46.454 M275.372 47.667 C 275.372 47.987,275.406 48.119,275.448 47.958 C 275.490 47.798,275.490 47.535,275.448 47.375 C 275.406 47.215,275.372 47.346,275.372 47.667 M63.500 47.833 C 63.500 48.108,63.562 48.333,63.638 48.333 C 63.714 48.333,63.743 48.108,63.702 47.833 C 63.662 47.558,63.600 47.333,63.564 47.333 C 63.529 47.333,63.500 47.558,63.500 47.833 M165.872 52.954 L 165.833 58.157 163.542 58.209 L 161.250 58.260 163.547 58.297 C 165.268 58.324,165.864 58.281,165.924 58.123 C 165.969 58.008,165.984 55.626,165.958 52.832 L 165.912 47.750 165.872 52.954 M175.246 53.083 L 175.250 58.250 177.542 58.257 L 179.834 58.265 177.586 58.211 L 175.338 58.157 175.290 53.037 L 175.243 47.917 175.246 53.083 M330.560 49.500 C 330.560 50.371,330.588 50.727,330.623 50.292 C 330.657 49.856,330.657 49.144,330.623 48.708 C 330.588 48.273,330.560 48.629,330.560 49.500 M309.709 48.750 C 309.711 49.117,309.745 49.247,309.785 49.040 C 309.824 48.832,309.823 48.532,309.781 48.373 C 309.739 48.214,309.707 48.383,309.709 48.750 M41.039 53.287 L 41.000 58.157 38.708 58.209 L 36.417 58.260 38.714 58.297 C 40.437 58.324,41.031 58.281,41.091 58.123 C 41.136 58.007,41.151 55.776,41.125 53.165 L 41.078 48.417 41.039 53.287 M74.724 49.750 C 74.724 50.483,74.754 50.763,74.789 50.371 C 74.824 49.979,74.824 49.379,74.788 49.037 C 74.752 48.696,74.723 49.017,74.724 49.750 M183.889 49.667 C 183.889 50.354,183.919 50.635,183.955 50.292 C 183.991 49.948,183.991 49.385,183.955 49.042 C 183.919 48.698,183.889 48.979,183.889 49.667 M188.556 49.667 C 188.556 50.354,188.585 50.635,188.621 50.292 C 188.657 49.948,188.657 49.385,188.621 49.042 C 188.585 48.698,188.556 48.979,188.556 49.667 M201.550 49.667 C 201.550 50.171,201.581 50.377,201.619 50.125 C 201.658 49.873,201.658 49.460,201.619 49.208 C 201.581 48.956,201.550 49.163,201.550 49.667 M238.000 49.385 C 238.000 49.414,238.244 49.658,238.542 49.927 L 239.083 50.417 238.594 49.875 C 238.138 49.370,238.000 49.257,238.000 49.385 M338.039 49.833 C 338.039 50.154,338.073 50.285,338.115 50.125 C 338.157 49.965,338.157 49.702,338.115 49.542 C 338.073 49.381,338.039 49.512,338.039 49.833 M346.406 50.208 L 345.917 50.750 346.458 50.260 C 346.963 49.804,347.077 49.667,346.948 49.667 C 346.919 49.667,346.675 49.910,346.406 50.208 M309.705 50.667 C 309.705 50.987,309.740 51.119,309.782 50.958 C 309.823 50.798,309.823 50.535,309.782 50.375 C 309.740 50.215,309.705 50.346,309.705 50.667 M355.449 50.299 C 355.559 50.368,355.676 50.911,355.709 51.504 L 355.769 52.583 355.801 51.375 C 355.829 50.322,355.796 50.167,355.542 50.169 C 355.344 50.171,355.315 50.213,355.449 50.299 M138.230 52.250 C 138.231 53.350,138.258 53.778,138.290 53.202 C 138.323 52.625,138.323 51.725,138.290 51.202 C 138.257 50.678,138.230 51.150,138.230 52.250 M215.875 51.250 C 215.877 51.617,215.911 51.747,215.951 51.540 C 215.991 51.332,215.990 51.032,215.948 50.873 C 215.906 50.714,215.874 50.883,215.875 51.250 M239.555 52.917 C 239.555 53.558,239.586 53.800,239.622 53.455 C 239.658 53.109,239.657 52.584,239.620 52.288 C 239.583 51.992,239.554 52.275,239.555 52.917 M310.465 53.250 C 310.560 53.433,310.888 53.808,311.194 54.083 L 311.750 54.583 311.167 53.916 C 310.847 53.550,310.519 53.175,310.438 53.083 C 310.358 52.992,310.370 53.067,310.465 53.250 M69.178 54.211 C 68.703 54.796,68.684 54.846,69.068 54.500 C 69.467 54.141,69.940 53.494,69.798 53.503 C 69.771 53.505,69.492 53.823,69.178 54.211 M336.573 54.208 L 336.083 54.750 336.625 54.260 C 337.130 53.804,337.243 53.667,337.115 53.667 C 337.086 53.667,336.842 53.910,336.573 54.208 M273.667 55.385 C 273.667 55.414,273.910 55.658,274.208 55.927 L 274.750 56.417 274.260 55.875 C 273.804 55.370,273.667 55.257,273.667 55.385 M231.458 55.618 C 231.665 55.657,232.002 55.657,232.208 55.618 C 232.415 55.578,232.246 55.545,231.833 55.545 C 231.421 55.545,231.252 55.578,231.458 55.618 M198.824 56.292 L 198.250 56.917 198.875 56.342 C 199.219 56.026,199.500 55.745,199.500 55.717 C 199.500 55.590,199.359 55.710,198.824 56.292 M306.833 55.719 C 306.833 55.748,307.077 55.991,307.375 56.260 L 307.917 56.750 307.427 56.208 C 306.971 55.703,306.833 55.590,306.833 55.719 M61.083 56.500 C 61.441 56.867,61.772 57.167,61.818 57.167 C 61.863 57.167,61.608 56.867,61.250 56.500 C 60.892 56.133,60.562 55.833,60.516 55.833 C 60.470 55.833,60.725 56.133,61.083 56.500 M237.991 56.625 L 237.417 57.250 238.042 56.676 C 238.385 56.360,238.667 56.078,238.667 56.051 C 238.667 55.923,238.526 56.043,237.991 56.625 M244.667 56.583 C 244.978 56.904,245.270 57.167,245.315 57.167 C 245.361 57.167,245.144 56.904,244.833 56.583 C 244.522 56.262,244.230 56.000,244.185 56.000 C 244.139 56.000,244.356 56.262,244.667 56.583 M330.167 57.078 L 330.167 58.156 328.166 58.211 L 326.166 58.266 328.208 58.258 L 330.250 58.250 330.300 57.183 L 330.351 56.116 331.050 56.766 L 331.750 57.417 331.091 56.708 C 330.228 55.781,330.167 55.805,330.167 57.078 M133.406 56.875 L 132.917 57.417 133.458 56.927 C 133.756 56.658,134.000 56.414,134.000 56.385 C 134.000 56.257,133.862 56.370,133.406 56.875 M355.487 56.792 L 355.083 57.250 355.529 56.858 C 355.775 56.642,356.056 56.515,356.154 56.576 C 356.253 56.637,356.333 56.607,356.333 56.510 C 356.333 56.183,355.895 56.330,355.487 56.792 M346.500 57.083 C 346.811 57.404,347.103 57.667,347.149 57.667 C 347.195 57.667,346.978 57.404,346.667 57.083 C 346.356 56.762,346.064 56.500,346.018 56.500 C 345.972 56.500,346.189 56.762,346.500 57.083 M124.167 56.719 C 124.167 56.748,124.410 56.991,124.708 57.260 L 125.250 57.750 124.760 57.208 C 124.304 56.703,124.167 56.590,124.167 56.719 M54.583 58.167 L 51.750 58.262 54.532 58.298 C 56.246 58.320,57.353 58.269,57.417 58.167 C 57.473 58.075,57.496 58.016,57.468 58.036 C 57.440 58.055,56.142 58.114,54.583 58.167 M112.833 58.167 L 110.750 58.266 112.782 58.300 C 113.995 58.320,114.855 58.266,114.917 58.167 C 114.973 58.075,114.996 58.015,114.968 58.034 C 114.940 58.052,113.979 58.112,112.833 58.167 M134.813 58.214 C 134.885 58.285,135.913 58.322,137.097 58.296 L 139.250 58.249 136.966 58.166 C 135.710 58.121,134.741 58.142,134.813 58.214 M84.298 58.290 C 84.875 58.323,85.775 58.323,86.298 58.290 C 86.822 58.257,86.350 58.230,85.250 58.230 C 84.150 58.231,83.722 58.258,84.298 58.290 M357.882 58.290 C 358.504 58.323,359.479 58.322,360.049 58.290 C 360.618 58.257,360.108 58.231,358.917 58.231 C 357.725 58.232,357.259 58.258,357.882 58.290 " stroke="none" fill="#848484" fill-rule="evenodd"></path><path id="path3" d="M166.000 39.300 L 166.083 43.917 166.128 39.428 C 166.152 36.959,166.115 34.881,166.044 34.811 C 165.974 34.741,165.954 36.761,166.000 39.300 M175.075 34.878 C 175.031 34.994,175.014 37.075,175.039 39.503 L 175.084 43.917 175.167 39.292 C 175.213 36.748,175.229 34.667,175.203 34.667 C 175.177 34.667,175.120 34.762,175.075 34.878 M296.778 34.778 C 296.624 34.932,296.637 58.129,296.792 58.224 C 296.860 58.267,296.917 52.984,296.917 46.484 C 296.917 39.985,296.910 34.667,296.903 34.667 C 296.895 34.667,296.839 34.717,296.778 34.778 M301.459 42.292 C 301.482 46.485,301.521 51.829,301.545 54.167 C 301.569 56.504,301.607 53.073,301.628 46.542 C 301.649 40.010,301.610 34.667,301.542 34.667 C 301.473 34.667,301.436 38.098,301.459 42.292 M325.872 46.542 C 325.893 53.073,325.931 56.504,325.955 54.167 C 326.070 43.110,326.072 34.667,325.958 34.667 C 325.890 34.667,325.851 40.010,325.872 46.542 M364.611 34.778 C 364.457 34.932,364.471 58.129,364.625 58.224 C 364.694 58.267,364.750 52.984,364.750 46.484 C 364.750 39.985,364.744 34.667,364.736 34.667 C 364.728 34.667,364.672 34.717,364.611 34.778 M369.412 46.500 C 369.412 52.962,369.433 55.606,369.458 52.375 C 369.484 49.144,369.484 43.856,369.458 40.625 C 369.433 37.394,369.412 40.037,369.412 46.500 M41.240 38.881 C 41.195 39.000,41.181 40.331,41.208 41.840 L 41.259 44.583 41.296 41.712 L 41.333 38.841 44.292 38.791 L 47.250 38.742 44.286 38.704 C 41.995 38.675,41.304 38.715,41.240 38.881 M97.868 38.790 C 98.482 38.822,99.532 38.822,100.201 38.791 C 100.870 38.759,100.367 38.733,99.083 38.732 C 97.800 38.732,97.253 38.758,97.868 38.790 M279.917 38.841 C 279.684 38.946,279.785 38.961,280.250 38.891 C 280.617 38.835,280.948 38.762,280.986 38.728 C 281.129 38.602,280.237 38.696,279.917 38.841 M47.627 38.951 C 47.834 38.991,48.134 38.990,48.294 38.948 C 48.453 38.906,48.283 38.874,47.917 38.875 C 47.550 38.877,47.420 38.911,47.627 38.951 M55.712 41.333 C 55.712 41.746,55.745 41.915,55.784 41.708 C 55.824 41.502,55.824 41.165,55.784 40.958 C 55.745 40.752,55.712 40.921,55.712 41.333 M65.333 40.769 C 66.275 40.889,68.788 40.908,68.609 40.794 C 68.503 40.727,67.629 40.682,66.667 40.694 C 65.704 40.707,65.104 40.740,65.333 40.769 M130.034 40.790 C 130.649 40.822,131.699 40.822,132.368 40.791 C 133.036 40.759,132.533 40.733,131.250 40.732 C 129.967 40.732,129.420 40.758,130.034 40.790 M191.881 40.790 C 192.412 40.823,193.237 40.823,193.714 40.789 C 194.192 40.756,193.758 40.729,192.750 40.729 C 191.742 40.729,191.351 40.757,191.881 40.790 M230.368 40.790 C 230.982 40.822,232.032 40.822,232.701 40.791 C 233.370 40.759,232.867 40.733,231.583 40.732 C 230.300 40.732,229.753 40.758,230.368 40.790 M248.391 40.794 C 248.284 40.862,248.884 40.895,249.724 40.869 C 252.022 40.798,252.297 40.719,250.333 40.694 C 249.371 40.682,248.497 40.727,248.391 40.794 M312.875 40.790 C 313.402 40.823,314.265 40.823,314.792 40.790 C 315.319 40.757,314.887 40.730,313.833 40.730 C 312.779 40.730,312.348 40.757,312.875 40.790 M334.880 40.789 C 335.318 40.824,335.993 40.823,336.380 40.788 C 336.767 40.754,336.408 40.725,335.583 40.726 C 334.758 40.726,334.442 40.755,334.880 40.789 M352.034 40.790 C 352.649 40.822,353.699 40.822,354.368 40.791 C 355.036 40.759,354.533 40.733,353.250 40.732 C 351.967 40.732,351.420 40.758,352.034 40.790 M204.908 46.917 C 204.908 50.125,204.931 51.414,204.958 49.781 C 204.985 48.148,204.985 45.523,204.958 43.948 C 204.931 42.372,204.908 43.708,204.908 46.917 M209.741 46.500 C 209.741 49.479,209.764 50.698,209.791 49.208 C 209.819 47.719,209.819 45.281,209.791 43.792 C 209.764 42.302,209.741 43.521,209.741 46.500 M215.906 45.333 C 215.906 47.671,215.929 48.627,215.958 47.458 C 215.987 46.290,215.987 44.377,215.958 43.208 C 215.929 42.040,215.906 42.996,215.906 45.333 M286.924 41.708 C 286.986 41.915,287.106 42.157,287.190 42.246 C 287.274 42.336,287.258 42.167,287.155 41.871 C 286.944 41.266,286.749 41.128,286.924 41.708 M347.242 42.542 L 346.583 43.250 347.292 42.591 C 347.950 41.978,348.077 41.833,347.950 41.833 C 347.923 41.833,347.605 42.152,347.242 42.542 M88.685 42.519 C 88.583 42.813,88.528 43.083,88.563 43.119 C 88.599 43.155,88.712 42.943,88.815 42.648 C 88.917 42.354,88.972 42.083,88.937 42.048 C 88.901 42.012,88.788 42.224,88.685 42.519 M125.158 42.625 L 124.583 43.250 125.208 42.676 C 125.790 42.141,125.910 42.000,125.783 42.000 C 125.755 42.000,125.474 42.281,125.158 42.625 M225.573 42.542 L 225.083 43.083 225.625 42.594 C 226.130 42.138,226.243 42.000,226.115 42.000 C 226.086 42.000,225.842 42.244,225.573 42.542 M358.667 42.052 C 358.667 42.081,358.910 42.325,359.208 42.594 L 359.750 43.083 359.260 42.542 C 358.804 42.037,358.667 41.923,358.667 42.052 M186.244 43.208 L 185.417 44.083 186.292 43.256 C 186.773 42.801,187.167 42.408,187.167 42.381 C 187.167 42.257,187.012 42.395,186.244 43.208 M320.083 43.167 C 320.535 43.625,320.942 44.000,320.987 44.000 C 321.033 44.000,320.701 43.625,320.250 43.167 C 319.799 42.708,319.392 42.333,319.346 42.333 C 319.300 42.333,319.632 42.708,320.083 43.167 M81.861 43.175 C 81.959 43.455,82.069 43.653,82.107 43.615 C 82.190 43.532,81.875 42.667,81.763 42.667 C 81.719 42.667,81.764 42.895,81.861 43.175 M137.606 43.083 C 137.992 43.741,138.000 43.751,138.000 43.546 C 138.000 43.449,137.846 43.193,137.657 42.977 L 137.314 42.583 137.606 43.083 M238.616 44.081 C 238.768 44.401,238.923 44.633,238.959 44.597 C 239.035 44.520,238.529 43.500,238.415 43.500 C 238.373 43.500,238.463 43.762,238.616 44.081 M270.372 44.333 C 270.372 44.654,270.406 44.785,270.448 44.625 C 270.490 44.465,270.490 44.202,270.448 44.042 C 270.406 43.881,270.372 44.012,270.372 44.333 M73.583 44.500 C 73.726 44.775,73.879 45.000,73.925 45.000 C 73.971 45.000,73.892 44.775,73.750 44.500 C 73.608 44.225,73.454 44.000,73.408 44.000 C 73.362 44.000,73.441 44.225,73.583 44.500 M46.375 44.448 C 46.535 44.490,46.798 44.490,46.958 44.448 C 47.119 44.406,46.987 44.372,46.667 44.372 C 46.346 44.372,46.215 44.406,46.375 44.448 M275.539 44.833 C 275.539 45.154,275.573 45.285,275.615 45.125 C 275.657 44.965,275.657 44.702,275.615 44.542 C 275.573 44.381,275.539 44.512,275.539 44.833 M59.575 45.015 C 59.429 45.299,59.338 45.561,59.375 45.597 C 59.411 45.633,59.565 45.401,59.717 45.081 C 60.060 44.362,59.941 44.308,59.575 45.015 M128.870 44.958 C 128.612 45.210,128.554 45.290,128.742 45.135 C 128.930 44.980,129.271 44.779,129.500 44.687 C 129.787 44.573,129.827 44.518,129.628 44.511 C 129.469 44.505,129.128 44.706,128.870 44.958 M312.240 44.759 C 311.922 45.014,311.922 45.016,312.250 44.865 C 312.433 44.781,312.696 44.670,312.833 44.619 C 313.049 44.539,313.048 44.525,312.824 44.513 C 312.681 44.506,312.418 44.617,312.240 44.759 M332.740 44.759 C 332.422 45.014,332.422 45.016,332.750 44.865 C 332.933 44.781,333.196 44.670,333.333 44.619 C 333.549 44.539,333.548 44.525,333.324 44.513 C 333.181 44.506,332.918 44.617,332.740 44.759 M351.074 44.759 C 350.755 45.014,350.755 45.016,351.083 44.865 C 351.267 44.781,351.529 44.670,351.667 44.619 C 351.883 44.539,351.881 44.525,351.657 44.513 C 351.514 44.506,351.251 44.617,351.074 44.759 M189.936 45.667 C 189.605 46.034,189.333 46.387,189.333 46.450 C 189.333 46.514,189.390 46.495,189.459 46.408 C 189.528 46.321,189.843 45.969,190.158 45.625 C 190.474 45.281,190.689 45.000,190.635 45.000 C 190.582 45.000,190.268 45.300,189.936 45.667 M82.762 45.500 C 82.824 45.729,82.943 46.029,83.028 46.167 C 83.135 46.340,83.149 46.290,83.071 46.000 C 83.010 45.771,82.890 45.471,82.805 45.333 C 82.698 45.160,82.685 45.210,82.762 45.500 M238.417 45.500 L 237.917 45.627 238.365 45.647 C 238.612 45.658,238.860 45.592,238.917 45.500 C 238.973 45.408,238.996 45.342,238.968 45.353 C 238.940 45.364,238.692 45.430,238.417 45.500 M270.221 46.417 C 270.222 47.058,270.252 47.300,270.288 46.955 C 270.324 46.609,270.324 46.084,270.287 45.788 C 270.250 45.492,270.221 45.775,270.221 46.417 M282.064 47.500 C 282.064 48.646,282.091 49.115,282.123 48.542 C 282.156 47.969,282.156 47.031,282.123 46.458 C 282.091 45.885,282.064 46.354,282.064 47.500 M292.574 50.250 C 292.574 52.908,292.597 53.972,292.625 52.615 C 292.653 51.257,292.653 49.082,292.625 47.781 C 292.596 46.481,292.573 47.592,292.574 50.250 M360.407 50.417 C 360.407 53.167,360.430 54.315,360.458 52.969 C 360.486 51.622,360.486 49.372,360.458 47.969 C 360.430 46.565,360.407 47.667,360.407 50.417 M74.362 46.333 C 74.370 46.766,74.633 47.478,74.638 47.083 C 74.641 46.900,74.579 46.600,74.500 46.417 C 74.412 46.212,74.359 46.180,74.362 46.333 M138.372 47.333 C 138.372 47.654,138.406 47.785,138.448 47.625 C 138.490 47.465,138.490 47.202,138.448 47.042 C 138.406 46.881,138.372 47.012,138.372 47.333 M63.730 47.583 L 63.750 48.250 66.958 48.256 L 70.167 48.261 67.010 48.210 L 63.853 48.160 63.782 47.538 L 63.710 46.917 63.730 47.583 M233.014 47.393 C 233.052 47.426,233.308 47.503,233.583 47.565 C 233.948 47.647,234.016 47.631,233.833 47.508 C 233.608 47.355,232.847 47.249,233.014 47.393 M275.539 47.833 C 275.539 48.154,275.573 48.285,275.615 48.125 C 275.657 47.965,275.657 47.702,275.615 47.542 C 275.573 47.381,275.539 47.512,275.539 47.833 M247.223 47.833 L 247.250 48.250 250.458 48.256 L 253.667 48.261 250.511 48.210 C 247.402 48.160,247.354 48.154,247.275 47.788 C 247.206 47.467,247.199 47.473,247.223 47.833 M342.709 48.083 C 342.711 48.450,342.745 48.580,342.785 48.373 C 342.824 48.166,342.823 47.866,342.781 47.706 C 342.739 47.547,342.707 47.717,342.709 48.083 M58.714 48.417 C 58.716 48.875,58.748 49.043,58.786 48.789 C 58.825 48.536,58.824 48.161,58.784 47.956 C 58.744 47.751,58.713 47.958,58.714 48.417 M165.963 53.065 C 165.937 55.945,165.973 58.267,166.042 58.224 C 166.110 58.182,166.167 55.864,166.167 53.073 L 166.167 48.000 170.583 48.000 L 175.000 48.000 175.000 53.073 C 175.000 55.864,175.056 58.182,175.125 58.224 C 175.194 58.267,175.213 55.965,175.167 53.109 L 175.083 47.917 170.546 47.872 L 166.009 47.828 165.963 53.065 M270.375 48.417 C 270.377 48.783,270.411 48.914,270.451 48.706 C 270.491 48.499,270.490 48.199,270.448 48.040 C 270.406 47.880,270.374 48.050,270.375 48.417 M242.228 49.833 C 242.228 50.796,242.256 51.190,242.290 50.708 C 242.323 50.227,242.323 49.440,242.290 48.958 C 242.256 48.477,242.228 48.871,242.228 49.833 M322.727 49.667 C 322.727 50.538,322.755 50.894,322.789 50.458 C 322.824 50.023,322.824 49.310,322.789 48.875 C 322.755 48.440,322.727 48.796,322.727 49.667 M188.726 49.750 C 188.725 50.575,188.754 50.934,188.788 50.547 C 188.823 50.160,188.824 49.485,188.789 49.047 C 188.755 48.609,188.726 48.925,188.726 49.750 M41.166 53.367 C 41.121 56.089,41.141 58.260,41.211 58.189 C 41.281 58.119,41.319 55.891,41.294 53.239 L 41.250 48.417 41.166 53.367 M183.723 49.667 C 183.723 50.354,183.752 50.635,183.788 50.292 C 183.824 49.948,183.824 49.385,183.788 49.042 C 183.752 48.698,183.723 48.979,183.723 49.667 M337.889 49.833 C 337.889 50.521,337.919 50.802,337.955 50.458 C 337.991 50.115,337.991 49.552,337.955 49.208 C 337.919 48.865,337.889 49.146,337.889 49.833 M196.717 49.667 C 196.717 50.171,196.748 50.377,196.786 50.125 C 196.824 49.873,196.824 49.460,196.786 49.208 C 196.748 48.956,196.717 49.163,196.717 49.667 M304.881 49.583 C 304.882 50.042,304.915 50.209,304.953 49.956 C 304.991 49.703,304.990 49.328,304.951 49.123 C 304.911 48.918,304.880 49.125,304.881 49.583 M45.920 50.042 C 46.278 50.477,46.597 50.833,46.630 50.833 C 46.749 50.833,46.025 49.907,45.653 49.583 C 45.442 49.400,45.562 49.606,45.920 50.042 M74.883 50.167 C 74.883 50.671,74.915 50.877,74.953 50.625 C 74.991 50.373,74.991 49.960,74.953 49.708 C 74.915 49.456,74.883 49.663,74.883 50.167 M258.383 50.167 C 258.383 50.671,258.415 50.877,258.453 50.625 C 258.491 50.373,258.491 49.960,258.453 49.708 C 258.415 49.456,258.383 49.663,258.383 50.167 M283.633 49.624 C 284.394 49.655,285.594 49.655,286.300 49.624 C 287.006 49.593,286.383 49.567,284.917 49.567 C 283.450 49.568,282.872 49.593,283.633 49.624 M346.406 50.042 L 345.917 50.583 346.458 50.094 C 346.963 49.638,347.077 49.500,346.948 49.500 C 346.919 49.500,346.675 49.744,346.406 50.042 M58.683 51.181 C 58.692 51.585,58.760 52.104,58.834 52.333 C 58.915 52.583,58.932 52.317,58.878 51.667 C 58.771 50.401,58.659 50.120,58.683 51.181 M342.709 51.083 C 342.711 51.450,342.745 51.580,342.785 51.373 C 342.824 51.166,342.823 50.866,342.781 50.706 C 342.739 50.547,342.707 50.717,342.709 51.083 M85.416 51.501 C 85.351 51.798,85.233 51.958,85.127 51.892 C 85.017 51.824,84.997 51.861,85.076 51.989 C 85.147 52.103,85.266 52.133,85.340 52.056 C 85.507 51.885,85.737 51.000,85.615 51.000 C 85.566 51.000,85.477 51.226,85.416 51.501 M239.720 52.833 C 239.720 53.429,239.750 53.673,239.787 53.375 C 239.824 53.077,239.824 52.590,239.787 52.292 C 239.750 51.994,239.720 52.237,239.720 52.833 M127.872 53.000 C 127.872 53.321,127.906 53.452,127.948 53.292 C 127.990 53.131,127.990 52.869,127.948 52.708 C 127.906 52.548,127.872 52.679,127.872 53.000 M123.052 53.583 C 123.053 54.133,123.084 54.338,123.121 54.039 C 123.158 53.739,123.157 53.289,123.119 53.039 C 123.081 52.788,123.051 53.033,123.052 53.583 M345.052 53.583 C 345.053 54.133,345.084 54.338,345.121 54.039 C 345.158 53.739,345.157 53.289,345.119 53.039 C 345.081 52.788,345.051 53.033,345.052 53.583 M256.847 53.226 C 256.885 53.259,257.217 53.332,257.583 53.388 C 258.037 53.458,258.170 53.440,258.000 53.331 C 257.772 53.186,256.685 53.087,256.847 53.226 M336.678 53.878 C 336.203 54.463,336.184 54.512,336.568 54.167 C 336.967 53.808,337.440 53.161,337.298 53.170 C 337.271 53.171,336.992 53.490,336.678 53.878 M74.431 53.562 C 74.483 53.697,74.441 53.982,74.337 54.195 C 74.157 54.565,74.160 54.568,74.407 54.260 C 74.704 53.889,74.741 53.565,74.502 53.418 C 74.409 53.361,74.378 53.424,74.431 53.562 M132.740 54.042 L 132.250 54.583 132.792 54.094 C 133.090 53.825,133.333 53.581,133.333 53.552 C 133.333 53.423,133.196 53.537,132.740 54.042 M214.740 54.042 L 214.250 54.583 214.792 54.094 C 215.297 53.638,215.410 53.500,215.281 53.500 C 215.252 53.500,215.009 53.744,214.740 54.042 M280.000 54.159 C 280.137 54.252,280.394 54.329,280.569 54.331 C 280.996 54.334,280.863 54.239,280.250 54.102 C 279.885 54.020,279.817 54.036,280.000 54.159 M283.667 54.167 C 283.332 54.274,283.315 54.301,283.583 54.305 C 283.767 54.308,284.067 54.245,284.250 54.167 C 284.675 53.984,284.237 53.984,283.667 54.167 M234.282 54.755 C 234.025 54.982,233.881 55.167,233.962 55.167 C 234.042 55.167,234.285 54.979,234.500 54.750 C 234.998 54.220,234.888 54.222,234.282 54.755 M191.333 54.826 C 191.471 54.919,191.727 54.996,191.903 54.997 C 192.329 55.001,192.196 54.905,191.583 54.768 C 191.218 54.687,191.151 54.702,191.333 54.826 M320.999 55.208 C 320.754 55.544,320.714 55.660,320.894 55.514 C 321.167 55.292,321.580 54.667,321.454 54.667 C 321.422 54.667,321.218 54.910,320.999 55.208 M129.583 54.992 C 129.903 55.137,130.796 55.232,130.653 55.105 C 130.615 55.072,130.283 54.999,129.917 54.943 C 129.452 54.872,129.351 54.887,129.583 54.992 M198.991 56.292 L 198.417 56.917 199.042 56.342 C 199.385 56.026,199.667 55.745,199.667 55.717 C 199.667 55.590,199.526 55.710,198.991 56.292 M306.833 55.885 C 306.833 55.914,307.077 56.158,307.375 56.427 L 307.917 56.917 307.427 56.375 C 306.971 55.870,306.833 55.757,306.833 55.885 M238.075 56.708 L 237.417 57.417 238.125 56.758 C 238.515 56.395,238.833 56.077,238.833 56.050 C 238.833 55.923,238.688 56.050,238.075 56.708 M216.165 57.299 L 216.246 58.417 216.299 57.434 C 216.328 56.894,216.291 56.391,216.217 56.317 C 216.144 56.243,216.120 56.685,216.165 57.299 M330.306 57.318 C 330.275 57.859,330.306 58.267,330.375 58.225 C 330.444 58.182,330.500 57.762,330.500 57.291 L 330.500 56.435 331.125 57.009 L 331.750 57.583 331.176 56.958 C 330.422 56.139,330.373 56.159,330.306 57.318 M206.417 57.167 C 206.775 57.533,207.105 57.833,207.151 57.833 C 207.197 57.833,206.941 57.533,206.583 57.167 C 206.225 56.800,205.895 56.500,205.849 56.500 C 205.803 56.500,206.059 56.800,206.417 57.167 M355.487 56.958 L 355.083 57.417 355.583 57.000 C 355.858 56.771,356.115 56.565,356.153 56.542 C 356.191 56.519,356.148 56.500,356.057 56.500 C 355.966 56.500,355.710 56.706,355.487 56.958 M115.213 57.504 C 115.020 57.960,114.897 58.333,114.940 58.333 C 115.053 58.333,115.707 56.819,115.629 56.740 C 115.593 56.704,115.405 57.047,115.213 57.504 M346.000 56.719 C 346.000 56.748,346.244 56.991,346.542 57.260 L 347.083 57.750 346.594 57.208 C 346.138 56.703,346.000 56.590,346.000 56.719 M356.190 57.000 C 356.190 57.137,356.255 57.400,356.333 57.583 C 356.424 57.793,356.477 57.824,356.477 57.667 C 356.477 57.529,356.412 57.267,356.333 57.083 C 356.243 56.873,356.190 56.842,356.190 57.000 M82.758 57.708 C 82.820 57.915,82.939 58.157,83.023 58.246 C 83.107 58.336,83.091 58.167,82.988 57.871 C 82.777 57.266,82.582 57.128,82.758 57.708 " stroke="none" fill="#4d4d4d" fill-rule="evenodd"></path><path id="path4" d="M36.278 34.778 C 36.124 34.932,36.137 58.129,36.292 58.224 C 36.360 58.267,36.417 52.984,36.417 46.484 C 36.417 39.985,36.410 34.667,36.403 34.667 C 36.395 34.667,36.339 34.717,36.278 34.778 M47.958 34.784 C 48.165 34.824,48.502 34.824,48.708 34.784 C 48.915 34.745,48.746 34.712,48.333 34.712 C 47.921 34.712,47.752 34.745,47.958 34.784 M96.739 34.886 C 96.693 35.006,96.677 35.925,96.703 36.927 L 96.752 38.750 96.834 36.708 C 96.916 34.691,96.903 34.457,96.739 34.886 M147.250 46.500 C 147.250 52.991,147.306 58.267,147.375 58.224 C 147.444 58.182,147.500 52.906,147.500 46.500 C 147.500 40.094,147.444 34.818,147.375 34.776 C 147.306 34.733,147.250 40.009,147.250 46.500 M179.917 46.500 C 179.917 52.991,179.973 58.267,180.042 58.224 C 180.110 58.182,180.167 52.906,180.167 46.500 C 180.167 40.094,180.110 34.818,180.042 34.776 C 179.973 34.733,179.917 40.009,179.917 46.500 M96.704 49.698 C 96.684 54.345,96.723 58.182,96.792 58.224 C 96.905 58.295,96.903 51.946,96.787 44.250 C 96.762 42.600,96.725 45.052,96.704 49.698 M198.667 42.885 C 198.667 42.914,198.910 43.158,199.208 43.427 L 199.750 43.917 199.260 43.375 C 198.804 42.870,198.667 42.757,198.667 42.885 M231.208 43.948 C 231.369 43.990,231.631 43.990,231.792 43.948 C 231.952 43.906,231.821 43.872,231.500 43.872 C 231.179 43.872,231.048 43.906,231.208 43.948 M275.385 46.250 C 275.386 46.800,275.417 47.005,275.454 46.705 C 275.491 46.406,275.490 45.956,275.452 45.705 C 275.414 45.455,275.384 45.700,275.385 46.250 M342.718 49.583 C 342.719 50.133,342.750 50.338,342.787 50.039 C 342.825 49.739,342.824 49.289,342.786 49.039 C 342.748 48.788,342.717 49.033,342.718 49.583 M317.883 49.667 C 317.883 50.171,317.915 50.377,317.953 50.125 C 317.991 49.873,317.991 49.460,317.953 49.208 C 317.915 48.956,317.883 49.163,317.883 49.667 M58.712 49.833 C 58.712 50.246,58.745 50.415,58.784 50.208 C 58.824 50.002,58.824 49.665,58.784 49.458 C 58.745 49.252,58.712 49.421,58.712 49.833 M215.875 50.083 C 215.877 50.450,215.911 50.580,215.951 50.373 C 215.991 50.166,215.990 49.866,215.948 49.706 C 215.906 49.547,215.874 49.717,215.875 50.083 M287.558 51.000 C 287.558 51.779,287.587 52.098,287.622 51.708 C 287.657 51.319,287.657 50.681,287.622 50.292 C 287.587 49.902,287.558 50.221,287.558 51.000 M133.717 51.167 C 133.717 51.671,133.748 51.877,133.786 51.625 C 133.824 51.373,133.824 50.960,133.786 50.708 C 133.748 50.456,133.717 50.663,133.717 51.167 " stroke="none" fill="#7c7c7c" fill-rule="evenodd"></path></g></svg>